<svg id="svg" version="1.1" xmlns="http://www.w3.org/2000/svg" xmlns:xlink="http://www.w3.org/1999/xlink" width="400" height="400" viewBox="0, 0, 400,400"><g id="svgg"><path id="path0" d="M215.485 25.450 C 213.953 26.017,39.528 200.069,38.682 201.875 C 37.401 204.611,37.546 208.435,38.990 210.000 C 42.438 213.737,214.156 385.127,214.378 385.052 C 214.548 384.995,214.688 385.090,214.688 385.264 C 214.688 386.575,220.222 386.844,222.542 385.646 C 225.944 383.890,227.414 380.413,226.448 376.406 C 226.366 376.063,226.287 375.616,226.274 375.413 C 226.261 375.210,226.029 374.824,225.759 374.554 C 225.489 374.283,225.314 374.063,225.371 374.063 C 225.427 374.063,187.677 336.270,141.481 290.078 C 95.285 243.887,57.526 205.917,57.572 205.700 C 57.619 205.484,95.368 167.585,141.461 121.481 C 204.683 58.243,225.388 37.355,225.765 36.429 C 226.290 35.140,226.488 31.844,226.104 30.781 C 225.392 28.808,225.209 28.438,224.944 28.438 C 224.782 28.438,224.724 28.318,224.814 28.173 C 224.904 28.027,224.539 27.500,224.003 27.001 C 223.467 26.502,223.129 26.270,223.251 26.484 C 223.592 27.081,223.219 26.950,222.559 26.241 C 221.526 25.132,217.548 24.688,215.485 25.450 " stroke="none" fill="#1c2c34" fill-rule="evenodd"></path><path id="path1" d="M214.531 25.457 C 211.634 26.869,38.702 200.239,37.846 202.590 C 37.024 204.847,37.014 206.388,37.806 208.506 C 38.379 210.037,44.942 216.676,126.085 297.814 C 205.388 377.113,215.520 387.084,216.151 386.453 C 216.253 386.351,215.966 386.126,215.512 385.954 C 215.059 385.782,214.688 385.485,214.688 385.294 C 214.687 385.104,214.548 384.995,214.378 385.052 C 214.153 385.128,41.914 213.212,38.997 210.000 C 37.830 208.715,37.560 203.849,38.552 201.979 C 39.161 200.832,213.674 26.379,214.099 26.492 C 214.277 26.539,214.342 26.450,214.246 26.294 C 213.409 24.940,221.407 24.760,222.395 26.111 C 222.596 26.385,222.976 26.642,223.240 26.681 C 223.900 26.777,225.023 27.835,224.818 28.167 C 224.726 28.316,224.782 28.438,224.944 28.438 C 225.209 28.438,225.392 28.808,226.104 30.781 C 226.488 31.844,226.290 35.140,225.765 36.429 C 225.388 37.355,204.683 58.243,141.461 121.481 C 95.368 167.585,57.619 205.484,57.572 205.700 C 57.526 205.917,95.285 243.887,141.481 290.078 C 187.677 336.270,225.427 374.063,225.371 374.063 C 225.314 374.063,225.489 374.283,225.759 374.554 C 226.029 374.824,226.261 375.210,226.274 375.413 C 226.287 375.616,226.366 376.063,226.448 376.406 C 227.786 381.959,224.464 386.327,218.861 386.383 C 217.597 386.396,216.563 386.512,216.563 386.641 C 216.563 386.770,217.548 386.875,218.753 386.875 C 225.480 386.875,229.232 380.217,225.974 374.063 C 225.747 373.633,187.853 335.559,141.765 289.453 L 57.970 205.626 141.918 121.641 C 234.944 28.574,227.072 36.830,226.822 32.595 C 226.453 26.317,220.207 22.690,214.531 25.457 " stroke="none" fill="#202c34" fill-rule="evenodd"></path></g></svg>