<svg id="svg" version="1.1" xmlns="http://www.w3.org/2000/svg" xmlns:xlink="http://www.w3.org/1999/xlink" width="400" height="400" viewBox="0, 0, 400,400"><g id="svgg"><path id="path0" d="M137.463 21.700 C 137.397 21.764,136.874 21.890,136.300 21.979 C 135.726 22.069,135.011 22.363,134.713 22.633 C 134.414 22.904,134.029 23.125,133.858 23.125 C 133.453 23.125,132.188 24.473,132.188 24.904 C 132.188 25.086,131.973 25.414,131.711 25.631 C 131.449 25.849,131.304 26.095,131.388 26.179 C 131.472 26.263,131.390 26.614,131.206 26.958 C 130.787 27.740,130.627 30.975,130.984 31.438 C 131.130 31.627,131.280 32.151,131.317 32.602 C 131.355 33.053,131.566 33.492,131.786 33.576 C 132.007 33.661,132.188 33.911,132.188 34.132 C 132.188 34.352,169.981 72.325,216.173 118.516 L 300.158 202.499 216.509 286.147 C 148.453 354.203,132.704 370.103,132.027 371.443 C 131.186 373.105,130.817 376.234,131.359 377.111 C 131.491 377.325,131.519 377.500,131.421 377.500 C 131.177 377.500,132.741 379.993,133.525 380.853 C 135.197 382.688,138.709 383.445,142.031 382.686 C 142.738 382.524,164.528 360.916,230.392 295.064 C 278.474 246.990,317.947 207.612,318.109 207.558 C 318.270 207.504,318.325 207.258,318.230 207.011 C 318.136 206.764,318.217 206.563,318.412 206.563 C 319.539 206.563,320.014 200.859,319.022 199.231 C 318.704 198.709,318.352 198.070,318.241 197.813 C 317.857 196.921,143.903 23.093,142.969 22.668 C 141.099 21.817,137.918 21.258,137.463 21.700 " stroke="none" fill="#1c2c34" fill-rule="evenodd"></path><path id="path1" d="M316.563 195.854 C 316.563 196.047,316.879 196.467,317.266 196.787 C 318.036 197.424,318.579 198.192,319.072 199.340 C 319.248 199.751,319.471 200.008,319.567 199.912 C 319.880 199.599,318.750 197.622,317.644 196.551 C 317.049 195.974,316.563 195.660,316.563 195.854 M319.591 202.109 C 319.658 204.130,319.223 205.911,318.528 206.464 C 318.272 206.667,318.148 206.971,318.252 207.140 C 318.356 207.309,318.300 207.494,318.128 207.551 C 317.956 207.609,278.474 246.981,230.392 295.044 C 182.309 343.107,142.758 382.506,142.500 382.597 C 142.168 382.715,142.213 382.770,142.654 382.788 C 143.449 382.819,318.499 207.864,319.287 206.250 C 319.854 205.090,320.265 200.313,319.799 200.312 C 319.652 200.312,319.558 201.121,319.591 202.109 M216.056 286.016 C 147.032 355.074,132.140 370.119,131.536 371.406 C 130.823 372.926,130.398 376.563,130.932 376.563 C 131.064 376.563,131.172 375.799,131.172 374.867 C 131.172 371.362,125.855 376.887,216.525 286.172 C 262.693 239.980,300.327 202.188,300.155 202.188 C 299.984 202.188,262.139 239.910,216.056 286.016 M130.938 377.139 C 130.938 379.077,134.007 382.417,136.368 383.049 C 138.734 383.682,141.875 383.521,141.875 382.768 C 141.875 382.591,141.662 382.590,141.328 382.765 C 139.581 383.682,135.103 382.585,133.525 380.853 C 132.798 380.055,131.350 377.784,131.321 377.396 C 131.290 376.973,130.938 376.737,130.938 377.139 " stroke="none" fill="#202c34" fill-rule="evenodd"></path></g></svg>