<svg id="svg" xmlns="http://www.w3.org/2000/svg" xmlns:xlink="http://www.w3.org/1999/xlink" width="400" height="400" viewBox="0, 0, 400,400"><g id="svgg"><path id="path0" d="M179.688 0.485 C 74.669 12.975,0.391 95.306,0.391 199.219 C 0.391 337.282,134.228 432.433,265.234 387.507 C 377.339 349.064,430.702 218.566,378.169 111.328 C 349.644 53.100,297.077 14.013,231.450 2.233 C 222.597 0.644,188.137 -0.520,179.688 0.485 M219.531 17.225 C 344.423 30.582,419.066 166.256,363.714 279.297 C 296.694 416.163,101.743 416.163,34.724 279.297 C -28.446 150.292,76.199 1.897,219.531 17.225 M264.676 67.792 C 260.297 69.020,259.577 69.700,258.899 73.243 C 258.714 74.210,255.413 88.008,251.562 103.906 C 247.712 119.804,244.397 133.603,244.196 134.570 C 243.995 135.537,243.618 137.207,243.359 138.281 C 243.100 139.355,242.709 141.113,242.489 142.188 C 242.269 143.262,239.142 156.270,235.540 171.094 C 229.123 197.498,227.528 204.211,226.894 207.487 C 226.721 208.383,224.863 216.200,222.766 224.859 L 218.954 240.603 220.396 245.804 C 221.189 248.664,221.994 251.160,222.184 251.350 C 222.374 251.541,240.366 246.916,262.167 241.073 C 283.968 235.231,301.885 230.542,301.983 230.655 C 302.081 230.767,306.285 246.328,311.325 265.234 C 316.365 284.141,320.537 299.666,320.596 299.736 C 320.874 300.063,332.810 296.569,332.793 296.165 C 332.635 292.474,271.140 66.771,270.265 66.670 C 269.647 66.599,267.131 67.103,264.676 67.792 M282.678 158.319 C 291.391 190.823,298.237 217.671,297.892 217.981 C 297.102 218.689,234.407 235.450,234.020 235.056 C 233.863 234.896,235.450 227.734,237.545 219.141 C 239.641 210.547,241.524 202.637,241.730 201.563 C 242.632 196.855,243.364 193.754,248.905 171.152 C 253.879 150.867,255.386 144.480,257.397 135.156 C 259.265 126.499,266.118 99.224,266.427 99.222 C 266.653 99.220,273.966 125.814,282.678 158.319 M120.156 107.448 C 119.988 107.616,118.300 107.949,116.406 108.187 C 112.218 108.713,106.922 110.087,105.859 110.924 C 105.430 111.262,103.936 111.783,102.539 112.081 C 101.143 112.380,100.000 112.948,100.000 113.343 C 100.000 113.739,99.297 114.063,98.438 114.063 C 97.578 114.063,96.875 114.328,96.875 114.653 C 96.875 114.978,95.746 115.743,94.365 116.354 C 78.361 123.439,70.858 147.002,75.682 175.030 C 76.798 181.514,108.551 299.489,109.412 300.350 C 109.822 300.759,110.156 301.570,110.156 302.152 C 110.156 303.968,116.331 317.371,117.383 317.839 C 117.705 317.982,117.969 318.473,117.969 318.930 C 117.969 319.992,122.871 326.051,126.938 330.014 C 150.506 352.985,196.659 341.127,207.266 309.375 C 209.315 303.241,210.458 285.149,209.075 280.737 C 208.827 279.945,208.456 277.970,208.252 276.349 C 207.755 272.417,204.641 260.724,203.861 259.863 C 203.510 259.476,200.837 259.767,197.714 260.533 C 191.508 262.054,191.527 262.017,193.404 268.750 C 203.548 305.143,190.055 328.106,157.813 329.322 C 144.435 329.827,132.124 320.890,125.492 305.859 C 124.734 304.141,123.802 302.031,123.421 301.172 C 120.528 294.641,89.859 182.627,89.834 178.502 C 89.829 177.650,89.297 175.020,88.652 172.656 C 85.403 160.762,86.848 144.558,91.867 136.607 C 102.983 118.999,132.823 114.295,147.266 127.874 C 152.006 132.332,160.156 144.966,160.156 147.857 C 160.156 148.224,160.813 149.998,161.616 151.801 C 162.419 153.603,163.687 157.627,164.435 160.742 C 165.182 163.857,166.112 166.406,166.502 166.406 C 167.801 166.406,176.943 163.806,177.592 163.253 C 178.310 162.639,174.746 148.844,173.010 145.516 C 172.391 144.330,171.882 142.991,171.880 142.541 C 171.874 141.579,167.377 132.678,165.189 129.297 C 158.331 118.703,148.718 111.279,138.333 108.558 C 133.850 107.384,121.005 106.599,120.156 107.448 " stroke="none" fill="#000000" fill-rule="evenodd"></path></g></svg>