<svg id="svg" version="1.1" xmlns="http://www.w3.org/2000/svg" xmlns:xlink="http://www.w3.org/1999/xlink" width="400" height="253.33333333333334" viewBox="0, 0, 400,253.33333333333334"><g id="svgg"><path id="path0" d="M248.162 15.177 C 247.953 15.298,246.470 15.471,244.867 15.562 C 240.357 15.819,234.213 16.665,231.052 17.464 C 228.734 18.051,227.959 18.239,226.996 18.450 C 226.439 18.572,225.617 18.863,225.171 19.095 C 224.725 19.328,223.943 19.518,223.434 19.518 C 222.883 19.518,221.631 19.929,220.344 20.532 C 219.154 21.090,217.966 21.546,217.703 21.546 C 217.441 21.546,216.318 22.003,215.209 22.560 C 214.100 23.118,212.980 23.574,212.719 23.574 C 212.459 23.574,212.039 23.802,211.787 24.081 C 211.535 24.360,211.078 24.588,210.773 24.588 C 210.468 24.588,210.012 24.816,209.759 25.095 C 209.507 25.374,209.047 25.602,208.737 25.602 C 208.427 25.602,208.023 25.783,207.839 26.005 C 207.656 26.226,206.530 26.898,205.337 27.497 C 204.144 28.097,202.951 28.828,202.686 29.123 C 202.420 29.417,201.958 29.658,201.660 29.658 C 201.360 29.658,200.673 30.113,200.127 30.672 C 199.582 31.229,198.922 31.686,198.659 31.686 C 198.396 31.686,197.423 32.370,196.496 33.207 C 195.569 34.043,194.657 34.728,194.468 34.728 C 194.280 34.728,192.682 36.096,190.918 37.769 C 189.154 39.442,187.533 40.811,187.316 40.811 C 187.099 40.811,186.476 41.267,185.932 41.825 C 184.619 43.170,184.200 43.113,182.211 41.318 C 181.285 40.482,180.390 39.797,180.222 39.797 C 180.055 39.797,179.373 39.341,178.707 38.783 C 178.041 38.226,177.326 37.769,177.119 37.769 C 176.911 37.769,176.590 37.587,176.406 37.365 C 175.948 36.814,167.689 32.700,167.040 32.700 C 166.754 32.700,166.073 32.471,165.526 32.193 C 164.979 31.914,164.294 31.686,164.003 31.686 C 163.711 31.686,163.108 31.492,162.662 31.255 C 162.216 31.017,161.223 30.741,160.456 30.640 C 159.689 30.539,158.549 30.323,157.921 30.160 C 153.409 28.983,139.526 29.046,136.122 30.258 C 135.494 30.482,134.549 30.666,134.020 30.668 C 133.492 30.670,132.612 30.900,132.066 31.179 C 131.519 31.458,130.657 31.686,130.149 31.686 C 129.601 31.686,128.345 32.098,127.062 32.700 C 125.872 33.257,124.703 33.714,124.466 33.714 C 124.228 33.714,123.826 33.942,123.574 34.221 C 123.322 34.499,122.808 34.728,122.433 34.728 C 122.058 34.728,121.545 34.956,121.293 35.234 C 121.040 35.513,120.641 35.741,120.406 35.741 C 120.170 35.741,119.771 35.970,119.518 36.248 C 119.266 36.527,118.836 36.755,118.564 36.755 C 118.291 36.755,117.523 37.212,116.857 37.769 C 116.191 38.327,115.509 38.783,115.342 38.783 C 115.174 38.783,114.279 39.468,113.353 40.304 C 112.426 41.141,111.493 41.825,111.280 41.825 C 110.807 41.825,104.689 47.908,104.689 48.378 C 104.689 48.563,103.997 49.474,103.151 50.403 C 102.305 51.331,101.344 52.612,101.016 53.248 C 100.688 53.884,100.230 54.562,99.997 54.755 C 99.765 54.948,99.082 56.088,98.479 57.288 C 97.876 58.488,97.202 59.620,96.981 59.804 C 96.759 59.988,96.578 60.355,96.578 60.620 C 96.578 60.885,96.122 62.009,95.564 63.118 C 95.006 64.227,94.550 65.371,94.550 65.660 C 94.550 65.949,94.360 66.550,94.127 66.996 C 93.894 67.442,93.609 68.235,93.493 68.758 C 93.377 69.281,93.160 70.193,93.010 70.786 C 92.860 71.378,92.640 72.490,92.522 73.257 C 92.404 74.024,92.174 75.165,92.010 75.792 C 91.846 76.420,91.622 77.788,91.510 78.834 C 91.399 79.880,91.207 81.126,91.084 81.604 L 90.861 82.472 87.319 82.518 C 85.371 82.543,82.864 82.699,81.749 82.863 C 80.634 83.028,78.523 83.269,77.060 83.400 C 73.811 83.690,72.930 83.850,68.568 84.941 C 68.010 85.080,67.155 85.284,66.667 85.393 C 66.179 85.503,65.414 85.783,64.968 86.016 C 64.522 86.248,63.713 86.439,63.170 86.439 C 62.504 86.439,62.033 86.604,61.724 86.946 C 61.471 87.224,60.993 87.452,60.660 87.452 C 60.328 87.452,59.609 87.681,59.062 87.959 C 58.516 88.238,57.853 88.466,57.591 88.466 C 57.328 88.466,56.906 88.695,56.654 88.973 C 56.402 89.252,55.925 89.480,55.596 89.480 C 54.889 89.480,50.693 91.536,50.209 92.120 C 50.025 92.341,49.678 92.522,49.438 92.522 C 49.198 92.522,48.795 92.750,48.542 93.029 C 48.290 93.308,47.830 93.536,47.520 93.536 C 47.210 93.536,46.808 93.716,46.626 93.935 C 46.444 94.154,45.831 94.570,45.264 94.858 C 44.697 95.147,43.651 95.880,42.938 96.487 C 42.226 97.095,41.443 97.592,41.198 97.592 C 40.615 97.592,25.602 112.605,25.602 113.188 C 25.602 113.433,25.105 114.216,24.498 114.928 C 23.890 115.640,23.157 116.687,22.868 117.254 C 22.580 117.821,22.164 118.434,21.945 118.616 C 21.726 118.798,21.546 119.117,21.546 119.324 C 21.546 119.532,21.090 120.246,20.532 120.913 C 19.975 121.579,19.518 122.347,19.518 122.619 C 19.518 122.892,19.290 123.322,19.011 123.574 C 18.733 123.826,18.504 124.283,18.504 124.588 C 18.504 124.893,18.276 125.350,17.997 125.602 C 17.719 125.854,17.490 126.274,17.490 126.534 C 17.490 126.794,17.034 127.915,16.477 129.024 C 15.919 130.133,15.463 131.311,15.463 131.641 C 15.463 131.971,15.246 132.436,14.982 132.676 C 14.718 132.915,14.446 133.417,14.377 133.792 C 14.308 134.167,14.068 135.135,13.843 135.944 C 13.619 136.752,13.435 137.619,13.435 137.869 C 13.435 138.120,13.217 138.521,12.951 138.762 C 12.662 139.024,12.413 139.677,12.333 140.386 C 12.154 141.964,11.738 144.348,11.396 145.754 C 10.877 147.884,10.620 149.676,10.394 152.725 C 10.270 154.398,10.055 156.822,9.917 158.112 C 9.751 159.656,9.750 161.256,9.914 162.801 C 10.051 164.091,10.267 166.286,10.395 167.681 C 10.522 169.075,10.748 170.900,10.897 171.736 C 11.046 172.573,11.272 173.942,11.400 174.778 C 11.528 175.615,11.764 176.755,11.924 177.313 C 12.085 177.871,12.297 178.954,12.394 179.721 C 12.492 180.488,12.767 181.480,13.004 181.927 C 13.241 182.373,13.435 182.976,13.435 183.267 C 13.435 183.559,13.663 184.244,13.942 184.791 C 14.221 185.337,14.449 186.022,14.449 186.312 C 14.449 186.602,14.677 187.286,14.956 187.833 C 15.234 188.379,15.463 189.041,15.463 189.304 C 15.463 189.567,15.691 189.988,15.970 190.241 C 16.248 190.493,16.477 190.969,16.477 191.298 C 16.477 192.068,19.294 197.695,19.997 198.328 C 20.291 198.594,20.532 199.065,20.532 199.375 C 20.532 199.684,20.712 200.087,20.932 200.270 C 21.152 200.452,21.600 201.130,21.926 201.774 C 22.253 202.419,22.709 203.103,22.939 203.294 C 23.169 203.485,23.594 204.106,23.882 204.673 C 24.171 205.240,24.904 206.286,25.512 206.998 C 26.119 207.710,26.616 208.460,26.616 208.663 C 26.616 209.146,37.724 220.279,38.206 220.279 C 38.409 220.279,39.333 220.963,40.260 221.800 C 41.186 222.636,42.102 223.321,42.293 223.321 C 42.485 223.321,43.187 223.777,43.853 224.335 C 44.519 224.892,45.203 225.349,45.374 225.349 C 45.544 225.349,46.229 225.805,46.895 226.362 C 47.561 226.920,48.329 227.376,48.602 227.376 C 48.874 227.376,49.304 227.605,49.556 227.883 C 49.809 228.162,50.208 228.390,50.444 228.390 C 50.679 228.390,51.078 228.619,51.331 228.897 C 51.583 229.176,52.039 229.404,52.345 229.404 C 52.650 229.404,53.106 229.632,53.359 229.911 C 53.611 230.190,54.124 230.418,54.499 230.418 C 54.874 230.418,55.388 230.646,55.640 230.925 C 55.892 231.204,56.314 231.432,56.577 231.432 C 56.839 231.432,57.502 231.660,58.048 231.939 C 58.595 232.218,59.279 232.446,59.569 232.446 C 59.859 232.446,60.543 232.674,61.090 232.953 C 61.637 233.232,62.321 233.460,62.611 233.460 C 62.901 233.460,63.585 233.688,64.132 233.967 C 64.678 234.246,65.363 234.474,65.653 234.474 C 65.943 234.474,66.627 234.702,67.174 234.981 C 67.720 235.260,68.600 235.490,69.128 235.492 C 69.656 235.494,70.602 235.674,71.229 235.893 C 71.857 236.112,73.169 236.400,74.144 236.532 C 75.120 236.664,76.946 236.911,78.200 237.081 C 81.702 237.554,328.472 237.527,330.798 237.053 C 331.705 236.869,333.302 236.623,334.347 236.508 C 335.393 236.392,336.762 236.164,337.389 236.000 C 338.016 235.837,339.157 235.620,339.924 235.520 C 340.691 235.419,341.683 235.142,342.129 234.905 C 342.576 234.668,343.179 234.474,343.470 234.474 C 343.762 234.474,344.447 234.246,344.994 233.967 C 345.540 233.688,346.223 233.460,346.510 233.460 C 346.798 233.460,347.940 233.004,349.049 232.446 C 350.159 231.888,351.279 231.432,351.539 231.432 C 351.800 231.432,352.219 231.204,352.471 230.925 C 352.724 230.646,353.180 230.418,353.485 230.418 C 353.791 230.418,354.247 230.190,354.499 229.911 C 354.752 229.632,355.212 229.404,355.522 229.404 C 355.831 229.404,356.234 229.224,356.417 229.004 C 356.600 228.784,357.269 228.340,357.905 228.018 C 358.542 227.695,359.279 227.191,359.545 226.897 C 359.811 226.603,360.272 226.362,360.571 226.362 C 360.870 226.362,361.558 225.908,362.104 225.349 C 362.648 224.791,363.313 224.335,363.580 224.335 C 363.847 224.335,365.065 223.422,366.286 222.307 C 367.508 221.191,368.662 220.279,368.850 220.279 C 369.300 220.279,374.398 215.194,374.398 214.746 C 374.398 214.555,375.322 213.413,376.452 212.206 C 377.582 211.000,378.771 209.492,379.094 208.856 C 379.417 208.220,379.871 207.543,380.101 207.351 C 380.332 207.159,380.789 206.475,381.115 205.830 C 381.442 205.185,381.890 204.508,382.110 204.326 C 382.330 204.143,382.510 203.793,382.510 203.549 C 382.510 203.304,382.690 202.954,382.910 202.771 C 383.131 202.588,383.635 201.797,384.030 201.014 C 384.426 200.230,384.930 199.440,385.150 199.257 C 385.371 199.074,385.551 198.670,385.551 198.361 C 385.551 198.051,385.779 197.591,386.058 197.338 C 386.337 197.086,386.565 196.665,386.565 196.402 C 386.565 196.139,386.793 195.477,387.072 194.930 C 387.351 194.384,387.579 193.665,387.579 193.332 C 387.579 193.000,387.807 192.521,388.086 192.269 C 388.365 192.016,388.593 191.595,388.593 191.332 C 388.593 191.069,388.821 190.407,389.100 189.861 C 389.379 189.314,389.607 188.400,389.607 187.830 C 389.607 187.260,389.797 186.429,390.030 185.982 C 390.588 184.913,391.110 182.557,391.503 179.341 C 391.588 178.644,391.771 177.674,391.910 177.186 C 392.112 176.473,392.899 168.040,392.903 166.540 C 392.908 164.991,392.227 158.992,391.624 155.260 C 390.783 150.060,390.586 149.178,390.030 148.111 C 389.797 147.665,389.607 146.856,389.607 146.313 C 389.607 145.648,389.442 145.176,389.100 144.867 C 388.821 144.615,388.593 144.136,388.593 143.804 C 388.593 143.471,388.365 142.752,388.086 142.205 C 387.807 141.659,387.579 140.976,387.579 140.689 C 387.579 140.401,387.123 139.259,386.565 138.150 C 386.008 137.040,385.551 135.916,385.551 135.651 C 385.551 135.387,385.371 135.020,385.150 134.837 C 384.930 134.654,384.426 133.863,384.030 133.080 C 383.635 132.296,383.131 131.506,382.910 131.323 C 382.690 131.140,382.510 130.790,382.510 130.545 C 382.510 130.300,382.330 129.951,382.110 129.768 C 381.890 129.586,381.442 128.909,381.115 128.264 C 380.789 127.619,380.333 126.935,380.103 126.744 C 379.872 126.553,379.447 125.932,379.158 125.366 C 378.869 124.799,377.899 123.536,377.002 122.560 C 376.106 121.584,375.162 120.387,374.904 119.899 C 374.349 118.848,370.405 114.910,369.784 114.788 C 369.546 114.741,368.158 113.590,366.698 112.231 C 365.239 110.871,363.909 109.759,363.743 109.759 C 363.577 109.759,362.897 109.303,362.231 108.745 C 361.565 108.188,360.850 107.731,360.642 107.731 C 360.435 107.731,360.115 107.551,359.932 107.330 C 359.749 107.110,358.958 106.606,358.175 106.210 C 357.391 105.815,356.601 105.311,356.418 105.090 C 356.235 104.870,355.831 104.689,355.522 104.689 C 355.212 104.689,354.752 104.461,354.499 104.183 C 354.247 103.904,353.791 103.676,353.485 103.676 C 353.180 103.676,352.724 103.447,352.471 103.169 C 352.219 102.890,351.798 102.662,351.535 102.662 C 351.272 102.662,350.610 102.433,350.063 102.155 C 349.517 101.876,348.798 101.648,348.465 101.648 C 348.133 101.648,347.660 101.426,347.415 101.155 C 347.169 100.884,346.678 100.627,346.323 100.585 C 345.384 100.472,344.726 99.408,344.454 97.563 C 344.183 95.728,343.843 93.606,343.462 91.381 C 343.319 90.545,343.112 89.233,343.002 88.466 C 342.892 87.700,342.621 86.673,342.400 86.185 C 342.042 85.395,341.527 83.490,340.961 80.862 C 340.856 80.374,340.580 79.610,340.347 79.163 C 340.114 78.717,339.924 78.114,339.924 77.823 C 339.924 77.531,339.696 76.846,339.417 76.299 C 339.138 75.753,338.910 75.070,338.910 74.783 C 338.910 74.495,338.454 73.352,337.896 72.243 C 337.338 71.134,336.882 70.014,336.882 69.753 C 336.882 69.493,336.654 69.074,336.375 68.821 C 336.096 68.569,335.868 68.113,335.868 67.807 C 335.868 67.502,335.640 67.046,335.361 66.793 C 335.082 66.541,334.854 66.081,334.854 65.771 C 334.854 65.461,334.673 65.057,334.452 64.874 C 334.230 64.690,333.556 63.558,332.953 62.357 C 332.350 61.157,331.667 60.018,331.435 59.825 C 331.202 59.632,330.745 58.947,330.418 58.302 C 330.091 57.657,329.636 56.973,329.406 56.782 C 329.175 56.591,328.751 55.971,328.462 55.404 C 328.174 54.837,327.441 53.790,326.833 53.078 C 326.226 52.366,325.729 51.623,325.729 51.427 C 325.729 51.231,325.044 50.312,324.208 49.385 C 323.371 48.458,322.687 47.546,322.687 47.358 C 322.687 46.850,314.516 38.783,314.002 38.783 C 313.730 38.783,313.561 38.589,313.561 38.276 C 313.561 37.952,313.392 37.769,313.092 37.769 C 312.833 37.769,311.647 36.857,310.455 35.741 C 309.263 34.626,308.149 33.714,307.981 33.714 C 307.813 33.714,307.130 33.257,306.464 32.700 C 305.798 32.142,305.113 31.686,304.943 31.686 C 304.773 31.686,304.088 31.229,303.422 30.672 C 302.756 30.114,302.072 29.658,301.901 29.658 C 301.731 29.658,301.046 29.202,300.380 28.644 C 299.714 28.086,298.946 27.630,298.673 27.630 C 298.401 27.630,297.971 27.402,297.719 27.123 C 297.466 26.844,297.010 26.616,296.705 26.616 C 296.399 26.616,295.943 26.388,295.691 26.109 C 295.438 25.830,294.982 25.602,294.677 25.602 C 294.371 25.602,293.915 25.374,293.663 25.095 C 293.411 24.816,292.954 24.588,292.649 24.588 C 292.344 24.588,291.887 24.360,291.635 24.081 C 291.383 23.802,290.926 23.574,290.621 23.574 C 290.316 23.574,289.859 23.346,289.607 23.067 C 289.355 22.788,288.933 22.560,288.671 22.560 C 288.408 22.560,287.746 22.332,287.199 22.053 C 286.652 21.774,285.933 21.546,285.601 21.546 C 285.268 21.546,284.790 21.318,284.537 21.039 C 284.285 20.760,283.882 20.532,283.642 20.532 C 283.402 20.532,282.763 20.345,282.224 20.116 C 281.285 19.719,280.633 19.521,278.517 18.995 C 276.693 18.541,275.532 18.249,274.588 18.009 C 274.065 17.876,273.181 17.653,272.624 17.514 C 272.066 17.374,271.096 17.130,270.469 16.971 C 269.842 16.811,268.473 16.586,267.427 16.471 C 266.381 16.355,264.785 16.131,263.878 15.972 C 260.067 15.305,248.918 14.741,248.162 15.177 M256.868 16.667 C 256.933 16.771,254.840 16.857,252.218 16.857 C 249.596 16.857,247.503 16.771,247.568 16.667 C 247.632 16.562,249.725 16.477,252.218 16.477 C 254.711 16.477,256.804 16.562,256.868 16.667 M241.191 17.616 C 240.551 17.833,237.516 17.915,237.516 17.715 C 237.516 17.591,238.400 17.499,239.480 17.511 C 240.561 17.522,241.331 17.569,241.191 17.616 M266.022 17.726 C 266.109 17.867,265.579 17.904,264.706 17.818 C 262.790 17.629,262.683 17.490,264.455 17.490 C 265.237 17.490,265.942 17.597,266.022 17.726 M234.221 18.603 C 234.221 18.658,233.821 18.749,233.333 18.806 C 232.845 18.863,232.446 18.818,232.446 18.707 C 232.446 18.596,232.845 18.504,233.333 18.504 C 233.821 18.504,234.221 18.549,234.221 18.603 M271.074 18.712 C 271.145 18.826,270.866 18.870,270.456 18.810 C 270.045 18.750,269.708 18.656,269.708 18.602 C 269.708 18.409,270.949 18.509,271.074 18.712 M225.834 20.623 C 225.532 20.885,224.335 21.018,224.335 20.791 C 224.335 20.649,224.696 20.532,225.137 20.532 C 225.579 20.532,225.892 20.573,225.834 20.623 M279.087 20.786 C 279.087 21.083,278.893 21.083,278.200 20.786 C 277.751 20.593,277.773 20.566,278.390 20.550 C 278.774 20.540,279.087 20.646,279.087 20.786 M282.129 21.765 C 282.129 21.885,281.844 21.928,281.496 21.862 C 281.147 21.795,280.862 21.697,280.862 21.643 C 280.862 21.590,281.147 21.546,281.496 21.546 C 281.844 21.546,282.129 21.645,282.129 21.765 M147.000 30.764 C 146.747 30.986,140.177 31.123,140.177 30.907 C 140.177 30.774,141.683 30.672,143.642 30.672 C 145.547 30.672,147.059 30.713,147.000 30.764 M153.359 30.874 C 153.359 30.985,152.247 31.036,150.887 30.988 C 147.221 30.859,147.017 30.745,150.380 30.706 C 152.018 30.687,153.359 30.763,153.359 30.874 M136.375 31.939 C 135.469 32.229,135.108 32.229,135.108 31.939 C 135.108 31.800,135.535 31.697,136.058 31.711 C 136.907 31.733,136.941 31.758,136.375 31.939 M159.442 31.951 C 159.442 32.118,159.094 32.153,158.492 32.044 C 157.176 31.806,157.141 31.686,158.386 31.686 C 158.967 31.686,159.442 31.805,159.442 31.951 M132.552 32.791 C 132.249 33.052,131.052 33.185,131.052 32.958 C 131.052 32.816,131.413 32.700,131.855 32.700 C 132.296 32.700,132.610 32.741,132.552 32.791 M128.897 33.967 C 128.205 34.265,128.010 34.265,128.010 33.967 C 128.010 33.828,128.324 33.722,128.707 33.731 C 129.325 33.747,129.347 33.774,128.897 33.967 M184.981 45.042 C 184.737 45.105,184.338 45.105,184.094 45.042 C 183.850 44.978,184.049 44.926,184.537 44.926 C 185.025 44.926,185.225 44.978,184.981 45.042 M94.837 70.786 C 94.755 71.300,94.668 71.437,94.606 71.151 C 94.512 70.716,94.684 69.962,94.878 69.962 C 94.928 69.962,94.910 70.333,94.837 70.786 M93.876 75.475 C 93.661 77.113,93.536 77.152,93.536 75.581 C 93.536 74.861,93.648 74.271,93.785 74.271 C 93.935 74.271,93.971 74.750,93.876 75.475 M92.803 82.648 C 92.570 83.231,92.553 83.214,92.538 82.362 C 92.529 81.862,92.608 81.366,92.712 81.260 C 93.012 80.956,93.077 81.960,92.803 82.648 M83.122 84.503 C 82.835 84.754,78.327 84.914,78.327 84.673 C 78.327 84.510,79.256 84.411,80.777 84.411 C 82.125 84.411,83.180 84.452,83.122 84.503 M73.997 85.515 C 73.732 85.743,71.992 85.880,72.126 85.663 C 72.207 85.532,72.685 85.425,73.188 85.425 C 73.691 85.425,74.055 85.465,73.997 85.515 M65.632 87.544 C 65.329 87.805,64.132 87.938,64.132 87.711 C 64.132 87.569,64.493 87.452,64.935 87.452 C 65.376 87.452,65.690 87.493,65.632 87.544 M52.725 92.776 C 52.234 93.093,51.965 93.093,51.965 92.776 C 51.965 92.636,52.221 92.524,52.535 92.526 C 52.996 92.529,53.032 92.577,52.725 92.776 M342.966 97.015 C 342.966 98.781,342.834 98.681,342.616 96.750 C 342.507 95.775,342.538 95.329,342.708 95.435 C 342.850 95.522,342.966 96.234,342.966 97.015 M387.579 144.867 C 387.579 145.215,387.535 145.501,387.482 145.501 C 387.429 145.501,387.330 145.215,387.264 144.867 C 387.197 144.518,387.241 144.233,387.361 144.233 C 387.481 144.233,387.579 144.518,387.579 144.867 M12.600 148.603 C 12.539 148.918,12.488 148.720,12.485 148.162 C 12.482 147.605,12.532 147.347,12.595 147.589 C 12.658 147.831,12.661 148.288,12.600 148.603 M389.607 152.218 C 389.607 152.706,389.563 153.105,389.508 153.105 C 389.454 153.105,389.362 152.706,389.306 152.218 C 389.249 151.730,389.293 151.331,389.405 151.331 C 389.516 151.331,389.607 151.730,389.607 152.218 M11.595 162.041 C 11.545 162.912,11.505 162.199,11.505 160.456 C 11.505 158.714,11.545 158.001,11.595 158.872 C 11.644 159.743,11.644 161.169,11.595 162.041 M390.547 159.756 C 390.486 160.072,390.434 159.873,390.431 159.316 C 390.429 158.758,390.478 158.500,390.542 158.742 C 390.605 158.985,390.607 159.441,390.547 159.756 M391.635 166.556 C 391.635 169.417,391.180 169.319,391.082 166.438 C 391.018 164.546,391.068 164.101,391.318 164.310 C 391.522 164.480,391.635 165.280,391.635 166.556 M390.553 167.617 C 390.500 168.210,390.456 167.725,390.456 166.540 C 390.456 165.355,390.500 164.870,390.553 165.463 C 390.607 166.055,390.607 167.025,390.553 167.617 M12.755 172.568 C 12.848 173.395,12.813 173.850,12.663 173.757 C 12.530 173.675,12.421 173.025,12.421 172.313 C 12.421 170.706,12.556 170.809,12.755 172.568 M390.547 175.219 C 390.486 175.534,390.434 175.336,390.431 174.778 C 390.429 174.221,390.478 173.963,390.542 174.205 C 390.605 174.447,390.607 174.904,390.547 175.219 M389.335 182.859 C 389.098 183.077,389.064 183.035,389.190 182.679 C 389.280 182.424,389.372 181.910,389.394 181.538 C 389.427 180.988,389.454 181.022,389.539 181.718 C 389.598 182.199,389.508 182.699,389.335 182.859 M348.035 231.179 C 348.035 231.318,347.722 231.424,347.338 231.414 C 346.721 231.399,346.699 231.372,347.148 231.179 C 347.841 230.881,348.035 230.881,348.035 231.179 M72.222 234.381 C 72.280 234.432,71.853 234.474,71.272 234.474 C 70.691 234.474,70.215 234.355,70.215 234.209 C 70.215 233.971,71.923 234.118,72.222 234.381 M338.910 234.221 C 338.910 234.360,338.425 234.461,337.833 234.444 C 336.822 234.416,336.802 234.402,337.516 234.221 C 338.629 233.937,338.910 233.937,338.910 234.221 M79.066 235.396 C 79.124 235.447,78.297 235.488,77.229 235.488 C 76.160 235.488,75.285 235.381,75.285 235.249 C 75.285 235.032,78.804 235.169,79.066 235.396 M332.826 235.234 C 332.826 235.379,332.198 235.471,331.369 235.448 L 329.911 235.408 331.179 235.234 C 331.876 235.139,332.532 235.043,332.636 235.021 C 332.741 234.999,332.826 235.095,332.826 235.234 M324.715 236.248 C 324.715 236.417,284.495 236.502,204.563 236.502 C 124.630 236.502,84.411 236.417,84.411 236.248 C 84.411 236.080,124.630 235.995,204.563 235.995 C 284.495 235.995,324.715 236.080,324.715 236.248 " stroke="none" fill="#1c2c34" fill-rule="evenodd"></path><path id="path1" d="M247.568 16.667 C 247.503 16.771,249.596 16.857,252.218 16.857 C 254.840 16.857,256.933 16.771,256.868 16.667 C 256.804 16.562,254.711 16.477,252.218 16.477 C 249.725 16.477,247.632 16.562,247.568 16.667 M237.516 17.715 C 237.516 17.838,238.286 17.886,239.227 17.821 C 241.662 17.652,241.759 17.534,239.480 17.511 C 238.400 17.499,237.516 17.591,237.516 17.715 M263.139 17.582 C 263.395 17.805,266.156 17.943,266.022 17.726 C 265.942 17.597,265.237 17.490,264.455 17.490 C 263.673 17.490,263.081 17.532,263.139 17.582 M232.446 18.707 C 232.446 18.818,232.845 18.863,233.333 18.806 C 233.821 18.749,234.221 18.658,234.221 18.603 C 234.221 18.549,233.821 18.504,233.333 18.504 C 232.845 18.504,232.446 18.596,232.446 18.707 M269.708 18.602 C 269.708 18.656,270.045 18.750,270.456 18.810 C 270.866 18.870,271.145 18.826,271.074 18.712 C 270.949 18.509,269.708 18.409,269.708 18.602 M224.335 20.791 C 224.335 20.944,224.618 20.981,225.032 20.882 C 226.027 20.643,226.060 20.532,225.137 20.532 C 224.696 20.532,224.335 20.649,224.335 20.791 M278.200 20.786 C 278.893 21.083,279.087 21.083,279.087 20.786 C 279.087 20.646,278.774 20.540,278.390 20.550 C 277.773 20.566,277.751 20.593,278.200 20.786 M280.862 21.643 C 280.862 21.697,281.147 21.795,281.496 21.862 C 281.844 21.928,282.129 21.885,282.129 21.765 C 282.129 21.645,281.844 21.546,281.496 21.546 C 281.147 21.546,280.862 21.590,280.862 21.643 M140.177 30.907 C 140.177 31.123,146.747 30.986,147.000 30.764 C 147.059 30.713,145.547 30.672,143.642 30.672 C 141.683 30.672,140.177 30.774,140.177 30.907 M147.909 30.821 C 149.138 31.015,153.359 31.056,153.359 30.874 C 153.359 30.763,152.018 30.687,150.380 30.706 C 148.742 30.725,147.630 30.777,147.909 30.821 M135.108 31.939 C 135.108 32.229,135.469 32.229,136.375 31.939 C 136.941 31.758,136.907 31.733,136.058 31.711 C 135.535 31.697,135.108 31.800,135.108 31.939 M157.436 31.779 C 157.734 32.042,159.442 32.188,159.442 31.951 C 159.442 31.805,158.967 31.686,158.386 31.686 C 157.805 31.686,157.377 31.728,157.436 31.779 M131.052 32.958 C 131.052 33.111,131.335 33.148,131.749 33.049 C 132.744 32.810,132.778 32.700,131.855 32.700 C 131.413 32.700,131.052 32.816,131.052 32.958 M128.010 33.967 C 128.010 34.265,128.205 34.265,128.897 33.967 C 129.347 33.774,129.325 33.747,128.707 33.731 C 128.324 33.722,128.010 33.828,128.010 33.967 M184.094 45.042 C 184.338 45.105,184.737 45.105,184.981 45.042 C 185.225 44.978,185.025 44.926,184.537 44.926 C 184.049 44.926,183.850 44.978,184.094 45.042 M94.647 70.327 C 94.570 70.528,94.552 70.899,94.606 71.151 C 94.668 71.437,94.755 71.300,94.837 70.786 C 94.976 69.923,94.886 69.706,94.647 70.327 M93.536 75.581 C 93.536 77.152,93.661 77.113,93.876 75.475 C 93.971 74.750,93.935 74.271,93.785 74.271 C 93.648 74.271,93.536 74.861,93.536 75.581 M92.712 81.260 C 92.608 81.366,92.529 81.862,92.538 82.362 C 92.553 83.214,92.570 83.231,92.803 82.648 C 93.077 81.960,93.012 80.956,92.712 81.260 M78.327 84.673 C 78.327 84.914,82.835 84.754,83.122 84.503 C 83.180 84.452,82.125 84.411,80.777 84.411 C 79.256 84.411,78.327 84.510,78.327 84.673 M72.126 85.663 C 72.038 85.805,72.365 85.842,72.935 85.754 C 74.208 85.557,74.310 85.425,73.188 85.425 C 72.685 85.425,72.207 85.532,72.126 85.663 M64.132 87.711 C 64.132 87.864,64.415 87.901,64.829 87.802 C 65.824 87.563,65.858 87.452,64.935 87.452 C 64.493 87.452,64.132 87.569,64.132 87.711 M51.965 92.776 C 51.965 93.093,52.234 93.093,52.725 92.776 C 53.032 92.577,52.996 92.529,52.535 92.526 C 52.221 92.524,51.965 92.636,51.965 92.776 M342.616 96.750 C 342.834 98.681,342.966 98.781,342.966 97.015 C 342.966 96.234,342.850 95.522,342.708 95.435 C 342.538 95.329,342.507 95.775,342.616 96.750 M387.264 144.867 C 387.330 145.215,387.429 145.501,387.482 145.501 C 387.535 145.501,387.579 145.215,387.579 144.867 C 387.579 144.518,387.481 144.233,387.361 144.233 C 387.241 144.233,387.197 144.518,387.264 144.867 M12.485 148.162 C 12.488 148.720,12.539 148.918,12.600 148.603 C 12.661 148.288,12.658 147.831,12.595 147.589 C 12.532 147.347,12.482 147.605,12.485 148.162 M389.306 152.218 C 389.362 152.706,389.454 153.105,389.508 153.105 C 389.563 153.105,389.607 152.706,389.607 152.218 C 389.607 151.730,389.516 151.331,389.405 151.331 C 389.293 151.331,389.249 151.730,389.306 152.218 M11.505 160.456 C 11.505 162.199,11.545 162.912,11.595 162.041 C 11.644 161.169,11.644 159.743,11.595 158.872 C 11.545 158.001,11.505 158.714,11.505 160.456 M390.431 159.316 C 390.434 159.873,390.486 160.072,390.547 159.756 C 390.607 159.441,390.605 158.985,390.542 158.742 C 390.478 158.500,390.429 158.758,390.431 159.316 M391.082 166.438 C 391.180 169.319,391.635 169.417,391.635 166.556 C 391.635 165.280,391.522 164.480,391.318 164.310 C 391.068 164.101,391.018 164.546,391.082 166.438 M390.456 166.540 C 390.456 167.725,390.500 168.210,390.553 167.617 C 390.607 167.025,390.607 166.055,390.553 165.463 C 390.500 164.870,390.456 165.355,390.456 166.540 M12.421 172.313 C 12.421 173.025,12.530 173.675,12.663 173.757 C 12.813 173.850,12.848 173.395,12.755 172.568 C 12.556 170.809,12.421 170.706,12.421 172.313 M390.431 174.778 C 390.434 175.336,390.486 175.534,390.547 175.219 C 390.607 174.904,390.605 174.447,390.542 174.205 C 390.478 173.963,390.429 174.221,390.431 174.778 M389.394 181.538 C 389.372 181.910,389.280 182.424,389.190 182.679 C 389.064 183.035,389.098 183.077,389.335 182.859 C 389.508 182.699,389.598 182.199,389.539 181.718 C 389.454 181.022,389.427 180.988,389.394 181.538 M347.148 231.179 C 346.699 231.372,346.721 231.399,347.338 231.414 C 347.722 231.424,348.035 231.318,348.035 231.179 C 348.035 230.881,347.841 230.881,347.148 231.179 M70.215 234.209 C 70.215 234.355,70.691 234.474,71.272 234.474 C 72.517 234.474,72.481 234.354,71.166 234.116 C 70.564 234.007,70.215 234.041,70.215 234.209 M337.516 234.221 C 336.802 234.402,336.822 234.416,337.833 234.444 C 338.425 234.461,338.910 234.360,338.910 234.221 C 338.910 233.937,338.629 233.937,337.516 234.221 M75.285 235.249 C 75.285 235.381,76.160 235.488,77.229 235.488 C 78.297 235.488,79.124 235.447,79.066 235.396 C 78.804 235.169,75.285 235.032,75.285 235.249 M331.179 235.234 L 329.911 235.408 331.369 235.448 C 332.198 235.471,332.826 235.379,332.826 235.234 C 332.826 235.095,332.741 234.999,332.636 235.021 C 332.532 235.043,331.876 235.139,331.179 235.234 M84.411 236.248 C 84.411 236.417,124.630 236.502,204.563 236.502 C 284.495 236.502,324.715 236.417,324.715 236.248 C 324.715 236.080,284.495 235.995,204.563 235.995 C 124.630 235.995,84.411 236.080,84.411 236.248 " stroke="none" fill="#202c34" fill-rule="evenodd"></path></g></svg>