<?xml version="1.0" standalone="no"?>
<!DOCTYPE svg PUBLIC "-//W3C//DTD SVG 20010904//EN"
 "http://www.w3.org/TR/2001/REC-SVG-20010904/DTD/svg10.dtd">
<svg version="1.0" xmlns="http://www.w3.org/2000/svg"
 width="474.000000pt" height="474.000000pt" viewBox="0 0 474.000000 474.000000"
 preserveAspectRatio="xMidYMid meet">

<g transform="translate(0.000000,474.000000) scale(0.100000,-0.100000)"
fill="#000000" stroke="none">
<path d="M2120 4669 c-728 -79 -1380 -489 -1765 -1109 -68 -110 -181 -342
-220 -450 -52 -145 -115 -424 -115 -507 0 -18 -4 -33 -10 -33 -6 0 -10 -93
-10 -260 0 -143 4 -260 9 -260 4 0 11 -29 15 -66 48 -469 305 -980 682 -1358
234 -234 521 -418 826 -530 127 -47 169 -47 214 -2 l34 34 0 242 0 242 -72 -8
c-178 -21 -403 2 -504 51 -114 56 -170 119 -232 261 -66 153 -157 276 -232
314 -46 23 -110 94 -110 120 0 30 44 43 120 36 130 -12 260 -103 355 -251 64
-99 147 -177 222 -213 54 -25 67 -27 188 -26 111 0 140 4 199 25 l69 24 17 70
c19 84 49 148 95 207 l35 43 -28 3 c-91 10 -270 47 -347 73 -101 34 -250 110
-329 168 -181 134 -308 378 -352 672 -20 141 -15 401 10 494 36 132 103 265
176 348 38 43 41 50 31 75 -57 143 -54 349 10 539 16 51 26 64 46 69 86 22
324 -62 535 -188 l97 -58 83 20 c174 41 296 54 508 54 213 0 334 -13 509 -55
l85 -20 50 32 c157 99 315 173 436 204 61 16 138 20 155 7 31 -22 75 -196 82
-324 6 -98 -5 -181 -33 -266 l-15 -43 44 -50 c83 -95 154 -250 183 -397 18
-97 18 -318 -1 -447 -61 -411 -244 -654 -607 -805 -95 -39 -273 -84 -385 -96
-35 -4 -63 -9 -63 -11 0 -3 14 -21 30 -40 17 -18 42 -57 57 -86 55 -109 56
-120 60 -567 2 -271 7 -425 15 -443 16 -41 55 -67 100 -67 76 0 352 118 528
224 225 138 406 294 582 502 283 335 479 768 530 1169 7 52 16 95 20 95 4 0 8
117 8 260 0 143 -4 260 -9 260 -4 0 -11 28 -14 63 -14 148 -78 397 -143 555
-329 794 -1012 1338 -1844 1467 -125 19 -486 28 -610 14z"/>
</g>
</svg>
