<svg id="svg" version="1.1" xmlns="http://www.w3.org/2000/svg" xmlns:xlink="http://www.w3.org/1999/xlink" width="400" height="400" viewBox="0, 0, 400,400"><g id="svgg"><path id="path0" d="M182.000 27.000 C 182.000 27.500,181.200 27.600,177.200 27.600 C 174.267 27.600,172.400 27.756,172.400 28.000 C 172.400 28.229,171.200 28.400,169.600 28.400 C 168.000 28.400,166.800 28.571,166.800 28.800 C 166.800 29.026,165.667 29.200,164.200 29.200 C 162.733 29.200,161.600 29.374,161.600 29.600 C 161.600 29.820,160.880 30.000,160.000 30.000 C 159.120 30.000,158.400 30.180,158.400 30.400 C 158.400 30.620,157.590 30.800,156.600 30.800 C 155.610 30.800,154.800 30.980,154.800 31.200 C 154.800 31.420,154.440 31.600,154.000 31.600 C 153.560 31.600,153.200 31.780,153.200 32.000 C 153.200 32.220,152.840 32.400,152.400 32.400 C 151.960 32.400,151.600 32.567,151.600 32.772 C 151.600 32.977,151.195 33.202,150.700 33.272 C 150.059 33.363,149.809 33.659,149.832 34.300 C 149.849 34.798,149.626 35.200,149.332 35.200 C 148.978 35.200,148.800 35.736,148.800 36.800 C 148.800 37.680,148.980 38.400,149.200 38.400 C 149.462 38.400,149.600 46.000,149.600 60.400 C 149.600 74.800,149.462 82.400,149.200 82.400 C 148.980 82.400,148.800 83.120,148.800 84.000 L 148.800 85.600 145.000 85.600 C 142.733 85.600,141.200 85.761,141.200 86.000 C 141.200 86.251,138.733 86.400,134.600 86.400 C 130.467 86.400,128.000 86.549,128.000 86.800 C 128.000 87.048,125.867 87.200,122.400 87.200 C 118.933 87.200,116.800 87.352,116.800 87.600 C 116.800 87.837,115.329 88.000,113.187 88.000 C 110.345 88.000,109.526 88.128,109.345 88.600 C 109.169 89.058,108.417 89.200,106.157 89.200 C 104.452 89.200,103.200 89.369,103.200 89.600 C 103.200 89.820,102.300 90.000,101.200 90.000 C 100.100 90.000,99.200 90.180,99.200 90.400 C 99.200 90.620,98.660 90.800,98.000 90.800 C 96.867 90.800,96.800 90.889,96.800 92.400 C 96.800 93.911,96.867 94.000,98.000 94.000 C 98.660 94.000,99.200 94.180,99.200 94.400 C 99.200 94.620,100.100 94.800,101.200 94.800 C 102.300 94.800,103.200 94.980,103.200 95.200 C 103.200 95.431,104.452 95.600,106.157 95.600 C 108.417 95.600,109.169 95.742,109.345 96.200 C 109.530 96.683,110.432 96.800,113.964 96.800 C 116.458 96.800,118.459 96.973,118.600 97.200 C 118.743 97.432,120.937 97.600,123.824 97.600 C 126.875 97.600,128.800 97.755,128.800 98.000 C 128.800 98.254,131.867 98.400,137.200 98.400 C 142.533 98.400,145.600 98.546,145.600 98.800 C 145.600 99.045,147.533 99.200,150.600 99.200 C 153.667 99.200,155.600 99.045,155.600 98.800 C 155.600 98.580,155.949 98.400,156.376 98.400 C 156.803 98.400,157.264 98.580,157.400 98.800 C 157.549 99.040,160.271 99.200,164.224 99.200 C 168.341 99.200,170.800 99.350,170.800 99.600 C 170.800 99.849,173.067 100.000,176.800 100.000 C 180.533 100.000,182.800 99.849,182.800 99.600 C 182.800 99.380,183.160 99.200,183.600 99.200 C 184.040 99.200,184.400 99.380,184.400 99.600 C 184.400 100.179,185.896 100.093,186.135 99.500 C 186.296 99.100,186.343 99.100,186.368 99.500 C 186.409 100.141,218.800 100.241,218.800 99.600 C 218.800 99.380,219.430 99.200,220.200 99.200 C 220.970 99.200,221.600 99.380,221.600 99.600 C 221.600 99.852,224.267 100.000,228.800 100.000 C 233.333 100.000,236.000 99.852,236.000 99.600 C 236.000 99.342,240.600 99.200,249.000 99.200 C 257.400 99.200,262.000 99.058,262.000 98.800 C 262.000 98.548,264.667 98.400,269.200 98.400 C 273.733 98.400,276.400 98.252,276.400 98.000 C 276.400 97.753,278.467 97.600,281.800 97.600 C 285.133 97.600,287.200 97.447,287.200 97.200 C 287.200 96.956,289.004 96.800,291.813 96.800 C 295.544 96.800,296.469 96.685,296.655 96.200 C 296.829 95.747,297.561 95.600,299.643 95.600 C 301.214 95.600,302.400 95.428,302.400 95.200 C 302.400 94.980,303.390 94.800,304.600 94.800 C 305.810 94.800,306.800 94.620,306.800 94.400 C 306.800 94.180,307.340 94.000,308.000 94.000 C 309.133 94.000,309.200 93.911,309.200 92.400 C 309.200 90.889,309.133 90.800,308.000 90.800 C 307.340 90.800,306.800 90.620,306.800 90.400 C 306.800 90.180,305.810 90.000,304.600 90.000 C 303.390 90.000,302.400 89.820,302.400 89.600 C 302.400 89.372,301.214 89.200,299.643 89.200 C 297.617 89.200,296.827 89.048,296.665 88.626 C 296.498 88.190,295.609 88.050,292.956 88.040 C 291.037 88.033,289.281 87.841,289.053 87.613 C 288.810 87.370,286.448 87.200,283.320 87.200 C 280.040 87.200,278.000 87.047,278.000 86.800 C 278.000 86.548,275.333 86.400,270.800 86.400 C 266.267 86.400,263.600 86.252,263.600 86.000 C 263.600 85.766,262.257 85.600,260.371 85.600 C 258.107 85.600,256.972 85.429,256.571 85.029 C 255.866 84.323,255.697 36.800,256.400 36.800 C 256.620 36.800,256.800 36.440,256.800 36.000 C 256.800 35.560,256.620 35.200,256.400 35.200 C 256.180 35.200,256.000 34.750,256.000 34.200 C 256.000 33.467,255.787 33.200,255.200 33.200 C 254.760 33.200,254.400 33.020,254.400 32.800 C 254.400 32.580,254.040 32.400,253.600 32.400 C 253.160 32.400,252.800 32.220,252.800 32.000 C 252.800 31.780,252.440 31.600,252.000 31.600 C 251.560 31.600,251.200 31.420,251.200 31.200 C 251.200 30.980,250.570 30.800,249.800 30.800 C 249.030 30.800,248.400 30.620,248.400 30.400 C 248.400 30.178,247.333 30.000,246.000 30.000 C 244.667 30.000,243.600 29.822,243.600 29.600 C 243.600 29.380,242.610 29.200,241.400 29.200 C 240.190 29.200,239.200 29.020,239.200 28.800 C 239.200 28.569,237.933 28.400,236.200 28.400 C 234.467 28.400,233.200 28.231,233.200 28.000 C 233.200 27.755,231.267 27.600,228.200 27.600 C 224.022 27.600,223.200 27.501,223.200 27.000 C 223.200 26.474,220.644 26.400,202.600 26.400 C 184.556 26.400,182.000 26.474,182.000 27.000 M147.200 110.400 C 147.200 114.933,147.348 117.600,147.600 117.600 C 147.843 117.600,148.000 119.400,148.000 122.200 C 148.000 125.000,148.157 126.800,148.400 126.800 C 148.620 126.800,148.800 127.790,148.800 129.000 C 148.800 130.210,148.980 131.200,149.200 131.200 C 149.420 131.200,149.600 131.920,149.600 132.800 C 149.600 133.956,149.767 134.400,150.200 134.400 C 150.573 134.400,150.800 134.778,150.800 135.400 C 150.800 135.950,150.980 136.400,151.200 136.400 C 151.420 136.400,151.600 136.683,151.600 137.029 C 151.600 137.837,152.563 138.800,153.371 138.800 C 153.733 138.800,154.000 139.139,154.000 139.600 C 154.000 140.222,154.267 140.400,155.200 140.400 C 155.860 140.400,156.400 140.580,156.400 140.800 C 156.400 141.020,157.210 141.200,158.200 141.200 C 159.190 141.200,160.000 141.380,160.000 141.600 C 160.000 141.821,161.052 142.000,162.357 142.000 C 164.084 142.000,164.776 142.161,164.945 142.600 C 165.119 143.055,165.856 143.200,167.987 143.200 C 169.596 143.200,170.800 143.371,170.800 143.600 C 170.800 143.839,172.333 144.000,174.600 144.000 C 176.867 144.000,178.400 144.161,178.400 144.400 C 178.400 144.647,180.473 144.800,183.818 144.800 C 189.378 144.800,191.200 144.212,191.200 142.418 C 191.200 142.188,191.380 142.000,191.600 142.000 C 191.820 142.000,192.000 141.640,192.000 141.200 C 192.000 140.760,192.180 140.400,192.400 140.400 C 192.620 140.400,192.800 139.860,192.800 139.200 C 192.800 138.540,192.980 138.000,193.200 138.000 C 193.420 138.000,193.600 137.460,193.600 136.800 C 193.600 136.140,193.780 135.600,194.000 135.600 C 194.220 135.600,194.400 134.970,194.400 134.200 C 194.400 133.430,194.580 132.800,194.800 132.800 C 195.020 132.800,195.200 132.080,195.200 131.200 C 195.200 130.320,195.380 129.600,195.600 129.600 C 195.820 129.600,196.000 128.610,196.000 127.400 C 196.000 125.711,196.139 125.200,196.600 125.200 C 197.000 125.200,197.200 124.800,197.200 124.000 C 197.200 123.200,197.000 122.800,196.600 122.800 C 196.270 122.800,196.000 122.620,196.000 122.400 C 196.000 122.180,196.270 122.000,196.600 122.000 C 196.997 122.000,197.200 121.603,197.200 120.824 C 197.200 120.177,197.387 119.531,197.616 119.390 C 197.845 119.248,197.923 118.788,197.789 118.366 C 197.558 117.638,197.805 117.600,202.773 117.600 C 207.540 117.600,208.000 117.663,208.000 118.320 C 208.000 118.716,208.203 119.243,208.452 119.492 C 208.710 119.750,208.880 121.074,208.847 122.572 C 208.814 124.116,208.957 125.200,209.195 125.200 C 209.418 125.200,209.600 126.010,209.600 127.000 C 209.600 127.990,209.780 128.800,210.000 128.800 C 210.220 128.800,210.400 129.700,210.400 130.800 C 210.400 131.900,210.580 132.800,210.800 132.800 C 211.020 132.800,211.200 133.526,211.200 134.413 C 211.200 135.477,211.404 136.103,211.800 136.255 C 212.142 136.387,212.400 136.983,212.400 137.643 C 212.400 138.279,212.580 138.800,212.800 138.800 C 213.020 138.800,213.200 139.160,213.200 139.600 C 213.200 140.040,213.380 140.400,213.600 140.400 C 213.820 140.400,214.000 140.760,214.000 141.200 C 214.000 141.640,214.180 142.000,214.400 142.000 C 214.620 142.000,214.800 142.281,214.800 142.624 C 214.800 142.967,214.980 143.136,215.200 143.000 C 215.420 142.864,215.600 142.956,215.600 143.205 C 215.600 144.529,216.717 144.800,222.171 144.800 C 225.524 144.800,227.600 144.647,227.600 144.400 C 227.600 144.163,229.059 144.000,231.176 144.000 C 233.143 144.000,234.864 143.820,235.000 143.600 C 235.136 143.380,236.497 143.200,238.024 143.200 C 240.225 143.200,240.800 143.076,240.800 142.600 C 240.800 142.128,241.356 142.000,243.400 142.000 C 244.867 142.000,246.000 141.826,246.000 141.600 C 246.000 141.380,246.643 141.200,247.429 141.200 C 248.214 141.200,249.111 140.946,249.422 140.636 C 249.732 140.325,250.337 140.163,250.767 140.275 C 251.654 140.507,254.400 138.042,254.400 137.013 C 254.400 136.676,254.580 136.400,254.800 136.400 C 255.020 136.400,255.200 135.950,255.200 135.400 C 255.200 134.850,255.380 134.400,255.600 134.400 C 255.820 134.400,256.000 133.680,256.000 132.800 C 256.000 131.920,256.180 131.200,256.400 131.200 C 256.620 131.200,256.800 130.229,256.800 129.043 C 256.800 127.494,256.969 126.821,257.400 126.655 C 257.883 126.470,258.000 125.566,258.000 122.013 C 258.000 119.271,258.155 117.600,258.409 117.600 C 258.677 117.600,258.781 115.145,258.709 110.500 L 258.600 103.400 252.700 103.289 C 247.628 103.194,246.800 103.264,246.800 103.789 C 246.800 104.125,246.620 104.400,246.400 104.400 C 246.180 104.400,246.000 104.130,246.000 103.800 C 246.000 103.467,245.644 103.200,245.200 103.200 C 244.756 103.200,244.400 103.467,244.400 103.800 C 244.400 104.304,243.536 104.400,239.024 104.400 C 235.871 104.400,233.545 104.565,233.400 104.800 C 233.254 105.037,230.796 105.200,227.376 105.200 C 223.792 105.200,221.600 105.352,221.600 105.600 C 221.600 105.861,215.267 106.000,203.400 106.000 C 191.533 106.000,185.200 105.861,185.200 105.600 C 185.200 105.352,183.000 105.200,179.400 105.200 C 175.800 105.200,173.600 105.048,173.600 104.800 C 173.600 104.548,170.948 104.400,166.443 104.400 C 160.450 104.400,159.248 104.302,159.055 103.800 C 158.865 103.305,157.810 103.200,153.013 103.200 L 147.200 103.200 147.200 110.400 M116.000 148.776 C 116.000 149.203,115.820 149.664,115.600 149.800 C 115.380 149.936,115.200 150.357,115.200 150.735 C 115.200 151.114,114.840 151.683,114.400 152.000 C 113.574 152.596,113.293 154.000,114.000 154.000 C 114.220 154.000,114.400 154.360,114.400 154.800 C 114.400 155.240,114.580 155.600,114.800 155.600 C 115.020 155.600,115.200 155.960,115.200 156.400 C 115.200 156.840,115.380 157.200,115.600 157.200 C 115.820 157.200,116.000 157.650,116.000 158.200 C 116.000 158.750,116.180 159.200,116.400 159.200 C 116.620 159.200,116.800 159.560,116.800 160.000 C 116.800 160.440,116.980 160.800,117.200 160.800 C 117.420 160.800,117.600 161.160,117.600 161.600 C 117.600 162.040,117.780 162.400,118.000 162.400 C 118.220 162.400,118.400 162.760,118.400 163.200 C 118.400 163.644,118.667 164.000,119.000 164.000 C 119.419 164.000,119.600 164.422,119.600 165.400 C 119.600 166.170,119.780 166.800,120.000 166.800 C 120.220 166.800,120.400 167.340,120.400 168.000 C 120.400 168.660,120.580 169.200,120.800 169.200 C 121.020 169.200,121.200 169.740,121.200 170.400 C 121.200 171.060,121.380 171.600,121.600 171.600 C 121.820 171.600,122.000 172.230,122.000 173.000 C 122.000 173.770,122.180 174.400,122.400 174.400 C 122.620 174.400,122.800 175.120,122.800 176.000 C 122.800 176.880,122.980 177.600,123.200 177.600 C 123.420 177.600,123.600 178.309,123.600 179.176 C 123.600 180.043,123.780 180.864,124.000 181.000 C 124.220 181.136,124.400 182.317,124.400 183.624 C 124.400 184.941,124.578 186.000,124.800 186.000 C 125.031 186.000,125.200 187.267,125.200 189.000 C 125.200 190.733,125.369 192.000,125.600 192.000 C 125.831 192.000,126.000 193.267,126.000 195.000 C 126.000 196.733,125.831 198.000,125.600 198.000 C 125.380 198.000,125.200 198.360,125.200 198.800 C 125.200 199.240,125.020 199.600,124.800 199.600 C 124.580 199.600,124.400 199.960,124.400 200.400 C 124.400 200.840,124.220 201.200,124.000 201.200 C 123.780 201.200,123.600 201.560,123.600 202.000 C 123.600 202.440,123.420 202.800,123.200 202.800 C 122.980 202.800,122.800 203.250,122.800 203.800 C 122.800 204.350,122.620 204.800,122.400 204.800 C 122.180 204.800,122.000 205.076,122.000 205.413 C 122.000 206.487,119.338 208.800,118.102 208.800 C 117.435 208.800,116.741 209.126,116.400 209.600 C 116.083 210.040,115.503 210.400,115.112 210.400 C 114.720 210.400,114.400 210.580,114.400 210.800 C 114.400 211.020,113.944 211.200,113.387 211.200 C 112.831 211.200,112.271 211.470,112.145 211.800 C 112.018 212.130,111.703 212.400,111.446 212.400 C 111.188 212.400,110.717 212.760,110.400 213.200 C 110.061 213.670,109.365 214.000,108.712 214.000 C 108.100 214.000,107.600 214.180,107.600 214.400 C 107.600 214.620,107.240 214.800,106.800 214.800 C 106.360 214.800,106.000 214.980,106.000 215.200 C 106.000 215.420,105.640 215.600,105.200 215.600 C 104.760 215.600,104.400 215.780,104.400 216.000 C 104.400 216.220,103.950 216.400,103.400 216.400 C 102.850 216.400,102.400 216.580,102.400 216.800 C 102.400 217.020,102.040 217.200,101.600 217.200 C 101.160 217.200,100.800 217.380,100.800 217.600 C 100.800 217.820,100.440 218.000,100.000 218.000 C 99.560 218.000,99.200 218.180,99.200 218.400 C 99.200 218.620,98.840 218.800,98.400 218.800 C 97.956 218.800,97.600 219.067,97.600 219.400 C 97.600 219.773,97.222 220.000,96.600 220.000 C 96.050 220.000,95.600 220.180,95.600 220.400 C 95.600 220.620,95.240 220.800,94.800 220.800 C 94.360 220.800,94.000 220.980,94.000 221.200 C 94.000 221.420,93.640 221.600,93.200 221.600 C 92.760 221.600,92.400 221.780,92.400 222.000 C 92.400 222.220,92.040 222.400,91.600 222.400 C 91.160 222.400,90.800 222.580,90.800 222.800 C 90.800 223.020,90.440 223.200,90.000 223.200 C 89.560 223.200,89.200 223.380,89.200 223.600 C 89.200 223.820,88.750 224.000,88.200 224.000 C 87.650 224.000,87.200 224.180,87.200 224.400 C 87.200 224.620,86.840 224.800,86.400 224.800 C 85.960 224.800,85.600 224.980,85.600 225.200 C 85.600 225.420,85.240 225.600,84.800 225.600 C 84.360 225.600,84.000 225.780,84.000 226.000 C 84.000 226.220,83.640 226.400,83.200 226.400 C 82.756 226.400,82.400 226.667,82.400 227.000 C 82.400 227.373,82.022 227.600,81.400 227.600 C 80.850 227.600,80.400 227.780,80.400 228.000 C 80.400 228.220,80.040 228.400,79.600 228.400 C 79.160 228.400,78.800 228.580,78.800 228.800 C 78.800 229.020,78.440 229.200,78.000 229.200 C 77.560 229.200,77.200 229.380,77.200 229.600 C 77.200 229.820,76.840 230.000,76.400 230.000 C 75.960 230.000,75.600 230.180,75.600 230.400 C 75.600 230.620,75.240 230.800,74.800 230.800 C 74.360 230.800,74.000 230.980,74.000 231.200 C 74.000 231.420,73.550 231.600,73.000 231.600 C 72.450 231.600,72.000 231.780,72.000 232.000 C 72.000 232.220,71.640 232.400,71.200 232.400 C 70.760 232.400,70.400 232.580,70.400 232.800 C 70.400 233.020,70.040 233.200,69.600 233.200 C 69.160 233.200,68.800 233.380,68.800 233.600 C 68.800 233.820,68.440 234.000,68.000 234.000 C 67.556 234.000,67.200 234.267,67.200 234.600 C 67.200 234.933,66.844 235.200,66.400 235.200 C 65.960 235.200,65.600 235.380,65.600 235.600 C 65.600 235.820,65.150 236.000,64.600 236.000 C 64.050 236.000,63.600 236.180,63.600 236.400 C 63.600 236.620,63.240 236.800,62.800 236.800 C 62.360 236.800,62.000 236.980,62.000 237.200 C 62.000 237.420,61.640 237.600,61.200 237.600 C 60.760 237.600,60.400 237.780,60.400 238.000 C 60.400 238.220,60.040 238.400,59.600 238.400 C 59.160 238.400,58.800 238.580,58.800 238.800 C 58.800 239.020,58.427 239.200,57.971 239.200 C 56.606 239.200,56.000 240.175,56.000 242.371 C 56.000 243.487,55.820 244.400,55.600 244.400 C 55.369 244.400,55.200 245.667,55.200 247.400 C 55.200 249.133,55.031 250.400,54.800 250.400 C 54.578 250.400,54.400 251.467,54.400 252.800 C 54.400 254.133,54.222 255.200,54.000 255.200 C 53.765 255.200,53.600 256.600,53.600 258.600 C 53.600 260.600,53.435 262.000,53.200 262.000 C 52.969 262.000,52.800 263.267,52.800 265.000 C 52.800 266.733,52.631 268.000,52.400 268.000 C 52.169 268.000,52.000 269.267,52.000 271.000 C 52.000 272.733,51.831 274.000,51.600 274.000 C 51.371 274.000,51.200 275.200,51.200 276.800 C 51.200 278.400,51.029 279.600,50.800 279.600 C 50.574 279.600,50.400 280.733,50.400 282.200 C 50.400 284.244,50.272 284.800,49.800 284.800 C 49.320 284.800,49.200 285.400,49.200 287.800 C 49.200 289.533,49.031 290.800,48.800 290.800 C 48.578 290.800,48.400 291.859,48.400 293.176 C 48.400 294.483,48.220 295.664,48.000 295.800 C 47.780 295.936,47.600 297.297,47.600 298.824 C 47.600 300.408,47.428 301.600,47.200 301.600 C 46.969 301.600,46.800 302.867,46.800 304.600 C 46.800 306.333,46.631 307.600,46.400 307.600 C 46.174 307.600,46.000 308.733,46.000 310.200 C 46.000 311.667,45.826 312.800,45.600 312.800 C 45.371 312.800,45.200 314.000,45.200 315.600 C 45.200 317.200,45.029 318.400,44.800 318.400 C 44.569 318.400,44.400 319.667,44.400 321.400 C 44.400 323.133,44.231 324.400,44.000 324.400 C 43.769 324.400,43.600 325.667,43.600 327.400 C 43.600 329.133,43.431 330.400,43.200 330.400 C 42.965 330.400,42.800 331.800,42.800 333.800 C 42.800 336.556,42.686 337.200,42.200 337.200 C 41.734 337.200,41.600 337.731,41.600 339.576 C 41.600 340.883,41.420 342.064,41.200 342.200 C 40.980 342.336,40.800 343.697,40.800 345.224 C 40.800 346.808,40.628 348.000,40.400 348.000 C 40.174 348.000,40.000 349.133,40.000 350.600 C 40.000 352.096,39.827 353.200,39.593 353.200 C 39.349 353.200,39.210 354.356,39.245 356.083 C 39.283 357.920,39.141 359.020,38.852 359.116 C 38.238 359.321,38.277 361.476,38.900 361.767 C 39.300 361.953,39.300 362.047,38.900 362.233 C 38.625 362.362,38.400 362.992,38.400 363.633 C 38.400 364.275,38.220 364.800,38.000 364.800 C 37.769 364.800,37.600 366.067,37.600 367.800 C 37.600 369.533,37.431 370.800,37.200 370.800 C 36.974 370.800,36.800 371.933,36.800 373.400 C 36.800 374.867,36.626 376.000,36.400 376.000 C 36.169 376.000,36.000 377.267,36.000 379.000 C 36.000 380.733,35.831 382.000,35.600 382.000 C 35.379 382.000,35.200 383.052,35.200 384.357 C 35.200 386.084,35.039 386.776,34.600 386.945 C 34.145 387.119,34.000 387.856,34.000 389.987 C 34.000 391.596,33.829 392.800,33.600 392.800 C 33.363 392.800,33.200 394.267,33.200 396.400 L 33.200 400.000 202.400 400.000 L 371.600 400.000 371.600 396.400 C 371.600 394.267,371.437 392.800,371.200 392.800 C 370.969 392.800,370.800 391.533,370.800 389.800 C 370.800 388.067,370.631 386.800,370.400 386.800 C 370.171 386.800,370.000 385.600,370.000 384.000 C 370.000 382.400,369.829 381.200,369.600 381.200 C 369.369 381.200,369.200 379.933,369.200 378.200 C 369.200 376.467,369.031 375.200,368.800 375.200 C 368.569 375.200,368.400 373.933,368.400 372.200 C 368.400 370.467,368.231 369.200,368.000 369.200 C 367.769 369.200,367.600 367.933,367.600 366.200 C 367.600 364.467,367.431 363.200,367.200 363.200 C 366.972 363.200,366.800 362.008,366.800 360.424 C 366.800 358.897,366.620 357.536,366.400 357.400 C 366.180 357.264,366.000 356.083,366.000 354.776 C 366.000 352.931,365.866 352.400,365.400 352.400 C 364.920 352.400,364.800 351.800,364.800 349.400 C 364.800 347.667,364.631 346.400,364.400 346.400 C 364.169 346.400,364.000 345.133,364.000 343.400 C 364.000 341.667,363.831 340.400,363.600 340.400 C 363.371 340.400,363.200 339.200,363.200 337.600 C 363.200 336.000,363.029 334.800,362.800 334.800 C 362.565 334.800,362.400 333.400,362.400 331.400 C 362.400 329.400,362.235 328.000,362.000 328.000 C 361.769 328.000,361.600 326.733,361.600 325.000 C 361.600 323.267,361.431 322.000,361.200 322.000 C 360.965 322.000,360.800 320.600,360.800 318.600 C 360.800 316.600,360.635 315.200,360.400 315.200 C 360.169 315.200,360.000 313.933,360.000 312.200 C 360.000 310.467,359.831 309.200,359.600 309.200 C 359.372 309.200,359.200 308.008,359.200 306.424 C 359.200 304.897,359.020 303.536,358.800 303.400 C 358.580 303.264,358.400 301.903,358.400 300.376 C 358.400 298.175,358.276 297.600,357.800 297.600 C 357.320 297.600,357.200 297.000,357.200 294.600 C 357.200 292.867,357.031 291.600,356.800 291.600 C 356.580 291.600,356.400 291.255,356.400 290.833 C 356.400 290.412,356.175 289.962,355.900 289.833 C 355.500 289.647,355.500 289.553,355.900 289.367 C 356.496 289.089,356.588 285.600,356.000 285.600 C 355.774 285.600,355.600 284.467,355.600 283.000 C 355.600 281.533,355.426 280.400,355.200 280.400 C 354.971 280.400,354.800 279.200,354.800 277.600 C 354.800 276.000,354.629 274.800,354.400 274.800 C 354.169 274.800,354.000 273.533,354.000 271.800 C 354.000 270.067,353.831 268.800,353.600 268.800 C 353.369 268.800,353.200 267.525,353.200 265.776 C 353.200 263.863,353.053 262.844,352.800 263.000 C 352.545 263.158,352.400 261.937,352.400 259.624 C 352.400 257.475,352.237 256.000,352.000 256.000 C 351.778 256.000,351.600 254.933,351.600 253.600 C 351.600 252.267,351.422 251.200,351.200 251.200 C 350.965 251.200,350.800 249.800,350.800 247.800 C 350.800 245.044,350.686 244.400,350.200 244.400 C 349.746 244.400,349.600 243.908,349.600 242.371 C 349.600 240.281,348.996 239.200,347.829 239.200 C 347.483 239.200,347.200 239.020,347.200 238.800 C 347.200 238.580,346.840 238.400,346.400 238.400 C 345.960 238.400,345.600 238.220,345.600 238.000 C 345.600 237.780,345.240 237.600,344.800 237.600 C 344.360 237.600,344.000 237.420,344.000 237.200 C 344.000 236.980,343.550 236.800,343.000 236.800 C 342.450 236.800,342.000 236.620,342.000 236.400 C 342.000 236.180,341.640 236.000,341.200 236.000 C 340.760 236.000,340.400 235.820,340.400 235.600 C 340.400 235.380,340.040 235.200,339.600 235.200 C 339.156 235.200,338.800 234.933,338.800 234.600 C 338.800 234.267,338.444 234.000,338.000 234.000 C 337.560 234.000,337.200 233.820,337.200 233.600 C 337.200 233.380,336.840 233.200,336.400 233.200 C 335.960 233.200,335.600 233.020,335.600 232.800 C 335.600 232.580,335.150 232.400,334.600 232.400 C 334.050 232.400,333.600 232.220,333.600 232.000 C 333.600 231.780,333.240 231.600,332.800 231.600 C 332.360 231.600,332.000 231.420,332.000 231.200 C 332.000 230.980,331.640 230.800,331.200 230.800 C 330.760 230.800,330.400 230.620,330.400 230.400 C 330.400 230.180,330.040 230.000,329.600 230.000 C 329.160 230.000,328.800 229.820,328.800 229.600 C 328.800 229.380,328.350 229.200,327.800 229.200 C 327.250 229.200,326.800 229.020,326.800 228.800 C 326.800 228.580,326.440 228.400,326.000 228.400 C 325.560 228.400,325.200 228.220,325.200 228.000 C 325.200 227.780,324.840 227.600,324.400 227.600 C 323.956 227.600,323.600 227.333,323.600 227.000 C 323.600 226.667,323.244 226.400,322.800 226.400 C 322.360 226.400,322.000 226.220,322.000 226.000 C 322.000 225.780,321.640 225.600,321.200 225.600 C 320.760 225.600,320.400 225.420,320.400 225.200 C 320.400 224.980,319.950 224.800,319.400 224.800 C 318.850 224.800,318.400 224.620,318.400 224.400 C 318.400 224.180,318.040 224.000,317.600 224.000 C 317.160 224.000,316.800 223.820,316.800 223.600 C 316.800 223.380,316.480 223.200,316.088 223.200 C 315.697 223.200,315.117 222.840,314.800 222.400 C 314.461 221.930,313.765 221.600,313.112 221.600 C 312.500 221.600,312.000 221.420,312.000 221.200 C 312.000 220.980,311.627 220.800,311.171 220.800 C 310.286 220.800,309.200 219.934,309.200 219.229 C 309.200 218.993,308.660 218.800,308.000 218.800 C 307.340 218.800,306.800 218.620,306.800 218.400 C 306.800 218.180,306.440 218.000,306.000 218.000 C 305.560 218.000,305.200 217.820,305.200 217.600 C 305.200 217.380,304.750 217.200,304.200 217.200 C 303.650 217.200,303.200 217.020,303.200 216.800 C 303.200 216.580,302.840 216.400,302.400 216.400 C 301.960 216.400,301.600 216.220,301.600 216.000 C 301.600 215.780,301.240 215.600,300.800 215.600 C 300.267 215.600,300.000 215.333,300.000 214.800 C 300.000 214.360,299.820 214.000,299.600 214.000 C 299.380 214.000,299.200 213.190,299.200 212.200 C 299.200 211.210,299.020 210.400,298.800 210.400 C 298.578 210.400,298.400 209.333,298.400 208.000 C 298.400 206.667,298.222 205.600,298.000 205.600 C 297.769 205.600,297.600 204.333,297.600 202.600 C 297.600 200.867,297.431 199.600,297.200 199.600 C 296.941 199.600,296.800 194.800,296.800 186.000 C 296.800 177.200,296.941 172.400,297.200 172.400 C 297.439 172.400,297.600 170.867,297.600 168.600 C 297.600 166.333,297.761 164.800,298.000 164.800 C 298.233 164.800,298.400 163.467,298.400 161.600 C 298.400 159.733,298.567 158.400,298.800 158.400 C 299.020 158.400,299.200 157.487,299.200 156.371 C 299.200 154.281,298.596 153.200,297.429 153.200 C 297.083 153.200,296.800 153.020,296.800 152.800 C 296.800 152.580,295.990 152.400,295.000 152.400 C 293.467 152.400,293.200 152.281,293.200 151.600 C 293.200 151.082,292.933 150.800,292.443 150.800 C 292.026 150.800,291.582 150.530,291.455 150.200 C 291.329 149.870,290.769 149.600,290.213 149.600 C 289.579 149.600,289.200 149.825,289.200 150.200 C 289.200 150.573,288.822 150.800,288.200 150.800 C 287.650 150.800,287.200 150.980,287.200 151.200 C 287.200 151.420,286.840 151.600,286.400 151.600 C 285.960 151.600,285.600 151.780,285.600 152.000 C 285.600 152.220,285.240 152.400,284.800 152.400 C 284.360 152.400,284.000 152.580,284.000 152.800 C 284.000 153.020,283.460 153.200,282.800 153.200 C 282.140 153.200,281.600 153.380,281.600 153.600 C 281.600 153.820,281.150 154.000,280.600 154.000 C 280.050 154.000,279.600 154.180,279.600 154.400 C 279.600 154.620,279.060 154.800,278.400 154.800 C 277.740 154.800,277.200 154.980,277.200 155.200 C 277.200 155.420,276.660 155.600,276.000 155.600 C 275.340 155.600,274.800 155.780,274.800 156.000 C 274.800 156.220,273.990 156.400,273.000 156.400 C 272.010 156.400,271.200 156.580,271.200 156.800 C 271.200 157.020,270.660 157.200,270.000 157.200 C 269.200 157.200,268.800 157.400,268.800 157.800 C 268.800 158.233,268.356 158.400,267.200 158.400 C 266.320 158.400,265.600 158.580,265.600 158.800 C 265.600 159.020,264.790 159.200,263.800 159.200 C 262.810 159.200,262.000 159.380,262.000 159.600 C 262.000 159.820,261.280 160.000,260.400 160.000 C 259.520 160.000,258.800 160.180,258.800 160.400 C 258.800 160.620,257.990 160.800,257.000 160.800 C 256.010 160.800,255.200 160.980,255.200 161.200 C 255.200 161.420,254.480 161.600,253.600 161.600 C 252.720 161.600,252.000 161.780,252.000 162.000 C 252.000 162.220,251.010 162.400,249.800 162.400 C 248.590 162.400,247.600 162.580,247.600 162.800 C 247.600 163.020,246.880 163.200,246.000 163.200 C 245.120 163.200,244.400 163.380,244.400 163.600 C 244.400 163.820,243.410 164.000,242.200 164.000 C 240.990 164.000,240.000 164.180,240.000 164.400 C 240.000 164.620,239.100 164.800,238.000 164.800 C 236.489 164.800,236.000 164.947,236.000 165.400 C 236.000 165.866,235.469 166.000,233.624 166.000 C 232.317 166.000,231.136 166.180,231.000 166.400 C 230.864 166.620,229.593 166.800,228.176 166.800 C 226.725 166.800,225.600 166.975,225.600 167.200 C 225.600 167.422,224.533 167.600,223.200 167.600 C 221.867 167.600,220.800 167.778,220.800 168.000 C 220.800 168.231,219.533 168.400,217.800 168.400 C 216.067 168.400,214.800 168.569,214.800 168.800 C 214.800 169.020,213.810 169.200,212.600 169.200 L 210.400 169.200 210.400 178.000 C 210.400 183.600,210.545 186.800,210.800 186.800 C 211.058 186.800,211.200 191.190,211.200 199.171 C 211.200 209.635,211.293 211.635,211.800 212.143 C 212.298 212.641,212.400 214.275,212.400 221.729 C 212.400 229.347,212.309 230.749,211.800 230.945 C 211.377 231.107,211.200 231.768,211.200 233.187 C 211.200 234.294,211.020 235.200,210.800 235.200 C 210.580 235.200,210.400 236.100,210.400 237.200 C 210.400 238.300,210.220 239.200,210.000 239.200 C 209.780 239.200,209.600 239.740,209.600 240.400 C 209.600 241.060,209.780 241.600,210.000 241.600 C 210.220 241.600,210.400 241.870,210.400 242.200 C 210.400 242.530,210.209 242.800,209.976 242.800 C 209.743 242.800,209.664 242.980,209.800 243.200 C 209.936 243.420,209.767 243.600,209.424 243.600 C 208.942 243.600,208.800 244.055,208.800 245.600 C 208.800 246.700,208.620 247.600,208.400 247.600 C 208.180 247.600,208.000 248.590,208.000 249.800 C 208.000 251.010,207.820 252.000,207.600 252.000 C 207.354 252.000,207.200 250.000,207.200 246.800 C 207.200 243.600,207.046 241.600,206.800 241.600 C 206.580 241.600,206.400 241.060,206.400 240.400 C 206.400 239.740,206.220 239.200,206.000 239.200 C 205.780 239.200,205.600 238.480,205.600 237.600 C 205.600 236.720,205.420 236.000,205.200 236.000 C 204.980 236.000,204.800 235.190,204.800 234.200 C 204.800 232.867,204.644 232.400,204.200 232.400 C 203.767 232.400,203.600 231.956,203.600 230.800 C 203.600 229.920,203.420 229.200,203.200 229.200 C 202.980 229.200,202.800 228.570,202.800 227.800 C 202.800 227.030,202.620 226.400,202.400 226.400 C 202.180 226.400,202.000 225.680,202.000 224.800 C 202.000 223.920,201.820 223.200,201.600 223.200 C 201.380 223.200,201.200 222.480,201.200 221.600 C 201.200 220.720,201.020 220.000,200.800 220.000 C 200.580 220.000,200.400 219.370,200.400 218.600 C 200.400 217.830,200.220 217.200,200.000 217.200 C 199.780 217.200,199.600 216.480,199.600 215.600 C 199.600 214.720,199.420 214.000,199.200 214.000 C 198.980 214.000,198.800 213.454,198.800 212.787 C 198.800 212.046,198.552 211.480,198.162 211.330 C 197.700 211.153,197.586 210.768,197.752 209.942 C 197.878 209.311,197.806 208.800,197.590 208.800 C 197.375 208.800,197.200 208.080,197.200 207.200 C 197.200 206.044,197.033 205.600,196.600 205.600 C 196.156 205.600,196.000 205.133,196.000 203.800 C 196.000 202.810,195.820 202.000,195.600 202.000 C 195.380 202.000,195.200 201.460,195.200 200.800 C 195.200 200.140,195.020 199.600,194.800 199.600 C 194.580 199.600,194.400 198.880,194.400 198.000 C 194.400 197.120,194.220 196.400,194.000 196.400 C 193.780 196.400,193.600 196.212,193.600 195.982 C 193.600 195.399,191.739 193.595,191.442 193.891 C 191.309 194.024,191.200 193.653,191.200 193.067 C 191.200 192.372,190.985 192.000,190.583 192.000 C 190.244 192.000,189.580 191.640,189.108 191.200 C 188.636 190.760,187.923 190.400,187.525 190.400 C 187.126 190.400,186.800 190.220,186.800 190.000 C 186.800 189.780,186.440 189.600,186.000 189.600 C 185.560 189.600,185.200 189.420,185.200 189.200 C 185.200 188.980,184.840 188.800,184.400 188.800 C 183.960 188.800,183.600 188.607,183.600 188.371 C 183.600 187.764,182.560 186.800,181.904 186.800 C 181.600 186.800,180.964 186.440,180.492 186.000 C 180.020 185.560,179.356 185.200,179.017 185.200 C 178.678 185.200,178.400 185.020,178.400 184.800 C 178.400 184.580,178.080 184.400,177.688 184.400 C 177.297 184.400,176.717 184.040,176.400 183.600 C 176.083 183.160,175.503 182.800,175.112 182.800 C 174.720 182.800,174.400 182.620,174.400 182.400 C 174.400 182.180,174.027 182.000,173.571 182.000 C 172.672 182.000,171.600 181.131,171.600 180.402 C 171.600 180.128,171.280 180.048,170.800 180.200 C 170.320 180.352,170.000 180.272,170.000 179.998 C 170.000 179.338,168.960 178.400,168.229 178.400 C 167.883 178.400,167.600 178.220,167.600 178.000 C 167.600 177.780,167.240 177.600,166.800 177.600 C 166.360 177.600,166.000 177.420,166.000 177.200 C 166.000 176.980,165.730 176.800,165.400 176.800 C 165.070 176.800,164.800 176.620,164.800 176.400 C 164.800 176.180,164.440 176.000,164.000 176.000 C 163.560 176.000,163.200 175.820,163.200 175.600 C 163.200 175.380,162.880 175.200,162.488 175.200 C 162.097 175.200,161.517 174.840,161.200 174.400 C 160.883 173.960,160.374 173.600,160.069 173.600 C 159.764 173.600,159.161 173.150,158.729 172.600 C 158.296 172.050,157.635 171.600,157.259 171.600 C 156.884 171.600,156.317 171.240,156.000 170.800 C 155.683 170.360,155.103 170.000,154.712 170.000 C 154.320 170.000,154.000 169.820,154.000 169.600 C 154.000 169.380,153.640 169.200,153.200 169.200 C 152.760 169.200,152.400 169.020,152.400 168.800 C 152.400 168.580,152.040 168.400,151.600 168.400 C 151.160 168.400,150.800 168.220,150.800 168.000 C 150.800 167.780,150.530 167.600,150.200 167.600 C 149.870 167.600,149.600 167.420,149.600 167.200 C 149.600 166.980,149.317 166.800,148.971 166.800 C 148.253 166.800,147.200 165.866,147.200 165.229 C 147.200 164.993,146.840 164.800,146.400 164.800 C 145.960 164.800,145.600 164.620,145.600 164.400 C 145.600 164.180,145.280 164.000,144.888 164.000 C 144.497 164.000,143.917 163.640,143.600 163.200 C 143.283 162.760,142.613 162.400,142.112 162.400 C 141.610 162.400,141.200 162.220,141.200 162.000 C 141.200 161.780,140.880 161.600,140.488 161.600 C 140.097 161.600,139.517 161.240,139.200 160.800 C 138.883 160.360,138.343 160.000,138.000 160.000 C 137.657 160.000,137.117 159.640,136.800 159.200 C 136.483 158.760,135.813 158.400,135.312 158.400 C 134.768 158.400,134.400 158.158,134.400 157.800 C 134.400 157.400,134.000 157.200,133.200 157.200 C 132.267 157.200,132.000 157.022,132.000 156.400 C 132.000 155.867,131.733 155.600,131.200 155.600 C 130.760 155.600,130.400 155.420,130.400 155.200 C 130.400 154.980,130.080 154.800,129.688 154.800 C 129.297 154.800,128.717 154.440,128.400 154.000 C 128.083 153.560,127.413 153.200,126.912 153.200 C 126.410 153.200,126.000 153.020,126.000 152.800 C 126.000 152.580,125.680 152.400,125.288 152.400 C 124.897 152.400,124.317 152.040,124.000 151.600 C 123.683 151.160,123.134 150.800,122.779 150.800 C 122.425 150.800,121.894 150.350,121.600 149.800 C 121.306 149.250,120.746 148.800,120.356 148.800 C 119.966 148.800,119.536 148.620,119.400 148.400 C 118.905 147.599,116.000 147.921,116.000 148.776 " stroke="none" fill="#1c2c34" fill-rule="evenodd"></path><path id="path1" d="" stroke="none" fill="#202c34" fill-rule="evenodd"></path></g></svg>