<svg id="svg" version="1.1" xmlns="http://www.w3.org/2000/svg" xmlns:xlink="http://www.w3.org/1999/xlink" width="400" height="400" viewBox="0, 0, 400,400"><g id="svgg"><path id="path0" d="M182.375 66.522 C 118.614 68.495,78.367 79.761,53.313 102.649 L 51.250 104.534 51.245 108.704 C 51.231 122.068,48.410 127.926,36.117 140.125 C 25.019 151.137,23.133 154.310,21.229 165.175 C 19.037 177.677,20.812 186.350,29.298 204.604 C 40.309 228.288,41.241 238.401,36.487 282.625 C 31.844 325.808,33.103 335.181,45.242 347.835 C 64.632 368.047,94.271 372.093,145.375 361.505 C 149.912 360.565,160.431 358.481,168.750 356.874 C 191.427 352.494,198.468 350.964,202.875 349.463 C 211.970 346.364,222.519 341.545,238.875 333.019 C 248.904 327.790,262.544 320.980,271.375 316.791 C 315.972 295.637,338.587 277.186,344.505 257.125 C 348.941 242.086,350.294 240.010,365.999 224.125 C 382.265 207.672,385.325 202.133,386.229 187.511 C 387.202 171.754,382.225 162.398,364.750 147.133 C 349.481 133.794,345.787 128.995,341.649 117.125 C 337.963 106.549,337.085 104.155,335.851 101.317 C 330.474 88.954,316.398 73.681,306.000 68.927 C 300.550 66.435,294.980 65.843,284.375 66.627 C 278.090 67.091,268.985 67.091,244.375 66.625 C 224.215 66.244,193.033 66.192,182.375 66.522 M236.125 83.290 C 239.975 83.432,255.444 83.621,270.500 83.711 L 297.875 83.875 299.856 84.950 C 305.194 87.849,312.551 95.174,317.732 102.750 C 320.230 106.402,322.103 110.696,324.881 119.140 C 330.542 136.346,335.781 143.709,353.500 159.363 C 368.648 172.745,371.417 178.234,369.393 190.860 C 368.114 198.839,366.797 200.767,353.760 213.750 C 337.299 230.145,334.661 234.221,327.714 254.000 C 322.372 269.211,301.125 284.768,260.000 303.582 C 247.519 309.292,247.715 309.194,230.625 318.247 C 205.069 331.784,198.744 334.157,176.287 338.638 C 170.423 339.808,164.331 341.055,162.750 341.410 C 161.169 341.764,156.669 342.654,152.750 343.387 C 148.831 344.120,143.704 345.115,141.355 345.597 C 104.797 353.100,76.480 351.581,62.776 341.382 C 53.622 334.570,50.680 329.337,50.330 319.250 C 50.104 312.729,50.403 308.932,52.999 285.371 C 55.509 262.597,55.606 261.231,55.614 248.500 C 55.629 226.936,53.534 218.060,43.531 197.301 C 37.603 184.999,36.542 181.365,36.812 174.278 C 37.165 165.029,39.092 161.098,46.648 154.214 C 61.045 141.096,66.391 131.452,67.773 116.105 L 68.067 112.835 71.185 110.505 C 94.942 92.751,132.309 84.118,189.500 83.170 C 200.345 82.990,230.082 83.067,236.125 83.290 M238.375 124.653 C 213.636 127.261,193.211 140.609,195.232 152.848 C 195.918 157.005,199.355 161.412,204.493 164.724 C 207.369 166.578,206.043 166.806,213.720 163.134 C 227.795 156.403,235.919 153.371,244.861 151.511 C 251.600 150.110,253.264 149.971,266.000 149.748 C 285.533 149.407,288.133 148.602,286.615 143.366 C 282.904 130.559,270.816 124.985,246.000 124.640 C 242.356 124.589,238.925 124.595,238.375 124.653 M108.125 133.392 C 100.675 134.530,94.480 138.008,90.503 143.286 C 89.269 144.924,87.000 148.986,87.000 149.557 C 87.000 149.871,90.855 151.285,93.299 151.866 C 98.174 153.027,103.421 153.526,115.750 154.000 C 131.497 154.605,138.352 155.711,143.375 158.456 L 145.125 159.412 145.191 166.567 L 145.258 173.722 140.191 177.086 C 137.405 178.935,132.031 182.548,128.250 185.114 C 120.002 190.711,115.017 193.738,108.501 197.105 L 103.625 199.625 105.875 199.700 C 109.238 199.811,114.483 199.349,117.978 198.633 C 119.685 198.283,121.091 198.026,121.103 198.061 C 121.115 198.096,121.341 198.519,121.604 199.000 C 121.868 199.481,122.296 200.269,122.555 200.750 C 122.862 201.319,123.000 201.996,122.949 202.688 L 122.871 203.750 123.748 203.748 C 125.017 203.744,126.890 202.758,128.737 201.121 L 130.348 199.692 131.335 200.784 C 137.945 208.100,143.515 212.784,148.085 214.870 C 154.967 218.012,160.794 215.700,161.979 209.356 C 162.291 207.683,162.468 207.750,157.762 207.750 L 153.554 207.750 149.839 205.714 C 142.063 201.453,138.700 198.424,136.785 193.958 L 136.301 192.828 136.941 191.977 C 139.008 189.224,141.751 186.942,147.125 183.504 C 148.912 182.360,151.134 180.858,152.063 180.167 L 153.750 178.910 153.750 169.240 L 153.750 159.570 155.208 158.793 C 156.009 158.365,157.669 157.662,158.895 157.230 C 163.050 155.765,164.625 154.692,165.628 152.640 C 167.556 148.700,164.584 147.376,157.128 148.852 L 153.880 149.495 152.878 148.316 C 144.044 137.923,123.442 131.053,108.125 133.392 M233.069 134.691 C 233.946 135.607,234.381 136.915,235.116 140.849 C 235.452 142.651,235.797 144.361,235.883 144.649 C 236.031 145.148,235.923 145.182,233.697 145.338 C 229.341 145.644,226.743 146.630,221.370 150.015 C 214.962 154.052,212.643 154.967,208.279 155.182 L 205.433 155.323 205.614 153.880 C 206.689 145.269,210.242 142.092,224.360 137.114 C 226.551 136.342,229.082 135.330,229.985 134.867 C 231.994 133.835,232.235 133.821,233.069 134.691 M272.262 135.221 C 274.394 136.031,276.164 138.037,276.869 140.439 L 277.035 141.004 276.143 140.478 C 275.590 140.151,273.976 139.732,271.890 139.373 C 268.206 138.739,267.202 138.305,266.629 137.098 C 266.226 136.249,266.126 134.962,266.438 134.639 C 266.789 134.275,270.835 134.679,272.262 135.221 M119.750 142.595 L 121.125 142.915 119.750 143.339 C 116.271 144.414,110.280 144.825,106.833 144.224 C 104.877 143.884,104.848 143.677,106.688 143.170 C 110.832 142.027,116.274 141.787,119.750 142.595 M317.441 149.740 C 313.665 150.433,311.857 151.411,304.000 157.007 C 295.305 163.199,287.976 165.545,275.500 166.127 C 266.011 166.570,260.454 165.295,253.418 161.059 C 248.667 158.198,245.103 157.257,245.384 158.938 C 247.041 168.821,261.177 175.658,277.583 174.511 C 291.076 173.567,300.778 170.344,310.427 163.597 C 317.514 158.642,318.618 158.120,321.965 158.143 C 334.189 158.224,342.532 166.095,344.849 179.732 C 345.164 181.583,345.250 183.956,345.250 190.794 C 345.250 195.582,345.334 199.498,345.438 199.495 C 346.194 199.473,352.296 191.874,353.063 190.000 C 353.893 187.971,353.883 178.441,353.048 174.578 C 350.137 161.120,341.266 152.556,327.699 150.106 C 325.205 149.656,319.089 149.438,317.441 149.740 M66.646 166.259 C 60.429 167.240,53.790 171.515,53.752 174.563 C 53.751 174.666,59.422 174.750,66.355 174.750 L 78.961 174.750 81.168 176.022 C 84.956 178.204,86.042 179.348,86.759 181.909 L 87.086 183.075 91.856 182.920 C 106.121 182.455,111.175 178.717,112.117 167.938 L 112.264 166.250 111.194 166.253 C 108.373 166.261,105.050 167.804,101.000 170.988 C 99.419 172.231,97.536 173.542,96.815 173.902 L 95.505 174.556 94.636 173.793 C 88.531 168.433,75.353 164.886,66.646 166.259 M309.418 174.842 C 305.003 176.088,303.750 178.696,303.750 186.643 L 303.750 191.944 302.813 192.114 C 295.772 193.386,288.010 196.153,270.500 203.635 C 263.969 206.425,256.544 209.576,254.000 210.636 C 221.635 224.122,199.571 229.822,170.125 232.301 C 164.970 232.735,143.966 232.734,139.625 232.300 C 119.311 230.266,107.095 225.410,100.139 216.602 C 97.595 213.381,96.246 210.581,95.983 207.978 C 95.874 206.895,95.693 205.866,95.580 205.692 C 95.467 205.518,95.375 203.519,95.375 201.250 C 95.375 194.464,92.673 191.152,87.120 191.132 C 80.911 191.110,77.954 195.723,78.312 204.875 C 78.429 207.863,78.425 207.891,77.236 212.031 C 71.493 232.027,69.045 254.810,71.127 268.875 C 75.000 295.039,93.662 311.265,124.833 315.567 C 129.747 316.245,158.368 316.403,167.500 315.802 C 228.122 311.814,265.296 295.444,293.660 260.250 C 294.601 259.081,297.761 254.946,300.680 251.060 C 309.682 239.077,312.584 235.707,317.773 231.211 C 318.861 230.269,319.692 229.269,320.265 228.211 L 321.125 226.625 321.203 220.063 C 321.245 216.453,321.348 213.500,321.431 213.500 C 321.514 213.500,322.773 214.131,324.228 214.902 L 326.875 216.304 329.000 216.197 C 332.575 216.017,334.058 214.864,335.687 211.000 C 338.260 204.898,336.888 202.790,327.117 197.828 L 320.625 194.532 320.500 187.578 C 320.362 179.920,320.224 179.228,318.400 177.071 C 316.712 175.075,312.391 174.003,309.418 174.842 M201.817 182.996 C 198.446 183.716,195.500 186.525,195.500 189.019 C 195.500 190.242,197.852 190.843,204.236 191.249 C 209.800 191.603,211.165 192.347,211.997 195.477 C 212.618 197.810,211.835 199.087,208.680 200.887 C 205.320 202.805,203.758 204.773,203.752 207.099 L 203.750 208.072 208.688 207.929 C 219.131 207.627,220.115 206.548,220.423 195.058 L 220.572 189.491 219.494 188.466 C 215.492 184.658,206.730 181.947,201.817 182.996 M177.875 200.120 C 173.520 200.817,170.500 202.802,170.500 204.968 C 170.500 206.375,181.516 207.991,191.149 207.998 C 195.743 208.001,196.152 207.516,195.573 202.750 L 195.375 201.125 193.000 200.712 C 187.410 199.739,181.660 199.514,177.875 200.120 M299.250 211.362 C 299.250 218.988,296.874 224.670,292.833 226.707 C 290.650 227.808,281.148 230.250,279.046 230.250 C 278.813 230.250,278.757 228.808,278.808 224.091 L 278.875 217.932 281.912 216.623 C 288.720 213.690,297.742 210.295,298.813 210.263 C 299.166 210.252,299.250 210.465,299.250 211.362 M269.885 222.938 C 268.015 233.204,261.822 238.116,243.775 243.645 C 238.104 245.382,235.014 246.404,231.600 247.672 C 231.423 247.738,231.273 247.082,231.175 245.822 C 231.093 244.749,230.727 242.482,230.362 240.785 C 229.595 237.214,229.423 237.541,232.625 236.499 C 239.832 234.156,253.199 228.994,264.625 224.142 C 270.462 221.663,270.102 221.746,269.885 222.938 M92.987 234.375 C 92.996 236.318,90.625 249.709,90.196 250.137 C 89.687 250.646,88.500 249.452,88.500 248.431 C 88.501 246.431,90.218 233.245,90.634 232.044 C 90.854 231.409,92.983 233.518,92.987 234.375 M108.875 242.638 C 110.525 243.280,111.900 243.828,111.931 243.855 C 111.962 243.882,111.460 245.191,110.816 246.764 C 109.422 250.169,109.139 252.482,109.878 254.419 C 110.581 256.258,109.599 256.499,106.674 255.203 C 105.121 254.516,104.580 254.405,102.714 254.391 L 100.553 254.375 100.383 252.658 C 100.290 251.714,99.885 248.969,99.482 246.559 C 99.061 244.040,98.750 241.243,98.750 239.982 L 98.750 237.789 102.313 239.629 C 104.272 240.642,107.225 241.996,108.875 242.638 M222.370 241.375 C 222.471 241.925,222.800 244.544,223.101 247.195 L 223.649 252.016 223.012 252.160 C 220.608 252.702,218.103 253.400,214.666 254.484 C 207.348 256.791,203.044 257.438,193.438 257.675 L 187.250 257.827 187.250 252.584 L 187.250 247.342 190.938 246.781 C 198.716 245.598,214.191 242.187,220.375 240.292 C 222.040 239.782,222.081 239.804,222.370 241.375 M271.247 250.250 C 271.889 254.542,272.430 257.046,273.010 258.399 L 273.469 259.469 270.290 262.547 C 262.537 270.056,254.488 275.967,244.709 281.336 C 242.832 282.366,242.501 282.437,242.497 281.813 C 242.492 281.090,240.965 277.822,239.071 274.480 C 236.217 269.445,235.250 266.486,235.250 262.792 C 235.250 259.511,234.984 259.781,239.456 258.525 C 251.058 255.267,261.707 250.946,268.375 246.790 L 270.375 245.544 270.559 246.210 C 270.660 246.576,270.970 248.394,271.247 250.250 M122.762 246.766 C 127.821 247.872,135.017 248.800,143.057 249.385 L 145.239 249.544 145.182 253.650 C 145.129 257.480,145.092 257.766,144.635 257.911 C 143.773 258.185,132.220 258.083,129.500 257.778 C 125.019 257.275,117.112 255.660,117.313 255.288 C 118.324 253.415,119.741 248.482,119.748 246.813 C 119.751 246.125,119.821 246.124,122.762 246.766 M178.750 252.938 L 178.749 257.625 166.219 257.672 L 153.689 257.719 153.839 256.297 C 153.922 255.515,154.063 253.733,154.154 252.337 L 154.318 249.799 157.972 249.650 C 168.091 249.238,178.158 248.574,178.688 248.284 C 178.722 248.265,178.750 250.359,178.750 252.938 M226.744 267.375 C 227.323 270.196,228.556 273.625,230.745 278.500 C 233.311 284.214,234.097 286.259,233.824 286.512 C 233.033 287.243,220.645 291.515,214.301 293.243 C 205.257 295.707,203.311 296.059,198.000 296.188 L 193.125 296.306 193.084 292.340 C 193.061 290.159,192.860 286.856,192.637 285.000 C 192.093 280.475,191.841 273.265,192.202 272.589 C 192.435 272.154,192.812 272.050,194.676 271.908 C 202.941 271.279,211.905 268.442,222.625 263.063 L 226.125 261.307 226.281 263.591 C 226.367 264.847,226.575 266.550,226.744 267.375 M98.131 275.870 C 101.227 278.079,103.339 281.777,105.487 288.750 C 106.186 291.019,106.815 293.057,106.885 293.280 C 107.395 294.898,102.780 292.445,99.543 289.378 L 97.926 287.846 98.372 287.165 C 99.051 286.129,98.763 284.097,97.495 280.981 C 96.485 278.500,95.810 274.750,96.373 274.750 C 96.477 274.750,97.268 275.254,98.131 275.870 M183.544 279.937 C 183.491 282.842,183.642 286.691,183.982 291.079 C 184.267 294.766,184.500 297.985,184.500 298.232 C 184.500 299.318,177.150 299.888,166.500 299.629 L 158.875 299.443 158.841 296.284 C 158.816 293.909,158.642 292.350,158.140 290.000 C 157.205 285.624,156.565 281.926,156.385 279.875 L 156.232 278.125 161.679 278.110 C 168.208 278.092,176.934 277.109,182.500 275.763 C 182.981 275.646,183.431 275.540,183.500 275.525 C 183.569 275.511,183.589 277.496,183.544 279.937 M112.838 277.993 C 113.643 278.124,115.443 278.679,116.839 279.224 C 118.234 279.770,119.964 280.294,120.683 280.390 C 121.943 280.557,121.995 280.595,122.157 281.469 C 122.460 283.095,123.408 285.557,125.216 289.408 C 126.929 293.055,128.053 296.531,127.650 296.932 C 126.714 297.863,120.093 296.811,116.971 295.235 L 115.549 294.518 115.796 293.446 C 116.362 290.990,115.727 289.157,112.718 284.561 C 110.036 280.466,109.194 278.142,110.313 277.926 C 111.261 277.744,111.331 277.746,112.838 277.993 M140.227 278.885 C 146.819 280.439,151.815 287.668,152.648 296.859 L 152.819 298.747 151.847 299.156 C 150.244 299.830,147.020 299.876,142.594 299.288 C 140.411 298.998,138.311 298.730,137.927 298.693 C 137.277 298.630,137.168 298.447,136.374 296.074 C 135.904 294.671,134.510 291.408,133.275 288.824 C 131.275 284.636,129.750 280.764,129.750 279.870 C 129.750 279.599,130.920 279.235,133.625 278.664 C 134.835 278.408,138.763 278.540,140.227 278.885 " stroke="none" fill="#1c2c34" fill-rule="evenodd"></path><path id="path1" d="" stroke="none" fill="#202c34" fill-rule="evenodd"></path><path id="path2" d="" stroke="none" fill="#202c34" fill-rule="evenodd"></path><path id="path3" d="" stroke="none" fill="#202c34" fill-rule="evenodd"></path><path id="path4" d="" stroke="none" fill="#202c34" fill-rule="evenodd"></path></g></svg>