<svg id="svg" version="1.1" xmlns="http://www.w3.org/2000/svg" xmlns:xlink="http://www.w3.org/1999/xlink" width="400" height="400" viewBox="0, 0, 400,400"><g id="svgg"><path id="path0" d="M173.700 0.298 C 170.425 0.402,169.600 0.546,169.600 1.014 C 169.600 1.477,168.968 1.600,166.600 1.600 C 164.867 1.600,163.600 1.769,163.600 2.000 C 163.600 2.231,162.333 2.400,160.600 2.400 C 158.200 2.400,157.600 2.520,157.600 3.000 C 157.600 3.453,157.111 3.600,155.600 3.600 C 154.500 3.600,153.600 3.780,153.600 4.000 C 153.600 4.220,152.700 4.400,151.600 4.400 C 150.089 4.400,149.600 4.547,149.600 5.000 C 149.600 5.453,149.111 5.600,147.600 5.600 C 146.500 5.600,145.600 5.780,145.600 6.000 C 145.600 6.220,144.700 6.400,143.600 6.400 C 142.089 6.400,141.600 6.547,141.600 7.000 C 141.600 7.433,141.156 7.600,140.000 7.600 C 139.120 7.600,138.400 7.780,138.400 8.000 C 138.400 8.220,137.770 8.400,137.000 8.400 C 136.022 8.400,135.600 8.581,135.600 9.000 C 135.600 9.433,135.156 9.600,134.000 9.600 C 133.120 9.600,132.400 9.780,132.400 10.000 C 132.400 10.220,131.950 10.400,131.400 10.400 C 130.778 10.400,130.400 10.627,130.400 11.000 C 130.400 11.453,129.911 11.600,128.400 11.600 C 127.300 11.600,126.400 11.780,126.400 12.000 C 126.400 12.220,125.950 12.400,125.400 12.400 C 124.778 12.400,124.400 12.627,124.400 13.000 C 124.400 13.419,123.978 13.600,123.000 13.600 C 122.230 13.600,121.600 13.780,121.600 14.000 C 121.600 14.220,121.150 14.400,120.600 14.400 C 119.978 14.400,119.600 14.627,119.600 15.000 C 119.600 15.433,119.156 15.600,118.000 15.600 C 117.120 15.600,116.400 15.780,116.400 16.000 C 116.400 16.220,115.950 16.400,115.400 16.400 C 114.778 16.400,114.400 16.627,114.400 17.000 C 114.400 17.373,114.022 17.600,113.400 17.600 C 112.850 17.600,112.400 17.780,112.400 18.000 C 112.400 18.220,111.950 18.400,111.400 18.400 C 110.778 18.400,110.400 18.627,110.400 19.000 C 110.400 19.340,110.041 19.600,109.571 19.600 C 108.686 19.600,107.600 20.466,107.600 21.171 C 107.600 21.407,107.150 21.600,106.600 21.600 C 106.050 21.600,105.600 21.780,105.600 22.000 C 105.600 22.220,105.150 22.400,104.600 22.400 C 103.978 22.400,103.600 22.627,103.600 23.000 C 103.600 23.373,103.222 23.600,102.600 23.600 C 102.050 23.600,101.600 23.780,101.600 24.000 C 101.600 24.220,101.330 24.400,101.000 24.400 C 100.670 24.400,100.400 24.670,100.400 25.000 C 100.400 25.419,99.978 25.600,99.000 25.600 C 98.230 25.600,97.600 25.780,97.600 26.000 C 97.600 26.220,97.330 26.400,97.000 26.400 C 96.670 26.400,96.400 26.670,96.400 27.000 C 96.400 27.373,96.022 27.600,95.400 27.600 C 94.850 27.600,94.400 27.780,94.400 28.000 C 94.400 28.220,93.950 28.400,93.400 28.400 C 92.850 28.400,92.400 28.593,92.400 28.829 C 92.400 29.534,91.314 30.400,90.429 30.400 C 89.959 30.400,89.600 30.660,89.600 31.000 C 89.600 31.373,89.222 31.600,88.600 31.600 C 88.050 31.600,87.600 31.780,87.600 32.000 C 87.600 32.220,87.330 32.400,87.000 32.400 C 86.670 32.400,86.400 32.593,86.400 32.829 C 86.400 33.534,85.314 34.400,84.429 34.400 C 83.959 34.400,83.600 34.660,83.600 35.000 C 83.600 35.330,83.330 35.600,83.000 35.600 C 82.670 35.600,82.400 35.780,82.400 36.000 C 82.400 36.220,81.950 36.400,81.400 36.400 C 80.850 36.400,80.400 36.593,80.400 36.829 C 80.400 37.382,79.382 38.400,78.829 38.400 C 78.593 38.400,78.400 38.670,78.400 39.000 C 78.400 39.340,78.041 39.600,77.571 39.600 C 76.686 39.600,75.600 40.466,75.600 41.171 C 75.600 41.407,75.407 41.600,75.171 41.600 C 74.618 41.600,73.600 42.618,73.600 43.171 C 73.600 43.407,73.150 43.600,72.600 43.600 C 72.050 43.600,71.600 43.780,71.600 44.000 C 71.600 44.220,71.330 44.400,71.000 44.400 C 70.670 44.400,70.400 44.593,70.400 44.829 C 70.400 45.382,69.382 46.400,68.829 46.400 C 68.593 46.400,68.400 46.593,68.400 46.829 C 68.400 47.382,67.382 48.400,66.829 48.400 C 66.593 48.400,66.400 48.593,66.400 48.829 C 66.400 49.534,65.314 50.400,64.429 50.400 C 63.959 50.400,63.600 50.660,63.600 51.000 C 63.600 51.330,63.407 51.600,63.171 51.600 C 62.618 51.600,61.600 52.618,61.600 53.171 C 61.600 53.407,61.407 53.600,61.171 53.600 C 60.618 53.600,59.600 54.618,59.600 55.171 C 59.600 55.407,59.407 55.600,59.171 55.600 C 58.618 55.600,57.600 56.618,57.600 57.171 C 57.600 57.407,57.407 57.600,57.171 57.600 C 56.618 57.600,55.600 58.618,55.600 59.171 C 55.600 59.407,55.407 59.600,55.171 59.600 C 54.618 59.600,53.600 60.618,53.600 61.171 C 53.600 61.407,53.407 61.600,53.171 61.600 C 52.618 61.600,51.600 62.618,51.600 63.171 C 51.600 63.407,51.330 63.600,51.000 63.600 C 50.660 63.600,50.400 63.959,50.400 64.429 C 50.400 65.314,49.534 66.400,48.829 66.400 C 48.593 66.400,48.400 66.593,48.400 66.829 C 48.400 67.382,47.382 68.400,46.829 68.400 C 46.593 68.400,46.400 68.593,46.400 68.829 C 46.400 69.382,45.382 70.400,44.829 70.400 C 44.593 70.400,44.400 70.850,44.400 71.400 C 44.400 71.950,44.220 72.400,44.000 72.400 C 43.780 72.400,43.600 72.670,43.600 73.000 C 43.600 73.330,43.407 73.600,43.171 73.600 C 42.618 73.600,41.600 74.618,41.600 75.171 C 41.600 75.407,41.407 75.600,41.171 75.600 C 40.466 75.600,39.600 76.686,39.600 77.571 C 39.600 78.041,39.340 78.400,39.000 78.400 C 38.670 78.400,38.400 78.593,38.400 78.829 C 38.400 79.382,37.382 80.400,36.829 80.400 C 36.593 80.400,36.400 80.850,36.400 81.400 C 36.400 81.950,36.220 82.400,36.000 82.400 C 35.780 82.400,35.600 82.670,35.600 83.000 C 35.600 83.330,35.330 83.600,35.000 83.600 C 34.660 83.600,34.400 83.959,34.400 84.429 C 34.400 85.314,33.534 86.400,32.829 86.400 C 32.593 86.400,32.400 86.850,32.400 87.400 C 32.400 87.950,32.220 88.400,32.000 88.400 C 31.780 88.400,31.600 88.670,31.600 89.000 C 31.600 89.330,31.330 89.600,31.000 89.600 C 30.660 89.600,30.400 89.959,30.400 90.429 C 30.400 91.314,29.534 92.400,28.829 92.400 C 28.593 92.400,28.400 92.850,28.400 93.400 C 28.400 93.950,28.220 94.400,28.000 94.400 C 27.780 94.400,27.600 94.850,27.600 95.400 C 27.600 96.022,27.373 96.400,27.000 96.400 C 26.670 96.400,26.400 96.670,26.400 97.000 C 26.400 97.330,26.220 97.600,26.000 97.600 C 25.780 97.600,25.600 98.230,25.600 99.000 C 25.600 99.978,25.419 100.400,25.000 100.400 C 24.670 100.400,24.400 100.670,24.400 101.000 C 24.400 101.330,24.220 101.600,24.000 101.600 C 23.780 101.600,23.600 102.050,23.600 102.600 C 23.600 103.222,23.373 103.600,23.000 103.600 C 22.627 103.600,22.400 103.978,22.400 104.600 C 22.400 105.150,22.220 105.600,22.000 105.600 C 21.780 105.600,21.600 106.050,21.600 106.600 C 21.600 107.150,21.407 107.600,21.171 107.600 C 20.466 107.600,19.600 108.686,19.600 109.571 C 19.600 110.041,19.340 110.400,19.000 110.400 C 18.627 110.400,18.400 110.778,18.400 111.400 C 18.400 111.950,18.220 112.400,18.000 112.400 C 17.780 112.400,17.600 112.850,17.600 113.400 C 17.600 114.022,17.373 114.400,17.000 114.400 C 16.627 114.400,16.400 114.778,16.400 115.400 C 16.400 115.950,16.220 116.400,16.000 116.400 C 15.780 116.400,15.600 117.120,15.600 118.000 C 15.600 119.156,15.433 119.600,15.000 119.600 C 14.627 119.600,14.400 119.978,14.400 120.600 C 14.400 121.150,14.220 121.600,14.000 121.600 C 13.780 121.600,13.600 122.230,13.600 123.000 C 13.600 123.978,13.419 124.400,13.000 124.400 C 12.567 124.400,12.400 124.844,12.400 126.000 C 12.400 126.880,12.220 127.600,12.000 127.600 C 11.780 127.600,11.600 128.050,11.600 128.600 C 11.600 129.222,11.373 129.600,11.000 129.600 C 10.581 129.600,10.400 130.022,10.400 131.000 C 10.400 131.770,10.220 132.400,10.000 132.400 C 9.780 132.400,9.600 133.120,9.600 134.000 C 9.600 135.156,9.433 135.600,9.000 135.600 C 8.581 135.600,8.400 136.022,8.400 137.000 C 8.400 137.770,8.220 138.400,8.000 138.400 C 7.780 138.400,7.600 139.120,7.600 140.000 C 7.600 141.156,7.433 141.600,7.000 141.600 C 6.547 141.600,6.400 142.089,6.400 143.600 C 6.400 144.700,6.220 145.600,6.000 145.600 C 5.780 145.600,5.600 146.500,5.600 147.600 C 5.600 149.111,5.453 149.600,5.000 149.600 C 4.547 149.600,4.400 150.089,4.400 151.600 C 4.400 152.700,4.220 153.600,4.000 153.600 C 3.780 153.600,3.600 154.500,3.600 155.600 C 3.600 157.111,3.453 157.600,3.000 157.600 C 2.533 157.600,2.400 158.133,2.400 160.000 C 2.400 161.333,2.222 162.400,2.000 162.400 C 1.763 162.400,1.600 163.867,1.600 166.000 C 1.600 168.745,1.472 169.600,1.063 169.600 C 0.336 169.600,0.003 179.593,0.001 201.436 C -0.000 222.135,0.303 230.400,1.062 230.400 C 1.465 230.400,1.600 231.155,1.600 233.400 C 1.600 235.133,1.769 236.400,2.000 236.400 C 2.231 236.400,2.400 237.667,2.400 239.400 C 2.400 241.800,2.520 242.400,3.000 242.400 C 3.472 242.400,3.600 242.956,3.600 245.000 C 3.600 246.467,3.774 247.600,4.000 247.600 C 4.220 247.600,4.400 248.500,4.400 249.600 C 4.400 251.111,4.547 251.600,5.000 251.600 C 5.419 251.600,5.600 252.022,5.600 253.000 C 5.600 253.770,5.780 254.400,6.000 254.400 C 6.220 254.400,6.400 255.300,6.400 256.400 C 6.400 257.911,6.547 258.400,7.000 258.400 C 7.433 258.400,7.600 258.844,7.600 260.000 C 7.600 260.880,7.780 261.600,8.000 261.600 C 8.220 261.600,8.400 262.230,8.400 263.000 C 8.400 263.978,8.581 264.400,9.000 264.400 C 9.433 264.400,9.600 264.844,9.600 266.000 C 9.600 266.880,9.780 267.600,10.000 267.600 C 10.220 267.600,10.400 268.050,10.400 268.600 C 10.400 269.222,10.627 269.600,11.000 269.600 C 11.453 269.600,11.600 270.089,11.600 271.600 C 11.600 272.700,11.780 273.600,12.000 273.600 C 12.220 273.600,12.400 274.050,12.400 274.600 C 12.400 275.222,12.627 275.600,13.000 275.600 C 13.419 275.600,13.600 276.022,13.600 277.000 C 13.600 277.770,13.780 278.400,14.000 278.400 C 14.220 278.400,14.400 278.850,14.400 279.400 C 14.400 280.022,14.627 280.400,15.000 280.400 C 15.433 280.400,15.600 280.844,15.600 282.000 C 15.600 282.880,15.780 283.600,16.000 283.600 C 16.220 283.600,16.400 284.050,16.400 284.600 C 16.400 285.222,16.627 285.600,17.000 285.600 C 17.373 285.600,17.600 285.978,17.600 286.600 C 17.600 287.150,17.780 287.600,18.000 287.600 C 18.220 287.600,18.400 288.050,18.400 288.600 C 18.400 289.222,18.627 289.600,19.000 289.600 C 19.340 289.600,19.600 289.959,19.600 290.429 C 19.600 291.314,20.466 292.400,21.171 292.400 C 21.407 292.400,21.600 292.850,21.600 293.400 C 21.600 293.950,21.780 294.400,22.000 294.400 C 22.220 294.400,22.400 294.850,22.400 295.400 C 22.400 296.022,22.627 296.400,23.000 296.400 C 23.373 296.400,23.600 296.778,23.600 297.400 C 23.600 297.950,23.780 298.400,24.000 298.400 C 24.220 298.400,24.400 298.850,24.400 299.400 C 24.400 300.022,24.627 300.400,25.000 300.400 C 25.373 300.400,25.600 300.778,25.600 301.400 C 25.600 301.950,25.780 302.400,26.000 302.400 C 26.220 302.400,26.400 302.670,26.400 303.000 C 26.400 303.330,26.670 303.600,27.000 303.600 C 27.373 303.600,27.600 303.978,27.600 304.600 C 27.600 305.150,27.780 305.600,28.000 305.600 C 28.220 305.600,28.400 306.050,28.400 306.600 C 28.400 307.150,28.593 307.600,28.829 307.600 C 29.534 307.600,30.400 308.686,30.400 309.571 C 30.400 310.041,30.660 310.400,31.000 310.400 C 31.330 310.400,31.600 310.670,31.600 311.000 C 31.600 311.330,31.780 311.600,32.000 311.600 C 32.220 311.600,32.400 312.050,32.400 312.600 C 32.400 313.150,32.593 313.600,32.829 313.600 C 33.534 313.600,34.400 314.686,34.400 315.571 C 34.400 316.041,34.660 316.400,35.000 316.400 C 35.330 316.400,35.600 316.670,35.600 317.000 C 35.600 317.330,35.780 317.600,36.000 317.600 C 36.220 317.600,36.400 318.050,36.400 318.600 C 36.400 319.150,36.593 319.600,36.829 319.600 C 37.382 319.600,38.400 320.618,38.400 321.171 C 38.400 321.407,38.593 321.600,38.829 321.600 C 39.534 321.600,40.400 322.686,40.400 323.571 C 40.400 324.041,40.660 324.400,41.000 324.400 C 41.330 324.400,41.600 324.593,41.600 324.829 C 41.600 325.382,42.618 326.400,43.171 326.400 C 43.407 326.400,43.600 326.850,43.600 327.400 C 43.600 327.950,43.780 328.400,44.000 328.400 C 44.220 328.400,44.400 328.670,44.400 329.000 C 44.400 329.330,44.593 329.600,44.829 329.600 C 45.382 329.600,46.400 330.618,46.400 331.171 C 46.400 331.407,46.593 331.600,46.829 331.600 C 47.382 331.600,48.400 332.618,48.400 333.171 C 48.400 333.407,48.593 333.600,48.829 333.600 C 49.534 333.600,50.400 334.686,50.400 335.571 C 50.400 336.041,50.660 336.400,51.000 336.400 C 51.330 336.400,51.600 336.593,51.600 336.829 C 51.600 337.382,52.618 338.400,53.171 338.400 C 53.407 338.400,53.600 338.593,53.600 338.829 C 53.600 339.382,54.618 340.400,55.171 340.400 C 55.407 340.400,55.600 340.593,55.600 340.829 C 55.600 341.382,56.618 342.400,57.171 342.400 C 57.407 342.400,57.600 342.593,57.600 342.829 C 57.600 343.382,58.618 344.400,59.171 344.400 C 59.407 344.400,59.600 344.593,59.600 344.829 C 59.600 345.382,60.618 346.400,61.171 346.400 C 61.407 346.400,61.600 346.593,61.600 346.829 C 61.600 347.382,62.618 348.400,63.171 348.400 C 63.407 348.400,63.600 348.670,63.600 349.000 C 63.600 349.340,63.959 349.600,64.429 349.600 C 65.314 349.600,66.400 350.466,66.400 351.171 C 66.400 351.407,66.593 351.600,66.829 351.600 C 67.382 351.600,68.400 352.618,68.400 353.171 C 68.400 353.407,68.593 353.600,68.829 353.600 C 69.382 353.600,70.400 354.618,70.400 355.171 C 70.400 355.407,70.670 355.600,71.000 355.600 C 71.330 355.600,71.600 355.780,71.600 356.000 C 71.600 356.220,72.050 356.400,72.600 356.400 C 73.150 356.400,73.600 356.593,73.600 356.829 C 73.600 357.382,74.618 358.400,75.171 358.400 C 75.407 358.400,75.600 358.670,75.600 359.000 C 75.600 359.340,75.959 359.600,76.429 359.600 C 77.314 359.600,78.400 360.466,78.400 361.171 C 78.400 361.407,78.670 361.600,79.000 361.600 C 79.330 361.600,79.600 361.780,79.600 362.000 C 79.600 362.220,80.050 362.400,80.600 362.400 C 81.150 362.400,81.600 362.593,81.600 362.829 C 81.600 363.534,82.686 364.400,83.571 364.400 C 84.041 364.400,84.400 364.660,84.400 365.000 C 84.400 365.330,84.593 365.600,84.829 365.600 C 85.382 365.600,86.400 366.618,86.400 367.171 C 86.400 367.407,86.850 367.600,87.400 367.600 C 87.950 367.600,88.400 367.780,88.400 368.000 C 88.400 368.220,88.670 368.400,89.000 368.400 C 89.330 368.400,89.600 368.670,89.600 369.000 C 89.600 369.419,90.022 369.600,91.000 369.600 C 92.227 369.600,92.400 369.724,92.400 370.600 C 92.400 371.500,92.560 371.600,94.000 371.600 C 95.440 371.600,95.600 371.700,95.600 372.600 C 95.600 373.400,95.800 373.600,96.600 373.600 C 97.150 373.600,97.600 373.780,97.600 374.000 C 97.600 374.220,98.050 374.400,98.600 374.400 C 99.222 374.400,99.600 374.627,99.600 375.000 C 99.600 375.373,99.978 375.600,100.600 375.600 C 101.150 375.600,101.600 375.780,101.600 376.000 C 101.600 376.220,102.050 376.400,102.600 376.400 C 103.222 376.400,103.600 376.627,103.600 377.000 C 103.600 377.373,103.978 377.600,104.600 377.600 C 105.150 377.600,105.600 377.780,105.600 378.000 C 105.600 378.220,106.050 378.400,106.600 378.400 C 107.150 378.400,107.600 378.593,107.600 378.829 C 107.600 379.534,108.686 380.400,109.571 380.400 C 110.041 380.400,110.400 380.660,110.400 381.000 C 110.400 381.373,110.778 381.600,111.400 381.600 C 111.950 381.600,112.400 381.780,112.400 382.000 C 112.400 382.220,112.850 382.400,113.400 382.400 C 114.022 382.400,114.400 382.627,114.400 383.000 C 114.400 383.373,114.778 383.600,115.400 383.600 C 115.950 383.600,116.400 383.780,116.400 384.000 C 116.400 384.220,117.120 384.400,118.000 384.400 C 119.156 384.400,119.600 384.567,119.600 385.000 C 119.600 385.373,119.978 385.600,120.600 385.600 C 121.150 385.600,121.600 385.780,121.600 386.000 C 121.600 386.220,122.230 386.400,123.000 386.400 C 123.978 386.400,124.400 386.581,124.400 387.000 C 124.400 387.373,124.778 387.600,125.400 387.600 C 125.950 387.600,126.400 387.780,126.400 388.000 C 126.400 388.220,127.300 388.400,128.400 388.400 C 129.911 388.400,130.400 388.547,130.400 389.000 C 130.400 389.373,130.778 389.600,131.400 389.600 C 131.950 389.600,132.400 389.780,132.400 390.000 C 132.400 390.220,133.120 390.400,134.000 390.400 C 135.156 390.400,135.600 390.567,135.600 391.000 C 135.600 391.419,136.022 391.600,137.000 391.600 C 137.770 391.600,138.400 391.780,138.400 392.000 C 138.400 392.220,139.120 392.400,140.000 392.400 C 141.156 392.400,141.600 392.567,141.600 393.000 C 141.600 393.453,142.089 393.600,143.600 393.600 C 144.700 393.600,145.600 393.780,145.600 394.000 C 145.600 394.220,146.500 394.400,147.600 394.400 C 149.111 394.400,149.600 394.547,149.600 395.000 C 149.600 395.453,150.089 395.600,151.600 395.600 C 152.700 395.600,153.600 395.780,153.600 396.000 C 153.600 396.220,154.500 396.400,155.600 396.400 C 157.111 396.400,157.600 396.547,157.600 397.000 C 157.600 397.480,158.200 397.600,160.600 397.600 C 162.333 397.600,163.600 397.769,163.600 398.000 C 163.600 398.235,165.000 398.400,167.000 398.400 C 169.580 398.400,170.400 398.530,170.400 398.938 C 170.400 399.701,178.676 400.000,199.800 400.000 C 221.382 400.000,230.400 399.687,230.400 398.937 C 230.400 398.535,231.156 398.400,233.400 398.400 C 235.133 398.400,236.400 398.231,236.400 398.000 C 236.400 397.769,237.667 397.600,239.400 397.600 C 241.800 397.600,242.400 397.480,242.400 397.000 C 242.400 396.547,242.889 396.400,244.400 396.400 C 245.500 396.400,246.400 396.220,246.400 396.000 C 246.400 395.780,247.300 395.600,248.400 395.600 C 249.911 395.600,250.400 395.453,250.400 395.000 C 250.400 394.547,250.889 394.400,252.400 394.400 C 253.500 394.400,254.400 394.220,254.400 394.000 C 254.400 393.780,255.300 393.600,256.400 393.600 C 257.911 393.600,258.400 393.453,258.400 393.000 C 258.400 392.567,258.844 392.400,260.000 392.400 C 260.880 392.400,261.600 392.220,261.600 392.000 C 261.600 391.780,262.500 391.600,263.600 391.600 C 265.111 391.600,265.600 391.453,265.600 391.000 C 265.600 390.627,265.978 390.400,266.600 390.400 C 267.150 390.400,267.600 390.220,267.600 390.000 C 267.600 389.780,268.050 389.600,268.600 389.600 C 269.222 389.600,269.600 389.373,269.600 389.000 C 269.600 388.547,270.089 388.400,271.600 388.400 C 272.700 388.400,273.600 388.220,273.600 388.000 C 273.600 387.780,274.050 387.600,274.600 387.600 C 275.222 387.600,275.600 387.373,275.600 387.000 C 275.600 386.581,276.022 386.400,277.000 386.400 C 277.770 386.400,278.400 386.220,278.400 386.000 C 278.400 385.780,278.850 385.600,279.400 385.600 C 280.022 385.600,280.400 385.373,280.400 385.000 C 280.400 384.567,280.844 384.400,282.000 384.400 C 282.880 384.400,283.600 384.220,283.600 384.000 C 283.600 383.780,284.050 383.600,284.600 383.600 C 285.222 383.600,285.600 383.373,285.600 383.000 C 285.600 382.627,285.978 382.400,286.600 382.400 C 287.150 382.400,287.600 382.220,287.600 382.000 C 287.600 381.780,288.050 381.600,288.600 381.600 C 289.222 381.600,289.600 381.373,289.600 381.000 C 289.600 380.660,289.959 380.400,290.429 380.400 C 291.314 380.400,292.400 379.534,292.400 378.829 C 292.400 378.593,292.850 378.400,293.400 378.400 C 293.950 378.400,294.400 378.220,294.400 378.000 C 294.400 377.780,294.850 377.600,295.400 377.600 C 296.022 377.600,296.400 377.373,296.400 377.000 C 296.400 376.627,296.778 376.400,297.400 376.400 C 297.950 376.400,298.400 376.220,298.400 376.000 C 298.400 375.780,298.850 375.600,299.400 375.600 C 300.022 375.600,300.400 375.373,300.400 375.000 C 300.400 374.627,300.778 374.400,301.400 374.400 C 301.950 374.400,302.400 374.220,302.400 374.000 C 302.400 373.780,302.850 373.600,303.400 373.600 C 304.200 373.600,304.400 373.400,304.400 372.600 C 304.400 371.700,304.560 371.600,306.000 371.600 C 307.440 371.600,307.600 371.500,307.600 370.600 C 307.600 369.724,307.773 369.600,309.000 369.600 C 309.978 369.600,310.400 369.419,310.400 369.000 C 310.400 368.670,310.670 368.400,311.000 368.400 C 311.330 368.400,311.600 368.220,311.600 368.000 C 311.600 367.780,312.050 367.600,312.600 367.600 C 313.150 367.600,313.600 367.407,313.600 367.171 C 313.600 366.466,314.686 365.600,315.571 365.600 C 316.041 365.600,316.400 365.340,316.400 365.000 C 316.400 364.670,316.670 364.400,317.000 364.400 C 317.330 364.400,317.600 364.220,317.600 364.000 C 317.600 363.780,318.050 363.600,318.600 363.600 C 319.150 363.600,319.600 363.407,319.600 363.171 C 319.600 362.618,320.618 361.600,321.171 361.600 C 321.407 361.600,321.600 361.407,321.600 361.171 C 321.600 360.466,322.686 359.600,323.571 359.600 C 324.041 359.600,324.400 359.340,324.400 359.000 C 324.400 358.670,324.593 358.400,324.829 358.400 C 325.382 358.400,326.400 357.382,326.400 356.829 C 326.400 356.593,326.850 356.400,327.400 356.400 C 327.950 356.400,328.400 356.220,328.400 356.000 C 328.400 355.780,328.670 355.600,329.000 355.600 C 329.330 355.600,329.600 355.407,329.600 355.171 C 329.600 354.618,330.618 353.600,331.171 353.600 C 331.407 353.600,331.600 353.407,331.600 353.171 C 331.600 352.618,332.618 351.600,333.171 351.600 C 333.407 351.600,333.600 351.407,333.600 351.171 C 333.600 350.466,334.686 349.600,335.571 349.600 C 336.041 349.600,336.400 349.340,336.400 349.000 C 336.400 348.670,336.593 348.400,336.829 348.400 C 337.382 348.400,338.400 347.382,338.400 346.829 C 338.400 346.593,338.593 346.400,338.829 346.400 C 339.382 346.400,340.400 345.382,340.400 344.829 C 340.400 344.593,340.593 344.400,340.829 344.400 C 341.382 344.400,342.400 343.382,342.400 342.829 C 342.400 342.593,342.593 342.400,342.829 342.400 C 343.382 342.400,344.400 341.382,344.400 340.829 C 344.400 340.593,344.593 340.400,344.829 340.400 C 345.382 340.400,346.400 339.382,346.400 338.829 C 346.400 338.593,346.593 338.400,346.829 338.400 C 347.382 338.400,348.400 337.382,348.400 336.829 C 348.400 336.593,348.670 336.400,349.000 336.400 C 349.340 336.400,349.600 336.041,349.600 335.571 C 349.600 334.686,350.466 333.600,351.171 333.600 C 351.407 333.600,351.600 333.407,351.600 333.171 C 351.600 332.618,352.618 331.600,353.171 331.600 C 353.407 331.600,353.600 331.407,353.600 331.171 C 353.600 330.618,354.618 329.600,355.171 329.600 C 355.407 329.600,355.600 329.150,355.600 328.600 C 355.600 328.050,355.780 327.600,356.000 327.600 C 356.220 327.600,356.400 327.330,356.400 327.000 C 356.400 326.670,356.593 326.400,356.829 326.400 C 357.382 326.400,358.400 325.382,358.400 324.829 C 358.400 324.593,358.670 324.400,359.000 324.400 C 359.340 324.400,359.600 324.041,359.600 323.571 C 359.600 322.686,360.466 321.600,361.171 321.600 C 361.407 321.600,361.600 321.407,361.600 321.171 C 361.600 320.618,362.618 319.600,363.171 319.600 C 363.407 319.600,363.600 319.150,363.600 318.600 C 363.600 318.050,363.780 317.600,364.000 317.600 C 364.220 317.600,364.400 317.330,364.400 317.000 C 364.400 316.670,364.670 316.400,365.000 316.400 C 365.340 316.400,365.600 316.041,365.600 315.571 C 365.600 314.686,366.466 313.600,367.171 313.600 C 367.407 313.600,367.600 313.150,367.600 312.600 C 367.600 312.050,367.780 311.600,368.000 311.600 C 368.220 311.600,368.400 311.330,368.400 311.000 C 368.400 310.670,368.670 310.400,369.000 310.400 C 369.340 310.400,369.600 310.041,369.600 309.571 C 369.600 308.686,370.466 307.600,371.171 307.600 C 371.407 307.600,371.600 306.880,371.600 306.000 C 371.600 304.560,371.700 304.400,372.600 304.400 C 373.400 304.400,373.600 304.200,373.600 303.400 C 373.600 302.850,373.780 302.400,374.000 302.400 C 374.220 302.400,374.400 301.950,374.400 301.400 C 374.400 300.778,374.627 300.400,375.000 300.400 C 375.373 300.400,375.600 300.022,375.600 299.400 C 375.600 298.850,375.780 298.400,376.000 298.400 C 376.220 298.400,376.400 297.950,376.400 297.400 C 376.400 296.778,376.627 296.400,377.000 296.400 C 377.373 296.400,377.600 296.022,377.600 295.400 C 377.600 294.850,377.780 294.400,378.000 294.400 C 378.220 294.400,378.400 293.950,378.400 293.400 C 378.400 292.850,378.593 292.400,378.829 292.400 C 379.534 292.400,380.400 291.314,380.400 290.429 C 380.400 289.959,380.660 289.600,381.000 289.600 C 381.373 289.600,381.600 289.222,381.600 288.600 C 381.600 288.050,381.780 287.600,382.000 287.600 C 382.220 287.600,382.400 287.150,382.400 286.600 C 382.400 285.978,382.627 285.600,383.000 285.600 C 383.373 285.600,383.600 285.222,383.600 284.600 C 383.600 284.050,383.780 283.600,384.000 283.600 C 384.220 283.600,384.400 282.880,384.400 282.000 C 384.400 280.844,384.567 280.400,385.000 280.400 C 385.373 280.400,385.600 280.022,385.600 279.400 C 385.600 278.850,385.780 278.400,386.000 278.400 C 386.220 278.400,386.400 277.770,386.400 277.000 C 386.400 276.022,386.581 275.600,387.000 275.600 C 387.373 275.600,387.600 275.222,387.600 274.600 C 387.600 274.050,387.780 273.600,388.000 273.600 C 388.220 273.600,388.400 272.700,388.400 271.600 C 388.400 270.089,388.547 269.600,389.000 269.600 C 389.373 269.600,389.600 269.222,389.600 268.600 C 389.600 268.050,389.780 267.600,390.000 267.600 C 390.220 267.600,390.400 267.150,390.400 266.600 C 390.400 265.978,390.627 265.600,391.000 265.600 C 391.453 265.600,391.600 265.111,391.600 263.600 C 391.600 262.500,391.780 261.600,392.000 261.600 C 392.220 261.600,392.400 260.880,392.400 260.000 C 392.400 258.844,392.567 258.400,393.000 258.400 C 393.453 258.400,393.600 257.911,393.600 256.400 C 393.600 255.300,393.780 254.400,394.000 254.400 C 394.220 254.400,394.400 253.770,394.400 253.000 C 394.400 252.022,394.581 251.600,395.000 251.600 C 395.472 251.600,395.600 251.044,395.600 249.000 C 395.600 247.533,395.774 246.400,396.000 246.400 C 396.220 246.400,396.400 245.500,396.400 244.400 C 396.400 242.889,396.547 242.400,397.000 242.400 C 397.480 242.400,397.600 241.800,397.600 239.400 C 397.600 237.667,397.769 236.400,398.000 236.400 C 398.231 236.400,398.400 235.133,398.400 233.400 C 398.400 231.156,398.535 230.400,398.937 230.400 C 399.689 230.400,400.000 221.366,399.999 199.636 C 399.997 177.683,399.682 168.400,398.937 168.400 C 398.535 168.400,398.400 167.644,398.400 165.400 C 398.400 163.667,398.231 162.400,398.000 162.400 C 397.769 162.400,397.600 161.133,397.600 159.400 C 397.600 157.000,397.480 156.400,397.000 156.400 C 396.547 156.400,396.400 155.911,396.400 154.400 C 396.400 153.300,396.220 152.400,396.000 152.400 C 395.780 152.400,395.600 151.500,395.600 150.400 C 395.600 148.889,395.453 148.400,395.000 148.400 C 394.581 148.400,394.400 147.978,394.400 147.000 C 394.400 146.230,394.220 145.600,394.000 145.600 C 393.780 145.600,393.600 144.700,393.600 143.600 C 393.600 142.089,393.453 141.600,393.000 141.600 C 392.567 141.600,392.400 141.156,392.400 140.000 C 392.400 139.120,392.220 138.400,392.000 138.400 C 391.780 138.400,391.600 137.770,391.600 137.000 C 391.600 136.022,391.419 135.600,391.000 135.600 C 390.567 135.600,390.400 135.156,390.400 134.000 C 390.400 133.120,390.220 132.400,390.000 132.400 C 389.780 132.400,389.600 131.950,389.600 131.400 C 389.600 130.778,389.373 130.400,389.000 130.400 C 388.581 130.400,388.400 129.978,388.400 129.000 C 388.400 128.230,388.220 127.600,388.000 127.600 C 387.780 127.600,387.600 126.880,387.600 126.000 C 387.600 124.844,387.433 124.400,387.000 124.400 C 386.581 124.400,386.400 123.978,386.400 123.000 C 386.400 122.230,386.220 121.600,386.000 121.600 C 385.780 121.600,385.600 121.150,385.600 120.600 C 385.600 119.978,385.373 119.600,385.000 119.600 C 384.567 119.600,384.400 119.156,384.400 118.000 C 384.400 117.120,384.220 116.400,384.000 116.400 C 383.780 116.400,383.600 115.950,383.600 115.400 C 383.600 114.778,383.373 114.400,383.000 114.400 C 382.627 114.400,382.400 114.022,382.400 113.400 C 382.400 112.850,382.220 112.400,382.000 112.400 C 381.780 112.400,381.600 111.950,381.600 111.400 C 381.600 110.778,381.373 110.400,381.000 110.400 C 380.660 110.400,380.400 110.041,380.400 109.571 C 380.400 108.686,379.534 107.600,378.829 107.600 C 378.593 107.600,378.400 107.150,378.400 106.600 C 378.400 106.050,378.220 105.600,378.000 105.600 C 377.780 105.600,377.600 105.150,377.600 104.600 C 377.600 103.978,377.373 103.600,377.000 103.600 C 376.627 103.600,376.400 103.222,376.400 102.600 C 376.400 102.050,376.220 101.600,376.000 101.600 C 375.780 101.600,375.600 101.150,375.600 100.600 C 375.600 99.978,375.373 99.600,375.000 99.600 C 374.627 99.600,374.400 99.222,374.400 98.600 C 374.400 98.050,374.220 97.600,374.000 97.600 C 373.780 97.600,373.600 97.150,373.600 96.600 C 373.600 95.800,373.400 95.600,372.600 95.600 C 371.700 95.600,371.600 95.440,371.600 94.000 C 371.600 93.120,371.407 92.400,371.171 92.400 C 370.466 92.400,369.600 91.314,369.600 90.429 C 369.600 89.959,369.340 89.600,369.000 89.600 C 368.670 89.600,368.400 89.330,368.400 89.000 C 368.400 88.670,368.220 88.400,368.000 88.400 C 367.780 88.400,367.600 87.950,367.600 87.400 C 367.600 86.850,367.407 86.400,367.171 86.400 C 366.466 86.400,365.600 85.314,365.600 84.429 C 365.600 83.959,365.340 83.600,365.000 83.600 C 364.670 83.600,364.400 83.330,364.400 83.000 C 364.400 82.670,364.220 82.400,364.000 82.400 C 363.780 82.400,363.600 81.950,363.600 81.400 C 363.600 80.850,363.407 80.400,363.171 80.400 C 362.618 80.400,361.600 79.382,361.600 78.829 C 361.600 78.593,361.330 78.400,361.000 78.400 C 360.660 78.400,360.400 78.041,360.400 77.571 C 360.400 76.686,359.534 75.600,358.829 75.600 C 358.593 75.600,358.400 75.407,358.400 75.171 C 358.400 74.618,357.382 73.600,356.829 73.600 C 356.593 73.600,356.400 73.330,356.400 73.000 C 356.400 72.670,356.220 72.400,356.000 72.400 C 355.780 72.400,355.600 71.950,355.600 71.400 C 355.600 70.850,355.407 70.400,355.171 70.400 C 354.618 70.400,353.600 69.382,353.600 68.829 C 353.600 68.593,353.407 68.400,353.171 68.400 C 352.618 68.400,351.600 67.382,351.600 66.829 C 351.600 66.593,351.407 66.400,351.171 66.400 C 350.466 66.400,349.600 65.314,349.600 64.429 C 349.600 63.959,349.340 63.600,349.000 63.600 C 348.670 63.600,348.400 63.407,348.400 63.171 C 348.400 62.618,347.382 61.600,346.829 61.600 C 346.593 61.600,346.400 61.407,346.400 61.171 C 346.400 60.618,345.382 59.600,344.829 59.600 C 344.593 59.600,344.400 59.407,344.400 59.171 C 344.400 58.618,343.382 57.600,342.829 57.600 C 342.593 57.600,342.400 57.407,342.400 57.171 C 342.400 56.618,341.382 55.600,340.829 55.600 C 340.593 55.600,340.400 55.407,340.400 55.171 C 340.400 54.618,339.382 53.600,338.829 53.600 C 338.593 53.600,338.400 53.407,338.400 53.171 C 338.400 52.618,337.382 51.600,336.829 51.600 C 336.593 51.600,336.400 51.407,336.400 51.171 C 336.400 50.618,335.382 49.600,334.829 49.600 C 334.593 49.600,334.400 49.330,334.400 49.000 C 334.400 48.660,334.041 48.400,333.571 48.400 C 332.686 48.400,331.600 47.534,331.600 46.829 C 331.600 46.593,331.407 46.400,331.171 46.400 C 330.618 46.400,329.600 45.382,329.600 44.829 C 329.600 44.593,329.330 44.400,329.000 44.400 C 328.670 44.400,328.400 44.220,328.400 44.000 C 328.400 43.780,327.950 43.600,327.400 43.600 C 326.850 43.600,326.400 43.407,326.400 43.171 C 326.400 42.618,325.382 41.600,324.829 41.600 C 324.593 41.600,324.400 41.407,324.400 41.171 C 324.400 40.466,323.314 39.600,322.429 39.600 C 321.959 39.600,321.600 39.340,321.600 39.000 C 321.600 38.670,321.407 38.400,321.171 38.400 C 320.618 38.400,319.600 37.382,319.600 36.829 C 319.600 36.593,319.150 36.400,318.600 36.400 C 318.050 36.400,317.600 36.220,317.600 36.000 C 317.600 35.780,317.330 35.600,317.000 35.600 C 316.670 35.600,316.400 35.330,316.400 35.000 C 316.400 34.660,316.041 34.400,315.571 34.400 C 314.686 34.400,313.600 33.534,313.600 32.829 C 313.600 32.593,313.150 32.400,312.600 32.400 C 312.050 32.400,311.600 32.220,311.600 32.000 C 311.600 31.780,311.330 31.600,311.000 31.600 C 310.670 31.600,310.400 31.330,310.400 31.000 C 310.400 30.660,310.041 30.400,309.571 30.400 C 308.686 30.400,307.600 29.534,307.600 28.829 C 307.600 28.593,306.880 28.400,306.000 28.400 C 304.560 28.400,304.400 28.300,304.400 27.400 C 304.400 26.600,304.200 26.400,303.400 26.400 C 302.850 26.400,302.400 26.220,302.400 26.000 C 302.400 25.780,301.950 25.600,301.400 25.600 C 300.778 25.600,300.400 25.373,300.400 25.000 C 300.400 24.627,300.022 24.400,299.400 24.400 C 298.850 24.400,298.400 24.220,298.400 24.000 C 298.400 23.780,297.950 23.600,297.400 23.600 C 296.778 23.600,296.400 23.373,296.400 23.000 C 296.400 22.627,296.022 22.400,295.400 22.400 C 294.850 22.400,294.400 22.220,294.400 22.000 C 294.400 21.780,293.950 21.600,293.400 21.600 C 292.850 21.600,292.400 21.407,292.400 21.171 C 292.400 20.466,291.314 19.600,290.429 19.600 C 289.959 19.600,289.600 19.340,289.600 19.000 C 289.600 18.627,289.222 18.400,288.600 18.400 C 288.050 18.400,287.600 18.220,287.600 18.000 C 287.600 17.780,287.150 17.600,286.600 17.600 C 285.978 17.600,285.600 17.373,285.600 17.000 C 285.600 16.627,285.222 16.400,284.600 16.400 C 284.050 16.400,283.600 16.220,283.600 16.000 C 283.600 15.780,282.880 15.600,282.000 15.600 C 280.844 15.600,280.400 15.433,280.400 15.000 C 280.400 14.581,279.978 14.400,279.000 14.400 C 278.230 14.400,277.600 14.220,277.600 14.000 C 277.600 13.780,277.150 13.600,276.600 13.600 C 275.978 13.600,275.600 13.373,275.600 13.000 C 275.600 12.567,275.156 12.400,274.000 12.400 C 273.120 12.400,272.400 12.220,272.400 12.000 C 272.400 11.780,271.770 11.600,271.000 11.600 C 270.022 11.600,269.600 11.419,269.600 11.000 C 269.600 10.627,269.222 10.400,268.600 10.400 C 268.050 10.400,267.600 10.220,267.600 10.000 C 267.600 9.780,266.880 9.600,266.000 9.600 C 264.844 9.600,264.400 9.433,264.400 9.000 C 264.400 8.581,263.978 8.400,263.000 8.400 C 262.230 8.400,261.600 8.220,261.600 8.000 C 261.600 7.780,260.880 7.600,260.000 7.600 C 258.844 7.600,258.400 7.433,258.400 7.000 C 258.400 6.547,257.911 6.400,256.400 6.400 C 255.300 6.400,254.400 6.220,254.400 6.000 C 254.400 5.780,253.770 5.600,253.000 5.600 C 252.022 5.600,251.600 5.419,251.600 5.000 C 251.600 4.547,251.111 4.400,249.600 4.400 C 248.500 4.400,247.600 4.220,247.600 4.000 C 247.600 3.769,246.333 3.600,244.600 3.600 C 242.200 3.600,241.600 3.480,241.600 3.000 C 241.600 2.528,241.044 2.400,239.000 2.400 C 237.533 2.400,236.400 2.226,236.400 2.000 C 236.400 1.765,235.000 1.600,233.000 1.600 C 230.422 1.600,229.600 1.470,229.600 1.063 C 229.600 0.142,194.035 -0.345,173.700 0.298 M266.400 120.000 C 266.400 120.220,267.120 120.400,268.000 120.400 C 269.156 120.400,269.600 120.567,269.600 121.000 C 269.600 121.419,270.022 121.600,271.000 121.600 C 271.770 121.600,272.400 121.780,272.400 122.000 C 272.400 122.220,272.850 122.400,273.400 122.400 C 274.022 122.400,274.400 122.627,274.400 123.000 C 274.400 123.373,274.778 123.600,275.400 123.600 C 275.950 123.600,276.400 123.780,276.400 124.000 C 276.400 124.220,276.850 124.400,277.400 124.400 C 278.022 124.400,278.400 124.627,278.400 125.000 C 278.400 125.373,278.778 125.600,279.400 125.600 C 279.950 125.600,280.400 125.780,280.400 126.000 C 280.400 126.220,280.850 126.400,281.400 126.400 C 282.022 126.400,282.400 126.627,282.400 127.000 C 282.400 127.373,282.778 127.600,283.400 127.600 C 283.950 127.600,284.400 127.780,284.400 128.000 C 284.400 128.220,284.670 128.400,285.000 128.400 C 285.330 128.400,285.600 128.593,285.600 128.829 C 285.600 129.382,286.618 130.400,287.171 130.400 C 287.407 130.400,287.600 130.593,287.600 130.829 C 287.600 131.382,288.618 132.400,289.171 132.400 C 289.407 132.400,289.600 132.670,289.600 133.000 C 289.600 133.486,290.244 133.600,293.000 133.600 C 295.756 133.600,296.400 133.486,296.400 133.000 C 296.400 132.547,296.889 132.400,298.400 132.400 C 299.500 132.400,300.400 132.220,300.400 132.000 C 300.400 131.780,301.120 131.600,302.000 131.600 C 303.156 131.600,303.600 131.433,303.600 131.000 C 303.600 130.554,304.070 130.400,305.429 130.400 C 307.191 130.400,308.400 129.760,308.400 128.829 C 308.400 128.581,309.244 128.400,310.400 128.400 C 311.500 128.400,312.400 128.220,312.400 128.000 C 312.400 127.780,312.850 127.600,313.400 127.600 C 314.022 127.600,314.400 127.373,314.400 127.000 C 314.400 126.627,314.778 126.400,315.400 126.400 C 315.950 126.400,316.400 126.220,316.400 126.000 C 316.400 125.780,316.670 125.600,317.000 125.600 C 317.419 125.600,317.600 126.022,317.600 127.000 C 317.600 127.978,317.419 128.400,317.000 128.400 C 316.627 128.400,316.400 128.778,316.400 129.400 C 316.400 129.950,316.220 130.400,316.000 130.400 C 315.780 130.400,315.600 130.670,315.600 131.000 C 315.600 131.330,315.407 131.600,315.171 131.600 C 314.618 131.600,313.600 132.618,313.600 133.171 C 313.600 133.407,313.330 133.600,313.000 133.600 C 312.660 133.600,312.400 133.959,312.400 134.429 C 312.400 135.314,311.534 136.400,310.829 136.400 C 310.593 136.400,310.400 136.593,310.400 136.829 C 310.400 137.382,309.382 138.400,308.829 138.400 C 308.593 138.400,308.400 138.593,308.400 138.829 C 308.400 139.382,307.382 140.400,306.829 140.400 C 306.593 140.400,306.400 140.593,306.400 140.829 C 306.400 141.382,305.382 142.400,304.829 142.400 C 304.593 142.400,304.400 142.593,304.400 142.829 C 304.400 143.534,303.314 144.400,302.429 144.400 C 301.959 144.400,301.600 144.660,301.600 145.000 C 301.600 145.330,301.330 145.600,301.000 145.600 C 300.581 145.600,300.400 146.022,300.400 147.000 L 300.400 148.400 303.000 148.400 C 304.467 148.400,305.600 148.226,305.600 148.000 C 305.600 147.765,307.000 147.600,309.000 147.600 C 311.756 147.600,312.400 147.486,312.400 147.000 C 312.400 146.567,312.844 146.400,314.000 146.400 C 314.880 146.400,315.600 146.220,315.600 146.000 C 315.600 145.780,316.230 145.600,317.000 145.600 C 317.978 145.600,318.400 145.419,318.400 145.000 C 318.400 144.547,318.889 144.400,320.400 144.400 C 321.500 144.400,322.400 144.220,322.400 144.000 C 322.400 143.780,322.670 143.600,323.000 143.600 C 323.330 143.600,323.600 143.780,323.600 144.000 C 323.600 144.220,323.330 144.400,323.000 144.400 C 322.670 144.400,322.400 144.593,322.400 144.829 C 322.400 145.382,321.382 146.400,320.829 146.400 C 320.593 146.400,320.400 146.593,320.400 146.829 C 320.400 147.382,319.382 148.400,318.829 148.400 C 318.593 148.400,318.400 148.670,318.400 149.000 C 318.400 149.330,318.220 149.600,318.000 149.600 C 317.780 149.600,317.600 150.050,317.600 150.600 C 317.600 151.222,317.373 151.600,317.000 151.600 C 316.670 151.600,316.400 151.780,316.400 152.000 C 316.400 152.220,315.950 152.400,315.400 152.400 C 314.850 152.400,314.400 152.593,314.400 152.829 C 314.400 153.382,313.382 154.400,312.829 154.400 C 312.593 154.400,312.400 154.593,312.400 154.829 C 312.400 155.382,311.382 156.400,310.829 156.400 C 310.593 156.400,310.400 156.593,310.400 156.829 C 310.400 157.382,309.382 158.400,308.829 158.400 C 308.593 158.400,308.400 158.593,308.400 158.829 C 308.400 159.382,307.382 160.400,306.829 160.400 C 306.593 160.400,306.400 160.670,306.400 161.000 C 306.400 161.340,306.041 161.600,305.571 161.600 C 303.723 161.600,303.600 162.197,303.600 171.171 C 303.600 178.397,303.514 179.600,303.000 179.600 C 302.503 179.600,302.400 180.356,302.400 184.000 C 302.400 186.667,302.242 188.400,302.000 188.400 C 301.769 188.400,301.600 189.667,301.600 191.400 C 301.600 193.800,301.480 194.400,301.000 194.400 C 300.528 194.400,300.400 194.956,300.400 197.000 C 300.400 198.467,300.226 199.600,300.000 199.600 C 299.780 199.600,299.600 200.230,299.600 201.000 C 299.600 201.978,299.419 202.400,299.000 202.400 C 298.547 202.400,298.400 202.889,298.400 204.400 C 298.400 205.500,298.220 206.400,298.000 206.400 C 297.780 206.400,297.600 207.120,297.600 208.000 C 297.600 209.156,297.433 209.600,297.000 209.600 C 296.581 209.600,296.400 210.022,296.400 211.000 C 296.400 211.770,296.220 212.400,296.000 212.400 C 295.780 212.400,295.600 212.850,295.600 213.400 C 295.600 214.022,295.373 214.400,295.000 214.400 C 294.567 214.400,294.400 214.844,294.400 216.000 C 294.400 216.880,294.220 217.600,294.000 217.600 C 293.780 217.600,293.600 218.230,293.600 219.000 C 293.600 219.978,293.419 220.400,293.000 220.400 C 292.627 220.400,292.400 220.778,292.400 221.400 C 292.400 221.950,292.220 222.400,292.000 222.400 C 291.780 222.400,291.600 223.120,291.600 224.000 C 291.600 225.156,291.433 225.600,291.000 225.600 C 290.627 225.600,290.400 225.978,290.400 226.600 C 290.400 227.150,290.220 227.600,290.000 227.600 C 289.780 227.600,289.600 228.230,289.600 229.000 C 289.600 229.978,289.419 230.400,289.000 230.400 C 288.670 230.400,288.400 230.670,288.400 231.000 C 288.400 231.330,288.220 231.600,288.000 231.600 C 287.780 231.600,287.600 232.050,287.600 232.600 C 287.600 233.222,287.373 233.600,287.000 233.600 C 286.660 233.600,286.400 233.959,286.400 234.429 C 286.400 235.314,285.534 236.400,284.829 236.400 C 284.593 236.400,284.400 236.850,284.400 237.400 C 284.400 237.950,284.220 238.400,284.000 238.400 C 283.780 238.400,283.600 238.850,283.600 239.400 C 283.600 240.022,283.373 240.400,283.000 240.400 C 282.627 240.400,282.400 240.778,282.400 241.400 C 282.400 241.950,282.220 242.400,282.000 242.400 C 281.780 242.400,281.600 242.670,281.600 243.000 C 281.600 243.330,281.330 243.600,281.000 243.600 C 280.660 243.600,280.400 243.959,280.400 244.429 C 280.400 245.314,279.534 246.400,278.829 246.400 C 278.593 246.400,278.400 246.670,278.400 247.000 C 278.400 247.330,278.220 247.600,278.000 247.600 C 277.780 247.600,277.600 248.050,277.600 248.600 C 277.600 249.222,277.373 249.600,277.000 249.600 C 276.627 249.600,276.400 249.978,276.400 250.600 C 276.400 251.400,276.200 251.600,275.400 251.600 C 274.655 251.600,274.400 251.811,274.400 252.429 C 274.400 253.314,273.534 254.400,272.829 254.400 C 272.593 254.400,272.400 254.670,272.400 255.000 C 272.400 255.330,272.220 255.600,272.000 255.600 C 271.780 255.600,271.600 256.050,271.600 256.600 C 271.600 257.400,271.400 257.600,270.600 257.600 C 269.800 257.600,269.600 257.800,269.600 258.600 C 269.600 259.150,269.407 259.600,269.171 259.600 C 268.618 259.600,267.600 260.618,267.600 261.171 C 267.600 261.407,267.407 261.600,267.171 261.600 C 266.618 261.600,265.600 262.618,265.600 263.171 C 265.600 263.407,265.407 263.600,265.171 263.600 C 264.618 263.600,263.600 264.618,263.600 265.171 C 263.600 265.407,263.407 265.600,263.171 265.600 C 262.618 265.600,261.600 266.618,261.600 267.171 C 261.600 267.407,261.407 267.600,261.171 267.600 C 260.618 267.600,259.600 268.618,259.600 269.171 C 259.600 269.407,259.330 269.600,259.000 269.600 C 258.670 269.600,258.400 269.780,258.400 270.000 C 258.400 270.220,257.950 270.400,257.400 270.400 C 256.850 270.400,256.400 270.593,256.400 270.829 C 256.400 271.382,255.382 272.400,254.829 272.400 C 254.593 272.400,254.400 272.593,254.400 272.829 C 254.400 273.382,253.382 274.400,252.829 274.400 C 252.593 274.400,252.400 274.593,252.400 274.829 C 252.400 275.534,251.314 276.400,250.429 276.400 C 249.959 276.400,249.600 276.660,249.600 277.000 C 249.600 277.330,249.407 277.600,249.171 277.600 C 248.618 277.600,247.600 278.618,247.600 279.171 C 247.600 279.407,247.150 279.600,246.600 279.600 C 246.050 279.600,245.600 279.780,245.600 280.000 C 245.600 280.220,245.330 280.400,245.000 280.400 C 244.670 280.400,244.400 280.593,244.400 280.829 C 244.400 281.534,243.314 282.400,242.429 282.400 C 241.959 282.400,241.600 282.660,241.600 283.000 C 241.600 283.330,241.330 283.600,241.000 283.600 C 240.670 283.600,240.400 283.780,240.400 284.000 C 240.400 284.220,239.770 284.400,239.000 284.400 C 238.022 284.400,237.600 284.581,237.600 285.000 C 237.600 285.330,237.330 285.600,237.000 285.600 C 236.670 285.600,236.400 285.780,236.400 286.000 C 236.400 286.220,235.950 286.400,235.400 286.400 C 234.778 286.400,234.400 286.627,234.400 287.000 C 234.400 287.373,234.022 287.600,233.400 287.600 C 232.850 287.600,232.400 287.780,232.400 288.000 C 232.400 288.220,231.950 288.400,231.400 288.400 C 230.778 288.400,230.400 288.627,230.400 289.000 C 230.400 289.373,230.022 289.600,229.400 289.600 C 228.850 289.600,228.400 289.780,228.400 290.000 C 228.400 290.220,227.950 290.400,227.400 290.400 C 226.778 290.400,226.400 290.627,226.400 291.000 C 226.400 291.373,226.022 291.600,225.400 291.600 C 224.850 291.600,224.400 291.780,224.400 292.000 C 224.400 292.220,223.950 292.400,223.400 292.400 C 222.778 292.400,222.400 292.627,222.400 293.000 C 222.400 293.373,222.022 293.600,221.400 293.600 C 220.850 293.600,220.400 293.780,220.400 294.000 C 220.400 294.220,219.500 294.400,218.400 294.400 C 216.889 294.400,216.400 294.547,216.400 295.000 C 216.400 295.419,215.978 295.600,215.000 295.600 C 214.230 295.600,213.600 295.780,213.600 296.000 C 213.600 296.220,213.150 296.400,212.600 296.400 C 211.978 296.400,211.600 296.627,211.600 297.000 C 211.600 297.453,211.111 297.600,209.600 297.600 C 208.500 297.600,207.600 297.780,207.600 298.000 C 207.600 298.220,206.700 298.400,205.600 298.400 C 204.089 298.400,203.600 298.547,203.600 299.000 C 203.600 299.453,203.111 299.600,201.600 299.600 C 200.500 299.600,199.600 299.780,199.600 300.000 C 199.600 300.226,198.467 300.400,197.000 300.400 C 194.956 300.400,194.400 300.528,194.400 301.000 C 194.400 301.486,193.756 301.600,191.000 301.600 C 189.000 301.600,187.600 301.765,187.600 302.000 C 187.600 302.260,182.133 302.400,172.000 302.400 C 161.867 302.400,156.400 302.260,156.400 302.000 C 156.400 301.765,155.000 301.600,153.000 301.600 C 150.244 301.600,149.600 301.486,149.600 301.000 C 149.600 300.528,149.044 300.400,147.000 300.400 C 145.533 300.400,144.400 300.226,144.400 300.000 C 144.400 299.780,143.500 299.600,142.400 299.600 C 140.889 299.600,140.400 299.453,140.400 299.000 C 140.400 298.581,139.978 298.400,139.000 298.400 C 138.230 298.400,137.600 298.220,137.600 298.000 C 137.600 297.780,136.700 297.600,135.600 297.600 C 134.089 297.600,133.600 297.453,133.600 297.000 C 133.600 296.567,133.156 296.400,132.000 296.400 C 131.120 296.400,130.400 296.220,130.400 296.000 C 130.400 295.780,129.770 295.600,129.000 295.600 C 128.022 295.600,127.600 295.419,127.600 295.000 C 127.600 294.567,127.156 294.400,126.000 294.400 C 125.120 294.400,124.400 294.220,124.400 294.000 C 124.400 293.780,123.950 293.600,123.400 293.600 C 122.778 293.600,122.400 293.373,122.400 293.000 C 122.400 292.581,121.978 292.400,121.000 292.400 C 120.230 292.400,119.600 292.220,119.600 292.000 C 119.600 291.780,119.150 291.600,118.600 291.600 C 117.978 291.600,117.600 291.373,117.600 291.000 C 117.600 290.567,117.156 290.400,116.000 290.400 C 115.120 290.400,114.400 290.220,114.400 290.000 C 114.400 289.780,113.950 289.600,113.400 289.600 C 112.778 289.600,112.400 289.373,112.400 289.000 C 112.400 288.660,112.041 288.400,111.571 288.400 C 110.686 288.400,109.600 287.534,109.600 286.829 C 109.600 286.593,109.150 286.400,108.600 286.400 C 108.050 286.400,107.600 286.220,107.600 286.000 C 107.600 285.778,108.667 285.600,110.000 285.600 C 111.867 285.600,112.400 285.467,112.400 285.000 C 112.400 284.491,113.400 284.400,119.000 284.400 C 123.133 284.400,125.600 284.251,125.600 284.000 C 125.600 283.778,126.667 283.600,128.000 283.600 C 129.867 283.600,130.400 283.467,130.400 283.000 C 130.400 282.528,130.956 282.400,133.000 282.400 C 134.467 282.400,135.600 282.226,135.600 282.000 C 135.600 281.780,136.230 281.600,137.000 281.600 C 137.978 281.600,138.400 281.419,138.400 281.000 C 138.400 280.567,138.844 280.400,140.000 280.400 C 140.880 280.400,141.600 280.220,141.600 280.000 C 141.600 279.780,142.230 279.600,143.000 279.600 C 143.978 279.600,144.400 279.419,144.400 279.000 C 144.400 278.627,144.778 278.400,145.400 278.400 C 145.950 278.400,146.400 278.220,146.400 278.000 C 146.400 277.780,147.120 277.600,148.000 277.600 C 149.156 277.600,149.600 277.433,149.600 277.000 C 149.600 276.627,149.978 276.400,150.600 276.400 C 151.150 276.400,151.600 276.220,151.600 276.000 C 151.600 275.780,152.050 275.600,152.600 275.600 C 153.222 275.600,153.600 275.373,153.600 275.000 C 153.600 274.660,153.959 274.400,154.429 274.400 C 155.314 274.400,156.400 273.534,156.400 272.829 C 156.400 272.593,157.043 272.400,157.829 272.400 C 159.226 272.400,160.400 271.683,160.400 270.829 C 160.400 270.593,160.850 270.400,161.400 270.400 C 161.950 270.400,162.400 270.220,162.400 270.000 C 162.400 269.780,162.850 269.600,163.400 269.600 C 164.022 269.600,164.400 269.373,164.400 269.000 C 164.400 268.670,164.593 268.400,164.829 268.400 C 165.382 268.400,166.400 267.382,166.400 266.829 C 166.400 266.593,166.850 266.400,167.400 266.400 C 167.950 266.400,168.400 266.220,168.400 266.000 C 168.400 265.780,168.670 265.600,169.000 265.600 C 169.433 265.600,169.600 265.156,169.600 264.000 L 169.600 262.400 167.600 262.400 C 166.500 262.400,165.600 262.220,165.600 262.000 C 165.600 261.769,164.333 261.600,162.600 261.600 C 160.200 261.600,159.600 261.480,159.600 261.000 C 159.600 260.547,159.111 260.400,157.600 260.400 C 156.500 260.400,155.600 260.220,155.600 260.000 C 155.600 259.780,155.150 259.600,154.600 259.600 C 153.978 259.600,153.600 259.373,153.600 259.000 C 153.600 258.627,153.222 258.400,152.600 258.400 C 152.050 258.400,151.600 258.220,151.600 258.000 C 151.600 257.780,151.150 257.600,150.600 257.600 C 149.978 257.600,149.600 257.373,149.600 257.000 C 149.600 256.627,149.222 256.400,148.600 256.400 C 148.050 256.400,147.600 256.220,147.600 256.000 C 147.600 255.780,147.150 255.600,146.600 255.600 C 145.978 255.600,145.600 255.373,145.600 255.000 C 145.600 254.670,145.330 254.400,145.000 254.400 C 144.670 254.400,144.400 254.220,144.400 254.000 C 144.400 253.780,143.950 253.600,143.400 253.600 C 142.850 253.600,142.400 253.407,142.400 253.171 C 142.400 252.618,141.382 251.600,140.829 251.600 C 140.593 251.600,140.400 251.407,140.400 251.171 C 140.400 250.936,140.143 250.486,139.829 250.171 C 139.514 249.857,139.064 249.600,138.829 249.600 C 138.593 249.600,138.400 249.407,138.400 249.171 C 138.400 248.618,137.382 247.600,136.829 247.600 C 136.593 247.600,136.400 247.407,136.400 247.171 C 136.400 246.936,136.143 246.486,135.829 246.171 C 135.514 245.857,135.064 245.600,134.829 245.600 C 134.593 245.600,134.400 245.407,134.400 245.171 C 134.400 244.936,134.143 244.486,133.829 244.171 C 133.514 243.857,133.064 243.600,132.829 243.600 C 132.593 243.600,132.400 243.330,132.400 243.000 C 132.400 242.670,132.220 242.400,132.000 242.400 C 131.780 242.400,131.600 241.950,131.600 241.400 C 131.600 240.850,131.407 240.400,131.171 240.400 C 130.317 240.400,129.600 239.226,129.600 237.829 C 129.600 236.825,129.421 236.400,129.000 236.400 C 128.627 236.400,128.400 236.022,128.400 235.400 C 128.400 234.850,128.220 234.400,128.000 234.400 C 127.780 234.400,127.600 233.950,127.600 233.400 L 127.600 232.400 135.600 232.400 C 140.667 232.400,143.600 232.253,143.600 232.000 C 143.600 231.780,144.230 231.600,145.000 231.600 C 146.367 231.600,146.400 231.562,146.400 230.000 C 146.400 228.560,146.300 228.400,145.400 228.400 C 144.850 228.400,144.400 228.220,144.400 228.000 C 144.400 227.780,143.500 227.600,142.400 227.600 C 140.889 227.600,140.400 227.453,140.400 227.000 C 140.400 226.581,139.978 226.400,139.000 226.400 C 138.230 226.400,137.600 226.220,137.600 226.000 C 137.600 225.780,137.150 225.600,136.600 225.600 C 135.978 225.600,135.600 225.373,135.600 225.000 C 135.600 224.627,135.222 224.400,134.600 224.400 C 134.050 224.400,133.600 224.220,133.600 224.000 C 133.600 223.780,133.330 223.600,133.000 223.600 C 132.670 223.600,132.400 223.330,132.400 223.000 C 132.400 222.627,132.022 222.400,131.400 222.400 C 130.850 222.400,130.400 222.220,130.400 222.000 C 130.400 221.780,129.950 221.600,129.400 221.600 C 128.850 221.600,128.400 221.407,128.400 221.171 C 128.400 220.618,127.382 219.600,126.829 219.600 C 126.593 219.600,126.400 219.407,126.400 219.171 C 126.400 218.618,125.382 217.600,124.829 217.600 C 124.593 217.600,124.400 217.407,124.400 217.171 C 124.400 216.618,123.382 215.600,122.829 215.600 C 122.593 215.600,122.400 215.407,122.400 215.171 C 122.400 214.618,121.382 213.600,120.829 213.600 C 120.593 213.600,120.400 213.407,120.400 213.171 C 120.400 212.618,119.382 211.600,118.829 211.600 C 118.593 211.600,118.400 211.150,118.400 210.600 C 118.400 210.050,118.220 209.600,118.000 209.600 C 117.780 209.600,117.600 209.330,117.600 209.000 C 117.600 208.670,117.407 208.400,117.171 208.400 C 116.317 208.400,115.600 207.226,115.600 205.829 C 115.600 204.825,115.421 204.400,115.000 204.400 C 114.627 204.400,114.400 204.022,114.400 203.400 C 114.400 202.850,114.220 202.400,114.000 202.400 C 113.780 202.400,113.600 201.950,113.600 201.400 C 113.600 200.778,113.373 200.400,113.000 200.400 C 112.581 200.400,112.400 199.978,112.400 199.000 C 112.400 198.230,112.220 197.600,112.000 197.600 C 111.780 197.600,111.600 196.880,111.600 196.000 C 111.600 194.844,111.433 194.400,111.000 194.400 C 110.627 194.400,110.400 194.022,110.400 193.400 C 110.400 192.850,110.220 192.400,110.000 192.400 C 109.769 192.400,109.600 191.133,109.600 189.400 C 109.600 186.467,109.622 186.400,110.600 186.400 C 111.222 186.400,111.600 186.627,111.600 187.000 C 111.600 187.419,112.022 187.600,113.000 187.600 C 113.770 187.600,114.400 187.780,114.400 188.000 C 114.400 188.220,115.120 188.400,116.000 188.400 C 117.156 188.400,117.600 188.567,117.600 189.000 C 117.600 189.480,118.200 189.600,120.600 189.600 C 122.333 189.600,123.600 189.769,123.600 190.000 C 123.600 190.235,125.000 190.400,127.000 190.400 L 130.400 190.400 130.400 189.000 C 130.400 188.230,130.220 187.600,130.000 187.600 C 129.780 187.600,129.600 187.330,129.600 187.000 C 129.600 186.670,129.330 186.400,129.000 186.400 C 128.670 186.400,128.400 186.220,128.400 186.000 C 128.400 185.780,127.950 185.600,127.400 185.600 C 126.850 185.600,126.400 185.407,126.400 185.171 C 126.400 184.618,125.382 183.600,124.829 183.600 C 124.593 183.600,124.400 183.407,124.400 183.171 C 124.400 182.618,123.382 181.600,122.829 181.600 C 122.593 181.600,122.400 181.407,122.400 181.171 C 122.400 180.618,121.382 179.600,120.829 179.600 C 120.593 179.600,120.400 179.150,120.400 178.600 C 120.400 178.050,120.220 177.600,120.000 177.600 C 119.780 177.600,119.600 177.330,119.600 177.000 C 119.600 176.670,119.407 176.400,119.171 176.400 C 118.618 176.400,117.600 175.382,117.600 174.829 C 117.600 174.593,117.330 174.400,117.000 174.400 C 116.627 174.400,116.400 174.022,116.400 173.400 C 116.400 172.850,116.220 172.400,116.000 172.400 C 115.780 172.400,115.600 171.950,115.600 171.400 C 115.600 170.778,115.373 170.400,115.000 170.400 C 114.581 170.400,114.400 169.978,114.400 169.000 C 114.400 168.230,114.220 167.600,114.000 167.600 C 113.780 167.600,113.600 167.150,113.600 166.600 C 113.600 165.978,113.373 165.600,113.000 165.600 C 112.567 165.600,112.400 165.156,112.400 164.000 C 112.400 163.120,112.220 162.400,112.000 162.400 C 111.780 162.400,111.600 161.770,111.600 161.000 C 111.600 160.022,111.419 159.600,111.000 159.600 C 110.520 159.600,110.400 159.000,110.400 156.600 C 110.400 154.867,110.231 153.600,110.000 153.600 C 109.774 153.600,109.600 152.467,109.600 151.000 C 109.600 149.533,109.774 148.400,110.000 148.400 C 110.235 148.400,110.400 147.000,110.400 145.000 C 110.400 142.244,110.514 141.600,111.000 141.600 C 111.453 141.600,111.600 141.111,111.600 139.600 C 111.600 138.500,111.780 137.600,112.000 137.600 C 112.220 137.600,112.400 136.880,112.400 136.000 C 112.400 134.844,112.567 134.400,113.000 134.400 C 113.419 134.400,113.600 133.978,113.600 133.000 C 113.600 132.230,113.780 131.600,114.000 131.600 C 114.220 131.600,114.400 131.150,114.400 130.600 C 114.400 130.050,114.593 129.600,114.829 129.600 C 115.382 129.600,116.400 130.618,116.400 131.171 C 116.400 131.407,116.670 131.600,117.000 131.600 C 117.340 131.600,117.600 131.959,117.600 132.429 C 117.600 133.314,118.466 134.400,119.171 134.400 C 119.407 134.400,119.600 134.593,119.600 134.829 C 119.600 135.382,120.618 136.400,121.171 136.400 C 121.407 136.400,121.600 136.593,121.600 136.829 C 121.600 137.382,122.618 138.400,123.171 138.400 C 123.407 138.400,123.600 138.670,123.600 139.000 C 123.600 139.340,123.959 139.600,124.429 139.600 C 125.314 139.600,126.400 140.466,126.400 141.171 C 126.400 141.407,126.593 141.600,126.829 141.600 C 127.382 141.600,128.400 142.618,128.400 143.171 C 128.400 143.407,128.593 143.600,128.829 143.600 C 129.382 143.600,130.400 144.618,130.400 145.171 C 130.400 145.407,130.670 145.600,131.000 145.600 C 131.330 145.600,131.600 145.780,131.600 146.000 C 131.600 146.220,132.050 146.400,132.600 146.400 C 133.400 146.400,133.600 146.600,133.600 147.400 C 133.600 148.200,133.800 148.400,134.600 148.400 C 135.222 148.400,135.600 148.627,135.600 149.000 C 135.600 149.340,135.959 149.600,136.429 149.600 C 137.314 149.600,138.400 150.466,138.400 151.171 C 138.400 151.407,138.670 151.600,139.000 151.600 C 139.330 151.600,139.600 151.780,139.600 152.000 C 139.600 152.220,140.050 152.400,140.600 152.400 C 141.150 152.400,141.600 152.593,141.600 152.829 C 141.600 153.534,142.686 154.400,143.571 154.400 C 144.041 154.400,144.400 154.660,144.400 155.000 C 144.400 155.330,144.670 155.600,145.000 155.600 C 145.330 155.600,145.600 155.780,145.600 156.000 C 145.600 156.220,146.050 156.400,146.600 156.400 C 147.150 156.400,147.600 156.593,147.600 156.829 C 147.600 157.534,148.686 158.400,149.571 158.400 C 150.041 158.400,150.400 158.660,150.400 159.000 C 150.400 159.373,150.778 159.600,151.400 159.600 C 151.950 159.600,152.400 159.780,152.400 160.000 C 152.400 160.220,152.850 160.400,153.400 160.400 C 154.022 160.400,154.400 160.627,154.400 161.000 C 154.400 161.330,154.593 161.600,154.829 161.600 C 155.382 161.600,156.400 162.618,156.400 163.171 C 156.400 163.407,157.120 163.600,158.000 163.600 C 158.880 163.600,159.600 163.780,159.600 164.000 C 159.600 164.220,160.230 164.400,161.000 164.400 C 161.978 164.400,162.400 164.581,162.400 165.000 C 162.400 165.373,162.778 165.600,163.400 165.600 C 163.950 165.600,164.400 165.780,164.400 166.000 C 164.400 166.220,164.850 166.400,165.400 166.400 C 166.022 166.400,166.400 166.627,166.400 167.000 C 166.400 167.373,166.778 167.600,167.400 167.600 C 167.950 167.600,168.400 167.780,168.400 168.000 C 168.400 168.220,169.120 168.400,170.000 168.400 C 171.156 168.400,171.600 168.567,171.600 169.000 C 171.600 169.419,172.022 169.600,173.000 169.600 C 173.770 169.600,174.400 169.780,174.400 170.000 C 174.400 170.220,175.120 170.400,176.000 170.400 C 177.156 170.400,177.600 170.567,177.600 171.000 C 177.600 171.453,178.089 171.600,179.600 171.600 C 180.700 171.600,181.600 171.780,181.600 172.000 C 181.600 172.220,182.500 172.400,183.600 172.400 C 185.111 172.400,185.600 172.547,185.600 173.000 C 185.600 173.453,186.089 173.600,187.600 173.600 C 188.700 173.600,189.600 173.780,189.600 174.000 C 189.600 174.231,190.867 174.400,192.600 174.400 C 195.000 174.400,195.600 174.520,195.600 175.000 C 195.600 175.486,196.244 175.600,199.000 175.600 C 201.000 175.600,202.400 175.765,202.400 176.000 C 202.400 176.248,204.533 176.400,208.000 176.400 L 213.600 176.400 213.600 175.400 C 213.600 174.778,213.373 174.400,213.000 174.400 C 212.507 174.400,212.400 173.689,212.400 170.400 C 212.400 168.000,212.240 166.400,212.000 166.400 C 211.780 166.400,211.600 165.770,211.600 165.000 C 211.600 164.230,211.780 163.600,212.000 163.600 C 212.237 163.600,212.400 162.133,212.400 160.000 C 212.400 157.067,212.511 156.400,213.000 156.400 C 213.453 156.400,213.600 155.911,213.600 154.400 C 213.600 153.300,213.780 152.400,214.000 152.400 C 214.220 152.400,214.400 151.770,214.400 151.000 C 214.400 150.022,214.581 149.600,215.000 149.600 C 215.433 149.600,215.600 149.156,215.600 148.000 C 215.600 147.120,215.780 146.400,216.000 146.400 C 216.220 146.400,216.400 145.950,216.400 145.400 C 216.400 144.778,216.627 144.400,217.000 144.400 C 217.373 144.400,217.600 144.022,217.600 143.400 C 217.600 142.850,217.780 142.400,218.000 142.400 C 218.220 142.400,218.400 141.950,218.400 141.400 C 218.400 140.850,218.593 140.400,218.829 140.400 C 219.382 140.400,220.400 139.382,220.400 138.829 C 220.400 138.593,220.593 138.400,220.829 138.400 C 221.534 138.400,222.400 137.314,222.400 136.429 C 222.400 135.959,222.660 135.600,223.000 135.600 C 223.330 135.600,223.600 135.407,223.600 135.171 C 223.600 134.936,223.857 134.486,224.171 134.171 C 224.486 133.857,224.936 133.600,225.171 133.600 C 225.407 133.600,225.600 133.407,225.600 133.171 C 225.600 132.618,226.618 131.600,227.171 131.600 C 227.407 131.600,227.600 131.407,227.600 131.171 C 227.600 130.618,228.618 129.600,229.171 129.600 C 229.407 129.600,229.600 129.330,229.600 129.000 C 229.600 128.660,229.959 128.400,230.429 128.400 C 231.314 128.400,232.400 127.534,232.400 126.829 C 232.400 126.593,232.850 126.400,233.400 126.400 C 233.950 126.400,234.400 126.220,234.400 126.000 C 234.400 125.780,234.670 125.600,235.000 125.600 C 235.330 125.600,235.600 125.330,235.600 125.000 C 235.600 124.627,235.978 124.400,236.600 124.400 C 237.150 124.400,237.600 124.220,237.600 124.000 C 237.600 123.780,238.050 123.600,238.600 123.600 C 239.222 123.600,239.600 123.373,239.600 123.000 C 239.600 122.581,240.022 122.400,241.000 122.400 C 241.770 122.400,242.400 122.220,242.400 122.000 C 242.400 121.780,243.120 121.600,244.000 121.600 C 245.156 121.600,245.600 121.433,245.600 121.000 C 245.600 120.547,246.089 120.400,247.600 120.400 C 248.700 120.400,249.600 120.220,249.600 120.000 C 249.600 119.746,252.667 119.600,258.000 119.600 C 263.333 119.600,266.400 119.746,266.400 120.000 " stroke="none" fill="#1c2c34" fill-rule="evenodd"></path><path id="path1" d="" stroke="none" fill="#202c34" fill-rule="evenodd"></path><path id="path2" d="" stroke="none" fill="#202c34" fill-rule="evenodd"></path></g></svg>