<svg id="svg" version="1.1" xmlns="http://www.w3.org/2000/svg" xmlns:xlink="http://www.w3.org/1999/xlink" width="400" height="400" viewBox="0, 0, 400,400"><g id="svgg"><path id="path0" d="M179.100 0.275 C 177.175 0.361,175.600 0.604,175.600 0.816 C 175.600 1.029,174.180 1.200,172.400 1.200 C 170.533 1.200,169.200 1.367,169.200 1.600 C 169.200 1.822,168.133 2.000,166.800 2.000 C 165.467 2.000,164.400 2.178,164.400 2.400 C 164.400 2.620,163.500 2.800,162.400 2.800 C 161.300 2.800,160.400 2.980,160.400 3.200 C 160.400 3.420,159.590 3.600,158.600 3.600 C 157.610 3.600,156.800 3.780,156.800 4.000 C 156.800 4.220,156.080 4.400,155.200 4.400 C 154.320 4.400,153.600 4.580,153.600 4.800 C 153.600 5.020,152.880 5.200,152.000 5.200 C 151.120 5.200,150.400 5.380,150.400 5.600 C 150.400 5.820,149.680 6.000,148.800 6.000 C 147.920 6.000,147.200 6.180,147.200 6.400 C 147.200 6.620,146.480 6.800,145.600 6.800 C 144.720 6.800,144.000 6.980,144.000 7.200 C 144.000 7.420,143.550 7.600,143.000 7.600 C 142.450 7.600,142.000 7.759,142.000 7.954 C 142.000 8.149,141.013 8.431,139.806 8.582 C 138.600 8.733,137.509 9.023,137.383 9.228 C 137.256 9.433,136.623 9.600,135.976 9.600 C 135.329 9.600,134.800 9.780,134.800 10.000 C 134.800 10.220,134.260 10.400,133.600 10.400 C 132.940 10.400,132.400 10.580,132.400 10.800 C 132.400 11.020,131.860 11.200,131.200 11.200 C 130.540 11.200,130.000 11.380,130.000 11.600 C 130.000 11.820,129.640 12.000,129.200 12.000 C 128.760 12.000,128.400 12.180,128.400 12.400 C 128.400 12.620,127.961 12.800,127.424 12.800 C 126.887 12.800,126.336 12.980,126.200 13.200 C 126.064 13.420,125.513 13.600,124.976 13.600 C 124.439 13.600,124.000 13.780,124.000 14.000 C 124.000 14.220,123.640 14.400,123.200 14.400 C 122.760 14.400,122.400 14.580,122.400 14.800 C 122.400 15.020,122.040 15.200,121.600 15.200 C 121.160 15.200,120.800 15.380,120.800 15.600 C 120.800 15.820,120.260 16.000,119.600 16.000 C 118.940 16.000,118.400 16.180,118.400 16.400 C 118.400 16.620,118.040 16.800,117.600 16.800 C 117.160 16.800,116.800 16.980,116.800 17.200 C 116.800 17.420,116.440 17.600,116.000 17.600 C 115.560 17.600,115.200 17.780,115.200 18.000 C 115.200 18.220,114.840 18.400,114.400 18.400 C 113.960 18.400,113.600 18.580,113.600 18.800 C 113.600 19.020,113.240 19.200,112.800 19.200 C 112.360 19.200,112.000 19.380,112.000 19.600 C 112.000 19.820,111.640 20.000,111.200 20.000 C 110.760 20.000,110.400 20.146,110.400 20.325 C 110.400 20.504,109.770 20.898,109.000 21.200 C 108.230 21.502,107.600 21.896,107.600 22.075 C 107.600 22.254,107.240 22.400,106.800 22.400 C 106.360 22.400,106.000 22.580,106.000 22.800 C 106.000 23.020,105.640 23.200,105.200 23.200 C 104.760 23.200,104.400 23.380,104.400 23.600 C 104.400 23.820,104.055 24.000,103.633 24.000 C 103.212 24.000,102.807 24.146,102.733 24.324 C 102.573 24.714,98.424 26.800,97.810 26.800 C 97.572 26.800,97.117 27.160,96.800 27.600 C 96.483 28.040,95.903 28.400,95.512 28.400 C 95.120 28.400,94.800 28.580,94.800 28.800 C 94.800 29.020,94.558 29.200,94.262 29.200 C 93.966 29.200,93.398 29.560,93.000 30.000 C 92.602 30.440,92.074 30.800,91.826 30.800 C 91.579 30.800,91.117 31.160,90.800 31.600 C 90.483 32.040,89.943 32.400,89.600 32.400 C 89.257 32.400,88.717 32.760,88.400 33.200 C 88.083 33.640,87.543 34.000,87.200 34.000 C 86.857 34.000,86.317 34.360,86.000 34.800 C 85.683 35.240,85.175 35.600,84.872 35.600 C 84.569 35.600,83.817 36.140,83.200 36.800 C 82.583 37.460,81.863 38.000,81.600 38.000 C 81.337 38.000,80.617 38.540,80.000 39.200 C 79.383 39.860,78.673 40.400,78.421 40.400 C 78.170 40.400,77.514 40.850,76.964 41.400 C 76.414 41.950,75.780 42.400,75.556 42.400 C 75.332 42.400,74.271 43.300,73.200 44.400 C 72.129 45.500,71.052 46.400,70.807 46.400 C 70.562 46.400,69.119 47.660,67.600 49.200 C 66.081 50.740,64.641 52.000,64.400 52.000 C 64.159 52.000,62.706 53.305,61.171 54.900 C 57.798 58.405,58.405 57.798,54.900 61.171 C 53.305 62.706,52.000 64.159,52.000 64.400 C 52.000 64.641,50.740 66.081,49.200 67.600 C 47.660 69.119,46.400 70.562,46.400 70.807 C 46.400 71.052,45.500 72.129,44.400 73.200 C 43.300 74.271,42.400 75.332,42.400 75.556 C 42.400 75.780,41.950 76.414,41.400 76.964 C 40.850 77.514,40.400 78.170,40.400 78.421 C 40.400 78.673,39.860 79.383,39.200 80.000 C 38.540 80.617,38.000 81.337,38.000 81.600 C 38.000 81.863,37.460 82.583,36.800 83.200 C 36.140 83.817,35.600 84.569,35.600 84.872 C 35.600 85.175,35.240 85.683,34.800 86.000 C 34.360 86.317,34.000 86.857,34.000 87.200 C 34.000 87.543,33.640 88.083,33.200 88.400 C 32.760 88.717,32.400 89.257,32.400 89.600 C 32.400 89.943,32.040 90.483,31.600 90.800 C 31.160 91.117,30.800 91.579,30.800 91.826 C 30.800 92.074,30.440 92.602,30.000 93.000 C 29.560 93.398,29.200 93.966,29.200 94.262 C 29.200 94.558,29.020 94.800,28.800 94.800 C 28.580 94.800,28.400 95.120,28.400 95.512 C 28.400 95.903,28.040 96.483,27.600 96.800 C 27.160 97.117,26.800 97.554,26.800 97.770 C 26.800 98.466,24.671 102.800,24.330 102.800 C 24.148 102.800,24.000 103.160,24.000 103.600 C 24.000 104.040,23.820 104.400,23.600 104.400 C 23.380 104.400,23.200 104.760,23.200 105.200 C 23.200 105.640,23.020 106.000,22.800 106.000 C 22.580 106.000,22.400 106.360,22.400 106.800 C 22.400 107.240,22.254 107.600,22.075 107.600 C 21.896 107.600,21.502 108.230,21.200 109.000 C 20.898 109.770,20.504 110.400,20.325 110.400 C 20.146 110.400,20.000 110.760,20.000 111.200 C 20.000 111.640,19.820 112.000,19.600 112.000 C 19.380 112.000,19.200 112.360,19.200 112.800 C 19.200 113.240,19.020 113.600,18.800 113.600 C 18.580 113.600,18.400 113.960,18.400 114.400 C 18.400 114.840,18.220 115.200,18.000 115.200 C 17.780 115.200,17.600 115.560,17.600 116.000 C 17.600 116.440,17.420 116.800,17.200 116.800 C 16.980 116.800,16.800 117.160,16.800 117.600 C 16.800 118.040,16.620 118.400,16.400 118.400 C 16.180 118.400,16.000 118.940,16.000 119.600 C 16.000 120.260,15.820 120.800,15.600 120.800 C 15.380 120.800,15.200 121.160,15.200 121.600 C 15.200 122.040,15.020 122.400,14.800 122.400 C 14.580 122.400,14.400 122.760,14.400 123.200 C 14.400 123.640,14.220 124.000,14.000 124.000 C 13.780 124.000,13.600 124.439,13.600 124.976 C 13.600 125.513,13.420 126.064,13.200 126.200 C 12.980 126.336,12.800 126.887,12.800 127.424 C 12.800 127.961,12.620 128.400,12.400 128.400 C 12.180 128.400,12.000 128.760,12.000 129.200 C 12.000 129.640,11.820 130.000,11.600 130.000 C 11.380 130.000,11.200 130.540,11.200 131.200 C 11.200 131.860,11.020 132.400,10.800 132.400 C 10.580 132.400,10.400 132.940,10.400 133.600 C 10.400 134.260,10.220 134.800,10.000 134.800 C 9.780 134.800,9.600 135.329,9.600 135.976 C 9.600 136.623,9.433 137.256,9.228 137.383 C 9.023 137.509,8.733 138.600,8.582 139.806 C 8.431 141.013,8.149 142.000,7.954 142.000 C 7.759 142.000,7.600 142.450,7.600 143.000 C 7.600 143.550,7.420 144.000,7.200 144.000 C 6.980 144.000,6.800 144.720,6.800 145.600 C 6.800 146.480,6.620 147.200,6.400 147.200 C 6.180 147.200,6.000 147.920,6.000 148.800 C 6.000 149.680,5.820 150.400,5.600 150.400 C 5.380 150.400,5.200 151.120,5.200 152.000 C 5.200 152.880,5.020 153.600,4.800 153.600 C 4.580 153.600,4.400 154.320,4.400 155.200 C 4.400 156.080,4.220 156.800,4.000 156.800 C 3.780 156.800,3.600 157.610,3.600 158.600 C 3.600 159.590,3.420 160.400,3.200 160.400 C 2.980 160.400,2.800 161.300,2.800 162.400 C 2.800 163.500,2.620 164.400,2.400 164.400 C 2.178 164.400,2.000 165.467,2.000 166.800 C 2.000 168.133,1.822 169.200,1.600 169.200 C 1.370 169.200,1.200 170.440,1.200 172.120 C 1.200 173.923,1.009 175.231,0.700 175.540 C -0.031 176.271,-0.031 224.856,0.700 225.100 C 1.044 225.215,1.200 226.256,1.200 228.433 C 1.200 230.278,1.367 231.600,1.600 231.600 C 1.822 231.600,2.000 232.667,2.000 234.000 C 2.000 235.333,2.178 236.400,2.400 236.400 C 2.620 236.400,2.800 237.300,2.800 238.400 C 2.800 239.500,2.980 240.400,3.200 240.400 C 3.420 240.400,3.600 241.210,3.600 242.200 C 3.600 243.190,3.780 244.000,4.000 244.000 C 4.220 244.000,4.400 244.720,4.400 245.600 C 4.400 246.480,4.580 247.200,4.800 247.200 C 5.020 247.200,5.200 247.920,5.200 248.800 C 5.200 249.680,5.380 250.400,5.600 250.400 C 5.820 250.400,6.000 251.120,6.000 252.000 C 6.000 252.880,6.180 253.600,6.400 253.600 C 6.620 253.600,6.800 254.320,6.800 255.200 C 6.800 256.080,6.980 256.800,7.200 256.800 C 7.420 256.800,7.600 257.250,7.600 257.800 C 7.600 258.350,7.757 258.800,7.948 258.800 C 8.140 258.800,8.418 259.716,8.567 260.835 C 9.092 264.791,5.568 264.400,40.696 264.400 L 71.600 264.400 71.600 181.600 C 71.600 136.060,71.735 98.807,71.900 98.815 C 72.065 98.824,73.370 100.104,74.800 101.660 C 76.230 103.215,78.201 105.234,79.179 106.144 C 80.158 107.055,84.069 110.950,87.870 114.800 C 91.671 118.650,94.970 121.980,95.202 122.200 C 95.433 122.420,99.128 126.110,103.412 130.400 C 112.714 139.715,110.285 137.286,119.600 146.588 C 123.890 150.872,127.603 154.584,127.852 154.837 C 128.101 155.089,135.708 162.699,144.756 171.748 C 153.805 180.797,161.342 188.335,161.504 188.499 C 161.667 188.664,165.310 192.304,169.600 196.588 C 173.890 200.872,177.580 204.567,177.800 204.798 C 178.020 205.030,181.350 208.329,185.200 212.130 C 189.050 215.931,192.942 219.842,193.849 220.821 C 194.757 221.799,196.336 223.365,197.360 224.300 C 200.815 227.455,193.956 233.708,265.258 162.400 C 300.235 127.420,328.930 98.800,329.026 98.800 C 329.122 98.800,329.200 136.060,329.200 181.600 L 329.200 264.400 359.920 264.400 C 392.899 264.400,391.600 264.485,391.600 262.320 C 391.600 261.704,391.780 261.200,392.000 261.200 C 392.220 261.200,392.400 260.660,392.400 260.000 C 392.400 259.340,392.580 258.800,392.800 258.800 C 393.020 258.800,393.200 258.350,393.200 257.800 C 393.200 257.250,393.380 256.800,393.600 256.800 C 393.820 256.800,394.000 256.080,394.000 255.200 C 394.000 254.320,394.180 253.600,394.400 253.600 C 394.620 253.600,394.800 252.880,394.800 252.000 C 394.800 251.120,394.980 250.400,395.200 250.400 C 395.420 250.400,395.600 249.680,395.600 248.800 C 395.600 247.920,395.780 247.200,396.000 247.200 C 396.220 247.200,396.400 246.480,396.400 245.600 C 396.400 244.720,396.580 244.000,396.800 244.000 C 397.020 244.000,397.200 243.190,397.200 242.200 C 397.200 241.210,397.380 240.400,397.600 240.400 C 397.820 240.400,398.000 239.500,398.000 238.400 C 398.000 237.300,398.180 236.400,398.400 236.400 C 398.622 236.400,398.800 235.344,398.800 234.033 C 398.800 232.496,398.975 231.608,399.300 231.500 C 399.694 231.369,399.800 224.791,399.800 200.400 C 399.800 176.009,399.694 169.431,399.300 169.300 C 398.975 169.192,398.800 168.304,398.800 166.767 C 398.800 165.456,398.622 164.400,398.400 164.400 C 398.180 164.400,398.000 163.500,398.000 162.400 C 398.000 161.300,397.820 160.400,397.600 160.400 C 397.380 160.400,397.200 159.590,397.200 158.600 C 397.200 157.610,397.020 156.800,396.800 156.800 C 396.580 156.800,396.400 156.080,396.400 155.200 C 396.400 154.320,396.220 153.600,396.000 153.600 C 395.780 153.600,395.600 152.880,395.600 152.000 C 395.600 151.120,395.420 150.400,395.200 150.400 C 394.980 150.400,394.800 149.680,394.800 148.800 C 394.800 147.920,394.620 147.200,394.400 147.200 C 394.180 147.200,394.000 146.480,394.000 145.600 C 394.000 144.720,393.820 144.000,393.600 144.000 C 393.380 144.000,393.200 143.550,393.200 143.000 C 393.200 142.450,393.020 142.000,392.800 142.000 C 392.580 142.000,392.400 141.460,392.400 140.800 C 392.400 140.140,392.241 139.600,392.046 139.600 C 391.851 139.600,391.569 138.613,391.418 137.406 C 391.267 136.200,390.977 135.109,390.772 134.983 C 390.567 134.856,390.400 134.223,390.400 133.576 C 390.400 132.929,390.220 132.400,390.000 132.400 C 389.780 132.400,389.600 131.860,389.600 131.200 C 389.600 130.540,389.420 130.000,389.200 130.000 C 388.980 130.000,388.800 129.640,388.800 129.200 C 388.800 128.760,388.620 128.400,388.400 128.400 C 388.180 128.400,388.000 127.961,388.000 127.424 C 388.000 126.887,387.820 126.336,387.600 126.200 C 387.380 126.064,387.200 125.513,387.200 124.976 C 387.200 124.439,387.020 124.000,386.800 124.000 C 386.580 124.000,386.400 123.640,386.400 123.200 C 386.400 122.760,386.220 122.400,386.000 122.400 C 385.780 122.400,385.600 122.040,385.600 121.600 C 385.600 121.160,385.420 120.800,385.200 120.800 C 384.980 120.800,384.800 120.260,384.800 119.600 C 384.800 118.940,384.620 118.400,384.400 118.400 C 384.180 118.400,384.000 118.040,384.000 117.600 C 384.000 117.160,383.820 116.800,383.600 116.800 C 383.380 116.800,383.200 116.440,383.200 116.000 C 383.200 115.560,383.020 115.200,382.800 115.200 C 382.580 115.200,382.400 114.840,382.400 114.400 C 382.400 113.960,382.220 113.600,382.000 113.600 C 381.780 113.600,381.600 113.240,381.600 112.800 C 381.600 112.360,381.420 112.000,381.200 112.000 C 380.980 112.000,380.800 111.640,380.800 111.200 C 380.800 110.760,380.654 110.400,380.475 110.400 C 380.296 110.400,379.902 109.770,379.600 109.000 C 379.298 108.230,378.904 107.600,378.725 107.600 C 378.546 107.600,378.400 107.240,378.400 106.800 C 378.400 106.360,378.220 106.000,378.000 106.000 C 377.780 106.000,377.600 105.640,377.600 105.200 C 377.600 104.760,377.420 104.400,377.200 104.400 C 376.980 104.400,376.800 104.080,376.800 103.688 C 376.800 103.297,376.440 102.717,376.000 102.400 C 375.560 102.083,375.200 101.598,375.200 101.323 C 375.200 100.533,373.146 96.400,372.753 96.400 C 372.559 96.400,372.400 96.040,372.400 95.600 C 372.400 95.160,372.220 94.800,372.000 94.800 C 371.780 94.800,371.600 94.558,371.600 94.262 C 371.600 93.966,371.240 93.398,370.800 93.000 C 370.360 92.602,370.000 92.074,370.000 91.826 C 370.000 91.579,369.640 91.117,369.200 90.800 C 368.760 90.483,368.400 89.943,368.400 89.600 C 368.400 89.257,368.040 88.717,367.600 88.400 C 367.160 88.083,366.800 87.543,366.800 87.200 C 366.800 86.857,366.440 86.317,366.000 86.000 C 365.560 85.683,365.200 85.175,365.200 84.872 C 365.200 84.569,364.660 83.817,364.000 83.200 C 363.340 82.583,362.800 81.863,362.800 81.600 C 362.800 81.337,362.260 80.617,361.600 80.000 C 360.940 79.383,360.400 78.663,360.400 78.400 C 360.400 78.137,359.860 77.417,359.200 76.800 C 358.540 76.183,358.000 75.486,358.000 75.250 C 358.000 75.014,357.190 74.011,356.200 73.021 C 355.210 72.031,354.400 71.028,354.400 70.791 C 354.400 70.555,353.140 69.119,351.600 67.600 C 350.060 66.081,348.800 64.641,348.800 64.400 C 348.800 64.030,347.165 62.354,342.200 57.635 C 341.760 57.216,340.410 55.785,339.200 54.453 C 337.990 53.121,336.766 52.025,336.481 52.016 C 336.195 52.007,334.719 50.740,333.200 49.200 C 331.681 47.660,330.238 46.400,329.993 46.400 C 329.748 46.400,328.671 45.500,327.600 44.400 C 326.529 43.300,325.395 42.400,325.082 42.400 C 324.769 42.400,324.174 41.950,323.761 41.400 C 323.348 40.850,322.765 40.400,322.466 40.400 C 322.166 40.400,321.417 39.860,320.800 39.200 C 320.183 38.540,319.463 38.000,319.200 38.000 C 318.937 38.000,318.217 37.460,317.600 36.800 C 316.983 36.140,316.231 35.600,315.928 35.600 C 315.625 35.600,315.117 35.240,314.800 34.800 C 314.483 34.360,313.943 34.000,313.600 34.000 C 313.257 34.000,312.717 33.640,312.400 33.200 C 312.083 32.760,311.543 32.400,311.200 32.400 C 310.857 32.400,310.317 32.040,310.000 31.600 C 309.683 31.160,309.122 30.800,308.754 30.800 C 308.387 30.800,307.987 30.544,307.867 30.230 C 307.747 29.917,306.962 29.341,306.124 28.951 C 305.286 28.560,304.309 27.917,303.953 27.520 C 303.597 27.124,303.138 26.800,302.932 26.800 C 302.360 26.800,298.218 24.692,298.067 24.324 C 297.993 24.146,297.588 24.000,297.167 24.000 C 296.745 24.000,296.400 23.820,296.400 23.600 C 296.400 23.380,296.040 23.200,295.600 23.200 C 295.160 23.200,294.800 23.020,294.800 22.800 C 294.800 22.580,294.440 22.400,294.000 22.400 C 293.560 22.400,293.200 22.220,293.200 22.000 C 293.200 21.780,292.840 21.600,292.400 21.600 C 291.960 21.600,291.600 21.420,291.600 21.200 C 291.600 20.980,291.330 20.800,291.000 20.800 C 290.670 20.800,290.400 20.620,290.400 20.400 C 290.400 20.180,290.040 20.000,289.600 20.000 C 289.160 20.000,288.800 19.820,288.800 19.600 C 288.800 19.380,288.440 19.200,288.000 19.200 C 287.560 19.200,287.200 19.020,287.200 18.800 C 287.200 18.580,286.840 18.400,286.400 18.400 C 285.960 18.400,285.600 18.220,285.600 18.000 C 285.600 17.780,285.240 17.600,284.800 17.600 C 284.360 17.600,284.000 17.420,284.000 17.200 C 284.000 16.980,283.640 16.800,283.200 16.800 C 282.760 16.800,282.400 16.620,282.400 16.400 C 282.400 16.180,281.860 16.000,281.200 16.000 C 280.540 16.000,280.000 15.820,280.000 15.600 C 280.000 15.380,279.640 15.200,279.200 15.200 C 278.760 15.200,278.400 15.020,278.400 14.800 C 278.400 14.580,278.040 14.400,277.600 14.400 C 277.160 14.400,276.800 14.220,276.800 14.000 C 276.800 13.780,276.260 13.600,275.600 13.600 C 274.940 13.600,274.400 13.420,274.400 13.200 C 274.400 12.980,273.950 12.800,273.400 12.800 C 272.850 12.800,272.400 12.620,272.400 12.400 C 272.400 12.180,272.040 12.000,271.600 12.000 C 271.160 12.000,270.800 11.820,270.800 11.600 C 270.800 11.380,270.260 11.200,269.600 11.200 C 268.940 11.200,268.400 11.020,268.400 10.800 C 268.400 10.580,267.860 10.400,267.200 10.400 C 266.540 10.400,266.000 10.220,266.000 10.000 C 266.000 9.780,265.471 9.600,264.824 9.600 C 264.177 9.600,263.544 9.433,263.417 9.228 C 263.291 9.023,262.200 8.733,260.994 8.582 C 259.787 8.431,258.800 8.149,258.800 7.954 C 258.800 7.759,258.350 7.600,257.800 7.600 C 257.250 7.600,256.800 7.420,256.800 7.200 C 256.800 6.980,256.080 6.800,255.200 6.800 C 254.320 6.800,253.600 6.620,253.600 6.400 C 253.600 6.180,252.880 6.000,252.000 6.000 C 251.120 6.000,250.400 5.820,250.400 5.600 C 250.400 5.380,249.680 5.200,248.800 5.200 C 247.920 5.200,247.200 5.020,247.200 4.800 C 247.200 4.580,246.480 4.400,245.600 4.400 C 244.720 4.400,244.000 4.220,244.000 4.000 C 244.000 3.780,243.190 3.600,242.200 3.600 C 241.210 3.600,240.400 3.420,240.400 3.200 C 240.400 2.980,239.500 2.800,238.400 2.800 C 237.300 2.800,236.400 2.620,236.400 2.400 C 236.400 2.178,235.333 2.000,234.000 2.000 C 232.667 2.000,231.600 1.822,231.600 1.600 C 231.600 1.367,230.278 1.200,228.433 1.200 C 226.288 1.200,225.214 1.042,225.103 0.709 C 224.942 0.225,188.025 -0.124,179.100 0.275 " stroke="none" fill="#741c14" fill-rule="evenodd"></path><path id="path1" d="M112.800 250.400 L 112.800 303.600 70.600 303.600 L 28.400 303.600 28.400 304.800 C 28.400 305.460,28.580 306.000,28.800 306.000 C 29.020 306.000,29.200 306.268,29.200 306.597 C 29.200 306.925,29.560 307.418,30.000 307.693 C 30.440 307.968,30.800 308.469,30.800 308.808 C 30.800 309.146,31.160 309.683,31.600 310.000 C 32.040 310.317,32.400 310.857,32.400 311.200 C 32.400 311.543,32.760 312.083,33.200 312.400 C 33.640 312.717,34.000 313.257,34.000 313.600 C 34.000 313.943,34.360 314.483,34.800 314.800 C 35.240 315.117,35.600 315.625,35.600 315.928 C 35.600 316.231,36.140 316.983,36.800 317.600 C 37.460 318.217,38.000 318.937,38.000 319.200 C 38.000 319.463,38.540 320.183,39.200 320.800 C 39.860 321.417,40.400 322.127,40.400 322.379 C 40.400 322.630,40.850 323.286,41.400 323.836 C 41.950 324.386,42.400 325.020,42.400 325.244 C 42.400 325.468,43.300 326.529,44.400 327.600 C 45.500 328.671,46.400 329.748,46.400 329.993 C 46.400 330.238,47.660 331.681,49.200 333.200 C 50.740 334.719,52.000 336.160,52.000 336.403 C 52.000 336.646,53.125 337.914,54.500 339.222 C 57.542 342.115,57.701 342.274,61.179 345.900 C 62.709 347.495,64.159 348.800,64.400 348.800 C 64.641 348.800,66.081 350.060,67.600 351.600 C 69.119 353.140,70.555 354.400,70.791 354.400 C 71.028 354.400,72.031 355.210,73.021 356.200 C 74.011 357.190,75.014 358.000,75.250 358.000 C 75.486 358.000,76.183 358.540,76.800 359.200 C 77.417 359.860,78.137 360.400,78.400 360.400 C 78.663 360.400,79.383 360.940,80.000 361.600 C 80.617 362.260,81.337 362.800,81.600 362.800 C 81.863 362.800,82.583 363.340,83.200 364.000 C 83.817 364.660,84.569 365.200,84.872 365.200 C 85.175 365.200,85.683 365.560,86.000 366.000 C 86.317 366.440,86.857 366.800,87.200 366.800 C 87.543 366.800,88.083 367.160,88.400 367.600 C 88.717 368.040,89.257 368.400,89.600 368.400 C 89.943 368.400,90.483 368.760,90.800 369.200 C 91.117 369.640,91.605 370.000,91.885 370.000 C 92.164 370.000,92.618 370.360,92.893 370.800 C 93.168 371.240,93.709 371.600,94.096 371.600 C 94.483 371.600,94.800 371.780,94.800 372.000 C 94.800 372.220,95.120 372.400,95.512 372.400 C 95.903 372.400,96.483 372.760,96.800 373.200 C 97.117 373.640,97.586 374.000,97.843 374.000 C 98.099 374.000,98.824 374.269,99.454 374.598 C 100.084 374.926,100.875 375.196,101.212 375.198 C 101.548 375.199,102.083 375.560,102.400 376.000 C 102.717 376.440,103.297 376.800,103.688 376.800 C 104.080 376.800,104.400 376.980,104.400 377.200 C 104.400 377.420,104.760 377.600,105.200 377.600 C 105.640 377.600,106.000 377.780,106.000 378.000 C 106.000 378.220,106.360 378.400,106.800 378.400 C 107.240 378.400,107.600 378.580,107.600 378.800 C 107.600 379.020,107.870 379.200,108.200 379.200 C 108.530 379.200,108.800 379.380,108.800 379.600 C 108.800 379.820,109.160 380.000,109.600 380.000 C 110.040 380.000,110.400 380.180,110.400 380.400 C 110.400 380.620,110.760 380.800,111.200 380.800 C 111.640 380.800,112.000 380.980,112.000 381.200 C 112.000 381.420,112.360 381.600,112.800 381.600 C 113.240 381.600,113.600 381.780,113.600 382.000 C 113.600 382.220,113.960 382.400,114.400 382.400 C 114.840 382.400,115.200 382.580,115.200 382.800 C 115.200 383.020,115.560 383.200,116.000 383.200 C 116.440 383.200,116.800 383.380,116.800 383.600 C 116.800 383.820,117.160 384.000,117.600 384.000 C 118.040 384.000,118.400 384.180,118.400 384.400 C 118.400 384.620,118.940 384.800,119.600 384.800 C 120.260 384.800,120.800 384.980,120.800 385.200 C 120.800 385.420,121.160 385.600,121.600 385.600 C 122.040 385.600,122.400 385.780,122.400 386.000 C 122.400 386.220,122.760 386.400,123.200 386.400 C 123.640 386.400,124.000 386.580,124.000 386.800 C 124.000 387.020,124.450 387.200,125.000 387.200 C 125.550 387.200,126.000 387.380,126.000 387.600 C 126.000 387.820,126.540 388.000,127.200 388.000 C 127.860 388.000,128.400 388.180,128.400 388.400 C 128.400 388.620,128.760 388.800,129.200 388.800 C 129.640 388.800,130.000 388.980,130.000 389.200 C 130.000 389.420,130.540 389.600,131.200 389.600 C 131.860 389.600,132.400 389.780,132.400 390.000 C 132.400 390.220,132.940 390.400,133.600 390.400 C 134.260 390.400,134.800 390.562,134.800 390.761 C 134.800 390.959,135.880 391.247,137.200 391.400 C 138.520 391.553,139.600 391.841,139.600 392.039 C 139.600 392.238,140.140 392.400,140.800 392.400 C 141.460 392.400,142.000 392.580,142.000 392.800 C 142.000 393.020,142.450 393.200,143.000 393.200 C 143.550 393.200,144.000 393.380,144.000 393.600 C 144.000 393.820,144.720 394.000,145.600 394.000 C 146.480 394.000,147.200 394.180,147.200 394.400 C 147.200 394.620,147.920 394.800,148.800 394.800 C 149.680 394.800,150.400 394.980,150.400 395.200 C 150.400 395.420,151.120 395.600,152.000 395.600 C 152.880 395.600,153.600 395.780,153.600 396.000 C 153.600 396.220,154.320 396.400,155.200 396.400 C 156.080 396.400,156.800 396.580,156.800 396.800 C 156.800 397.020,157.610 397.200,158.600 397.200 C 159.590 397.200,160.400 397.380,160.400 397.600 C 160.400 397.820,161.300 398.000,162.400 398.000 C 163.500 398.000,164.400 398.180,164.400 398.400 C 164.400 398.622,165.456 398.800,166.767 398.800 C 168.304 398.800,169.192 398.975,169.300 399.300 C 169.544 400.033,231.256 400.033,231.500 399.300 C 231.608 398.975,232.496 398.800,234.033 398.800 C 235.344 398.800,236.400 398.622,236.400 398.400 C 236.400 398.180,237.300 398.000,238.400 398.000 C 239.500 398.000,240.400 397.820,240.400 397.600 C 240.400 397.380,241.210 397.200,242.200 397.200 C 243.190 397.200,244.000 397.020,244.000 396.800 C 244.000 396.580,244.720 396.400,245.600 396.400 C 246.480 396.400,247.200 396.220,247.200 396.000 C 247.200 395.780,247.920 395.600,248.800 395.600 C 249.680 395.600,250.400 395.420,250.400 395.200 C 250.400 394.980,251.120 394.800,252.000 394.800 C 252.880 394.800,253.600 394.620,253.600 394.400 C 253.600 394.180,254.320 394.000,255.200 394.000 C 256.080 394.000,256.800 393.820,256.800 393.600 C 256.800 393.380,257.250 393.200,257.800 393.200 C 258.350 393.200,258.800 393.020,258.800 392.800 C 258.800 392.580,259.340 392.400,260.000 392.400 C 260.660 392.400,261.200 392.238,261.200 392.039 C 261.200 391.841,262.280 391.553,263.600 391.400 C 264.920 391.247,266.000 390.959,266.000 390.761 C 266.000 390.562,266.540 390.400,267.200 390.400 C 267.860 390.400,268.400 390.220,268.400 390.000 C 268.400 389.780,268.940 389.600,269.600 389.600 C 270.260 389.600,270.800 389.420,270.800 389.200 C 270.800 388.980,271.160 388.800,271.600 388.800 C 272.040 388.800,272.400 388.620,272.400 388.400 C 272.400 388.180,272.724 388.000,273.120 388.000 C 274.014 388.000,275.993 387.106,275.997 386.700 C 275.999 386.535,276.540 386.400,277.200 386.400 C 277.860 386.400,278.400 386.220,278.400 386.000 C 278.400 385.780,278.760 385.600,279.200 385.600 C 279.640 385.600,280.000 385.420,280.000 385.200 C 280.000 384.980,280.540 384.800,281.200 384.800 C 281.860 384.800,282.400 384.620,282.400 384.400 C 282.400 384.180,282.760 384.000,283.200 384.000 C 283.640 384.000,284.000 383.820,284.000 383.600 C 284.000 383.380,284.360 383.200,284.800 383.200 C 285.240 383.200,285.600 383.020,285.600 382.800 C 285.600 382.580,285.960 382.400,286.400 382.400 C 286.840 382.400,287.200 382.220,287.200 382.000 C 287.200 381.780,287.560 381.600,288.000 381.600 C 288.440 381.600,288.800 381.420,288.800 381.200 C 288.800 380.980,289.160 380.800,289.600 380.800 C 290.040 380.800,290.400 380.620,290.400 380.400 C 290.400 380.180,290.670 380.000,291.000 380.000 C 291.330 380.000,291.600 379.820,291.600 379.600 C 291.600 379.380,291.960 379.200,292.400 379.200 C 292.840 379.200,293.200 379.020,293.200 378.800 C 293.200 378.580,293.560 378.400,294.000 378.400 C 294.440 378.400,294.800 378.220,294.800 378.000 C 294.800 377.780,295.160 377.600,295.600 377.600 C 296.040 377.600,296.400 377.420,296.400 377.200 C 296.400 376.980,296.720 376.800,297.112 376.800 C 297.503 376.800,298.083 376.440,298.400 376.000 C 298.717 375.560,299.252 375.199,299.588 375.198 C 299.925 375.196,300.716 374.926,301.346 374.598 C 301.976 374.269,302.701 374.000,302.957 374.000 C 303.214 374.000,303.683 373.640,304.000 373.200 C 304.317 372.760,304.897 372.400,305.288 372.400 C 305.680 372.400,306.000 372.220,306.000 372.000 C 306.000 371.780,306.268 371.600,306.597 371.600 C 306.925 371.600,307.418 371.240,307.693 370.800 C 307.968 370.360,308.469 370.000,308.808 370.000 C 309.146 370.000,309.683 369.640,310.000 369.200 C 310.317 368.760,310.857 368.400,311.200 368.400 C 311.543 368.400,312.083 368.040,312.400 367.600 C 312.717 367.160,313.257 366.800,313.600 366.800 C 313.943 366.800,314.483 366.440,314.800 366.000 C 315.117 365.560,315.625 365.200,315.928 365.200 C 316.231 365.200,316.983 364.660,317.600 364.000 C 318.217 363.340,318.937 362.800,319.200 362.800 C 319.463 362.800,320.183 362.260,320.800 361.600 C 321.417 360.940,322.137 360.400,322.400 360.400 C 322.663 360.400,323.383 359.860,324.000 359.200 C 324.617 358.540,325.314 358.000,325.550 358.000 C 325.786 358.000,326.789 357.190,327.779 356.200 C 328.769 355.210,329.772 354.400,330.009 354.400 C 330.245 354.400,331.681 353.140,333.200 351.600 C 334.719 350.060,336.160 348.800,336.403 348.800 C 336.646 348.800,337.913 347.675,339.219 346.300 C 342.187 343.175,343.175 342.187,346.300 339.219 C 347.675 337.913,348.800 336.646,348.800 336.403 C 348.800 336.160,350.060 334.719,351.600 333.200 C 353.140 331.681,354.400 330.245,354.400 330.009 C 354.400 329.772,355.210 328.769,356.200 327.779 C 357.190 326.789,358.000 325.786,358.000 325.550 C 358.000 325.314,358.540 324.617,359.200 324.000 C 359.860 323.383,360.400 322.663,360.400 322.400 C 360.400 322.137,360.940 321.417,361.600 320.800 C 362.260 320.183,362.800 319.463,362.800 319.200 C 362.800 318.937,363.340 318.217,364.000 317.600 C 364.660 316.983,365.200 316.231,365.200 315.928 C 365.200 315.625,365.560 315.117,366.000 314.800 C 366.440 314.483,366.800 313.943,366.800 313.600 C 366.800 313.257,367.160 312.717,367.600 312.400 C 368.040 312.083,368.400 311.543,368.400 311.200 C 368.400 310.857,368.760 310.317,369.200 310.000 C 369.640 309.683,370.000 309.146,370.000 308.808 C 370.000 308.469,370.360 307.968,370.800 307.693 C 371.240 307.418,371.600 306.925,371.600 306.597 C 371.600 306.268,371.780 306.000,372.000 306.000 C 372.220 306.000,372.400 305.460,372.400 304.800 L 372.400 303.600 330.200 303.600 L 288.000 303.600 288.000 250.400 C 288.000 203.276,287.931 197.200,287.397 197.200 C 287.066 197.200,267.446 216.550,243.797 240.200 C 220.149 263.850,200.617 283.200,200.395 283.200 C 200.172 283.200,180.642 263.850,156.994 240.200 C 133.345 216.550,113.728 197.200,113.398 197.200 C 112.870 197.200,112.800 203.439,112.800 250.400 " stroke="none" fill="#040404" fill-rule="evenodd"></path></g></svg>